<svg width="12" height="12" viewBox="0 0 12 12" fill="none" xmlns="http://www.w3.org/2000/svg">
<g clip-path="url(#clip0_2153_4753)">
<path d="M9.49976 0.5C9.49976 0.223857 9.72361 0 9.99976 0C10.2759 0 10.4998 0.223857 10.4998 0.5V0.79291L11.1352 0.157447C11.3305 -0.0378153 11.6471 -0.0378147 11.8423 0.157448C12.0376 0.35271 12.0376 0.66929 11.8423 0.864555L11.2069 1.5H11.4998C11.7759 1.5 11.9998 1.72386 11.9998 2C11.9998 2.27614 11.7759 2.5 11.4998 2.5H10.2069L6.35061 6.35625C6.15536 6.5515 5.83876 6.5515 5.64351 6.35625C5.44826 6.161 5.44826 5.8444 5.64351 5.64915L9.49976 1.79291V0.5Z" fill="#A465F7"/>
<path d="M8.6962 1.89454C8.917 1.67375 8.88385 1.30537 8.6091 1.15704C7.83275 0.737905 6.94415 0.5 6 0.5C2.96244 0.5 0.5 2.96244 0.5 6C0.5 9.03755 2.96244 11.5 6 11.5C9.03755 11.5 11.5 9.03755 11.5 6C11.5 5.0577 11.2631 4.17076 10.8455 3.39551C10.6973 3.12046 10.3287 3.08712 10.1077 3.30803L10.0928 3.32299C9.9277 3.48808 9.9016 3.74417 10.008 3.95198C10.3226 4.5663 10.5 5.26245 10.5 6C10.5 8.4853 8.4853 10.5 6 10.5C3.51472 10.5 1.5 8.4853 1.5 6C1.5 3.51472 3.51472 1.5 6 1.5C6.7391 1.5 7.4366 1.67819 8.05185 1.99396C8.25975 2.10065 8.5161 2.07465 8.68135 1.90942L8.6962 1.89454Z" fill="#A465F7"/>
<path d="M7.19495 3.3958C7.43125 3.15951 7.3718 2.76164 7.0531 2.66121C6.72075 2.55648 6.36695 2.5 6 2.5C4.06701 2.5 2.5 4.06701 2.5 6C2.5 7.933 4.06701 9.5 6 9.5C7.933 9.5 9.5 7.933 9.5 6C9.5 5.6351 9.44415 5.2832 9.34055 4.95245C9.24055 4.63329 8.8423 4.57349 8.60585 4.80998L8.5597 4.85612C8.4191 4.99669 8.37975 5.2062 8.42735 5.3992C8.4748 5.59165 8.5 5.7929 8.5 6C8.5 7.3807 7.3807 8.5 6 8.5C4.61929 8.5 3.5 7.3807 3.5 6C3.5 4.61929 4.61929 3.5 6 3.5C6.2086 3.5 6.41125 3.52555 6.605 3.5737C6.79825 3.62173 7.0083 3.58248 7.1491 3.44165L7.19495 3.3958Z" fill="#A465F7"/>
<path d="M5.539 4.57555C5.7437 4.50729 5.8467 4.74392 5.6941 4.89652L5.29135 5.29932C4.90127 5.68937 4.90127 6.32177 5.29135 6.71182C5.6814 7.10187 6.3138 7.10187 6.70385 6.71182L7.10155 6.31412C7.25445 6.16122 7.4911 6.26492 7.42145 6.46972C7.2205 7.06032 6.65675 7.49987 6 7.49987C5.17155 7.49987 4.5 6.82832 4.5 5.99987C4.5 5.33967 4.94414 4.77388 5.539 4.57555Z" fill="#A465F7"/>
</g>
<defs>
<clipPath id="clip0_2153_4753">
<rect width="12" height="12" fill="white"/>
</clipPath>
</defs>
</svg>
