<svg width="120" height="120" viewBox="0 0 120 120" fill="none" xmlns="http://www.w3.org/2000/svg">
<path d="M47.7572 36.9136C48.7252 37.4242 49.4152 37.5222 50.431 37.0098C50.5127 37.1967 50.6027 37.3578 50.6173 37.5586C50.8121 37.5801 51.1813 37.6089 51.3598 37.6431C51.6889 37.9084 53.5107 38.6525 54.0357 38.8782L59.1125 41.06L64.057 43.1901C64.8387 43.5271 66.1148 44.1187 66.8827 44.3719C66.0383 44.6811 65.133 45.0638 64.3105 45.4347C62.5746 46.2174 60.7449 46.9093 59.0321 47.7309C58.6465 48.2527 57.4325 48.2838 57.3246 48.7382C57.422 49.0621 57.5642 49.4396 57.5621 49.7678L57.4933 49.8865C57.018 49.9494 56.5855 49.2414 56.1309 49.0978C55.752 49.1993 55.4603 49.456 55.2558 49.3529C54.6768 49.586 54.0996 49.8234 53.5243 50.0652C52.737 50.4262 51.3893 51.0598 50.576 51.3123C50.5516 51.8067 50.5614 52.2233 50.5753 52.7193L74.3536 52.7246L81.6811 52.7267C82.9155 52.7273 84.3177 52.6966 85.5342 52.7368C89.575 52.6838 93.7016 52.7278 97.7497 52.7303C97.6459 58.4635 98.1719 63.9767 96.4571 69.5706C96.1016 70.73 95.879 71.8566 95.3748 72.9859C95.6655 73.3711 96.1856 74.032 96.0316 74.5082C95.5195 76.094 94.2263 78.0518 93.3831 79.466C95.2697 81.1573 96.1168 83.5593 96.2239 86.0294C96.2497 86.6156 96.2437 87.2582 95.8023 87.7016C95.3444 88.1614 94.7384 88.189 94.1516 88.056C93.962 88.7464 96.8543 91.43 94.5964 92.6398C93.851 93.0387 93.9461 92.8422 93.2444 92.9608C93.5662 93.3538 93.8827 93.7259 93.9745 94.2518C94.1113 95.032 93.2761 95.989 92.5003 96.0302C91.5243 96.059 90.9587 95.1492 90.4016 94.5224C89.762 93.8012 89.09 92.6916 88.3499 92.1119C86.9966 91.8315 85.632 91.6069 84.2596 91.4372C83.5096 91.9769 78.7281 95.7905 78.6144 96.2621C78.6772 96.9112 78.732 97.5473 78.2688 98.0687C77.3212 99.1357 76.3294 98.6038 75.5787 97.7634C74.3298 97.0029 74.1996 96.118 74.1871 94.7916C74.125 93.2994 74.0318 91.8256 74.0331 90.3296C74.0338 89.6392 74.0259 88.8649 73.9466 88.187C73.6598 88.0272 73.2765 87.5293 73.2137 87.2051C72.1816 86.5638 70.4496 85.5099 69.3712 84.982C69.1657 84.7717 66.3428 83.2566 65.7277 82.7929C64.6472 83.142 63.5613 83.3018 62.438 83.4328C57.9189 83.9719 53.3393 83.1997 49.2542 81.2097C39.2558 76.2689 33.9219 65.4835 36.4082 54.6091C37.9961 47.6635 41.8579 43.1389 47.7507 39.3234C47.8152 38.5384 47.7182 37.7191 47.7572 36.9136Z" fill="white"/>
<path d="M76.5635 66.7356C77.0155 66.4257 77.523 66.2404 78.0549 66.1133C78.5578 66.2829 78.8426 66.3956 79.2728 66.727C79.9746 67.7076 80.7728 68.924 81.4818 69.8613C82.0911 70.8235 84.0939 73.8078 84.7679 74.5349C86.0704 74.25 87.3754 73.9611 88.6931 73.741C90.6034 73.422 92.5058 72.8325 94.4413 72.7041C94.8113 72.6799 95.0175 72.7336 95.3353 72.9209L95.375 72.9858C95.6657 73.3709 96.1858 74.0318 96.0318 74.508C95.5197 76.0938 94.2265 78.0517 93.3834 79.4659C95.2699 81.1572 96.1171 83.5591 96.2241 86.0292C96.2499 86.6155 96.2439 87.258 95.8025 87.7015C95.3446 88.1613 94.7386 88.1888 94.1519 88.0559C93.9622 88.7462 96.8545 91.4299 94.5966 92.6397C93.8512 93.0386 93.9464 92.8421 93.2446 92.9607C93.5664 93.3537 93.8829 93.7257 93.9748 94.2517C94.1116 95.0318 93.2763 95.9888 92.5005 96.0301C91.5245 96.0589 90.9589 95.1491 90.4019 94.5222C89.7622 93.8011 89.0902 92.6914 88.3501 92.1117C86.9968 91.8314 85.6323 91.6067 84.2598 91.4371C83.5098 91.9768 78.7283 95.7904 78.6146 96.262C78.6774 96.9111 78.7323 97.5471 78.269 98.0685C77.3215 99.1356 76.3296 98.6037 75.579 97.7633C74.3301 97.0028 74.1999 96.1179 74.1873 94.7914C74.1252 93.2993 74.032 91.8255 74.0334 90.3294C74.034 89.639 74.0261 88.8648 73.9468 88.1869C73.66 88.027 73.2768 87.5292 73.214 87.205C72.1818 86.5637 70.4499 85.5098 69.3715 84.9818C69.166 84.7716 66.3431 83.2565 65.7279 82.7928C65.1552 81.8155 65.0889 81.2888 65.8689 80.3862C66.6794 79.7869 67.9263 79.4862 68.9201 79.1679C71.0922 78.3989 73.2754 77.6593 75.4679 76.948C75.5512 74.0462 75.9246 71.0744 76.1413 68.1753C76.1836 67.6146 76.3065 67.2327 76.5635 66.7356Z" fill="#FBDD58"/>
<path d="M73.2139 87.2051C73.7392 87.4487 74.1046 87.5228 73.9467 88.187C73.6599 88.0271 73.2766 87.5293 73.2139 87.2051Z" fill="#FEFDD0"/>
<path d="M91.6868 82.3574C92.5775 83.3242 92.9046 84.5452 93.0084 85.8218L92.9357 85.9515C92.6753 85.719 91.5553 83.4395 91.3174 82.9764C91.4324 82.7694 91.5632 82.5605 91.6868 82.3574Z" fill="#FEFDFF"/>
<path d="M85.5344 52.737C89.5751 52.6839 93.7018 52.7279 97.7498 52.7305C97.646 58.4637 98.172 63.9768 96.4573 69.5708C96.1018 70.7302 95.8791 71.8568 95.3749 72.9861L95.3352 72.9212C95.0174 72.7339 94.8112 72.6802 94.4412 72.7044C92.5057 72.8328 90.6033 73.4223 88.6929 73.7413C87.3753 73.9614 86.0703 74.2503 84.7678 74.5352C84.0938 73.8081 82.091 70.8238 81.4817 69.8616C80.7727 68.9243 79.9744 67.7079 79.2727 66.7273C78.8425 66.3959 78.5577 66.2832 78.0548 66.1136C77.5229 66.2406 77.0154 66.426 76.5634 66.7358C73.2681 66.821 69.185 66.8027 65.8811 66.7385C65.8772 66.7332 65.8744 66.7267 65.8695 66.7221C65.5271 66.4188 62.1892 66.6422 61.5024 66.6147L61.5548 66.5465C62.1798 66.371 62.3588 66.2976 62.4041 65.6118L62.4084 65.5372C63.3137 64.5438 64.3046 63.5816 65.305 62.6868C66.2841 61.8113 67.5978 60.0397 68.6888 59.387L68.7965 59.5475L68.9993 59.4989C69.2921 59.7959 68.9524 60.7943 69.5319 60.8403C68.9808 60.1702 69.0112 59.2002 69.6033 58.5654C70.1954 57.9306 71.1687 57.8247 71.8857 58.317L71.8606 58.2174C71.476 57.9216 71.2401 57.944 70.7656 57.9281C70.7755 56.9642 71.2322 56.8224 71.848 56.2808C72.3674 55.824 74.0656 54.2522 74.0868 53.6243C73.8813 53.4395 73.761 53.3853 73.7485 53.1658L73.909 53.0615L73.537 52.9345C73.8165 52.8064 74.6894 52.9265 75.074 52.9257L80.1139 52.902C81.2015 52.9018 84.6311 53.0551 85.4617 52.7637C85.4861 52.7553 85.5099 52.7459 85.5344 52.737Z" fill="url(#paint0_linear_4472_11107)"/>
<path d="M79.2727 66.7271C80.404 66.7434 81.5353 66.7493 82.6665 66.7441C82.2813 67.7587 81.9073 68.8814 81.4817 69.8613C80.7727 68.924 79.9745 67.7076 79.2727 66.7271Z" fill="#F8EEFC"/>
<path d="M85.9789 57.485C86.9317 57.3401 87.8212 57.9931 87.9593 58.9389C88.0967 59.8848 87.4306 60.7605 86.4751 60.8889C85.5315 61.0157 84.6612 60.3648 84.5251 59.4307C84.389 58.4965 85.0379 57.628 85.9789 57.485Z" fill="#FEFDFF"/>
<path d="M88.4142 69.5086C88.8953 69.4666 89.3724 69.6258 89.7299 69.9468C90.088 70.2684 90.2949 70.723 90.3001 71.2018C90.3107 72.0789 89.6532 72.823 88.775 72.9284C88.1526 73.0037 87.538 72.7404 87.1673 72.2393C86.796 71.7382 86.7266 71.0786 86.9849 70.512C87.2433 69.9461 87.7898 69.5623 88.4142 69.5086Z" fill="#FEFDFF"/>
<path d="M47.7572 36.9136C48.7252 37.4242 49.4152 37.5222 50.431 37.0098C50.5127 37.1967 50.6027 37.3578 50.6173 37.5586C50.8121 37.5801 51.1813 37.6089 51.3598 37.6431C51.6889 37.9084 53.5107 38.6525 54.0357 38.8782L59.1125 41.06L64.057 43.1901C64.8387 43.5271 66.1148 44.1187 66.8827 44.3719C66.0383 44.6811 65.133 45.0638 64.3105 45.4347C62.5746 46.2174 60.7449 46.9093 59.0321 47.7309C58.6465 48.2527 57.4326 48.2838 57.3246 48.7382C57.422 49.0621 57.5642 49.4396 57.5621 49.7678L57.4933 49.8865C57.018 49.9494 56.5855 49.2414 56.1309 49.0978C55.752 49.1993 55.4603 49.456 55.2558 49.3529C54.6768 49.586 54.0996 49.8234 53.5243 50.0652C52.737 50.4262 51.3893 51.0598 50.576 51.3123C50.5516 51.8067 50.5614 52.2233 50.5753 52.7193L74.3536 52.7246L81.6811 52.7267C82.9155 52.7273 84.3177 52.6966 85.5342 52.7368C85.5098 52.7457 85.486 52.7551 85.4615 52.7635C84.6309 53.055 81.2014 52.9016 80.1137 52.9019L75.0739 52.9255C74.6893 52.9263 73.8164 52.8062 73.5369 52.9344L73.9089 53.0614L73.7483 53.1657C73.7609 53.3852 73.8811 53.4393 74.0867 53.6242C74.0655 54.2521 72.3673 55.8238 71.8479 56.2806C71.232 56.8222 70.7754 56.9641 70.7655 57.9279C71.24 57.9438 71.4759 57.9214 71.8604 58.2172L71.8855 58.3168C71.1686 57.8246 70.1952 57.9305 69.6032 58.5653C69.0111 59.2 68.9807 60.17 69.5318 60.8401C68.9523 60.7942 69.2919 59.7957 68.9992 59.4987L68.7963 59.5473L68.6886 59.3869C67.5977 60.0395 66.284 61.8111 65.3049 62.6866C64.3045 63.5814 63.3135 64.5436 62.4083 65.537L62.404 65.6117C62.3587 66.2975 62.1797 66.3708 61.5547 66.5464L61.5023 66.6145C62.1891 66.642 65.527 66.4186 65.8694 66.7219C65.8743 66.7265 65.8771 66.7331 65.8809 66.7383C64.9029 66.7881 63.6426 66.7514 62.6426 66.7521L56.4264 66.754L51.7902 66.7534C49.8331 66.7534 47.727 66.9256 45.947 65.9555C41.0881 63.3079 40.7851 56.8506 45.4437 53.8298C46.2408 53.3129 46.8556 53.1255 47.767 52.8776C47.7237 48.3597 47.7183 43.8414 47.7507 39.3234C47.8152 38.5384 47.7182 37.7191 47.7572 36.9136Z" fill="url(#paint1_linear_4472_11107)"/>
<path d="M50.6174 37.5581C50.8122 37.5797 51.1814 37.6084 51.3599 37.6427C51.689 37.908 53.5108 38.6521 54.0359 38.8777L59.1126 41.0595L64.0571 43.1896C64.8388 43.5266 66.115 44.1182 66.8828 44.3714C66.0384 44.6807 65.1331 45.0633 64.3106 45.4342C62.5748 46.217 60.745 46.9089 59.0322 47.7304C58.6466 48.2522 57.4327 48.2833 57.3247 48.7378C57.4221 49.0616 57.5644 49.4392 57.5622 49.7673L57.4935 49.8861C57.0181 49.949 56.5856 49.2409 56.131 49.0974C55.7521 49.1988 55.4605 49.4555 55.2559 49.3524C54.677 49.5855 54.0998 49.8229 53.5244 50.0647C52.7371 50.4257 51.3894 51.0594 50.5761 51.3119C50.6422 48.179 50.5077 44.9431 50.5604 41.8021C50.5826 40.4804 50.5044 38.8496 50.6174 37.5581Z" fill="#F061AA"/>
<path d="M54.8036 46.4419L55.4971 44.355L56.2047 46.4364C56.9373 46.4447 57.5971 46.4512 58.3297 46.4155C57.8508 46.8885 56.7041 47.7365 57.0958 48.4141C57.3991 48.5134 58.6204 47.8947 59.0322 47.7308C58.6466 48.2526 57.4326 48.2837 57.3247 48.7381C57.4221 49.062 57.5643 49.4395 57.5622 49.7677L57.4934 49.8864C57.0181 49.9493 56.5856 49.2413 56.131 49.0977C55.7521 49.1992 55.4604 49.4559 55.2559 49.3528C55.4676 49.2468 55.9118 49.0734 56.0111 48.8928C55.9426 48.7711 55.754 48.6326 55.6397 48.6283C55.1254 48.6092 53.8987 49.6784 53.524 49.9031C53.4281 49.5751 53.9735 48.2936 54.1223 47.8955C53.6254 47.4458 53.1548 46.9231 52.6948 46.4333L54.8036 46.4419Z" fill="#F8EEFC"/>
<path d="M47.7572 36.9136C48.7253 37.4242 49.4153 37.5222 50.431 37.0098C50.5127 37.1967 50.6028 37.3578 50.6173 37.5586C50.5043 38.8501 50.5826 40.4808 50.5604 41.8026C50.5076 44.9436 50.6422 48.1794 50.5761 51.3123C50.5516 51.8067 50.5615 52.2233 50.5754 52.7193L50.5829 58.1679C50.5832 59.8713 50.8656 61.1276 48.6657 61.1242C47.3712 60.213 47.7177 58.8814 47.7293 57.4528L47.7671 52.8776C47.7238 48.3597 47.7184 43.8414 47.7508 39.3234C47.8152 38.5384 47.7183 37.7191 47.7572 36.9136Z" fill="#3AB8F8"/>
<path d="M50.5829 58.168C51.0613 58.5519 51.3714 58.9069 51.4562 59.5512C51.5174 60.0118 51.3859 60.4771 51.0921 60.8391C50.4676 61.6151 49.4655 61.6616 48.6658 61.1242C50.8657 61.1276 50.5833 59.8714 50.5829 58.168Z" fill="#FEFDFF"/>
<path d="M76.5635 66.736C77.0155 66.4262 77.523 66.2408 78.0549 66.1138C78.5578 66.2834 78.8426 66.3961 79.2728 66.7275C79.9746 67.7081 80.7728 68.9245 81.4818 69.8618C82.0911 70.824 84.0939 73.8083 84.7679 74.5354C86.0704 74.2505 87.3754 73.9616 88.6931 73.7415C90.6034 73.4225 92.5058 72.833 94.4413 72.7046C94.8113 72.6804 95.0175 72.7341 95.3353 72.9214L95.375 72.9863C95.6657 73.3714 96.1858 74.0323 96.0318 74.5085C95.5197 76.0943 94.2265 78.0522 93.3834 79.4664C93.3094 79.4291 92.71 78.9863 92.5805 78.8985C91.8113 78.3791 91.1743 78.0849 90.3027 77.7738C90.6768 76.8836 91.0911 76.0098 91.5437 75.1563C89.7279 75.4649 87.914 75.7904 86.1034 76.133C85.3224 76.2771 83.9869 76.5718 83.2534 76.6157C82.9171 76.2954 82.738 75.9784 82.4624 75.6253C81.1217 73.9072 79.8893 71.6428 78.4547 70.0413C78.4124 70.9164 78.3384 71.8472 78.2446 72.7197C78.0583 74.4561 78.0146 76.2961 77.7503 78.0181C77.3182 78.2736 75.2135 79.0105 74.6056 79.2057C73.1261 79.6799 71.305 80.4456 69.8492 80.8616C71.558 82.3053 73.2431 83.0153 74.7622 84.1839L75.0285 84.271C75.6259 84.6751 76.8635 85.3518 77.1232 85.9825C77.0988 86.331 77.0624 86.7188 77.0512 87.0653C77.1464 87.6705 77.1834 88.7566 77.2237 89.4136C77.3023 90.6994 77.4444 92.016 77.5204 93.2919C79.4651 91.6721 81.5307 89.817 83.408 88.1159C84.0721 88.2659 85.9957 88.598 86.4444 88.8712C86.4867 90.3234 87.8248 90.9784 88.3501 92.1122C86.9968 91.8319 85.6323 91.6072 84.2598 91.4376C83.5098 91.9773 78.7283 95.7908 78.6146 96.2625C78.6774 96.9116 78.7323 97.5476 78.269 98.069C77.3215 99.136 76.3296 98.6042 75.579 97.7638C74.3301 97.0033 74.1999 96.1184 74.1873 94.7919C74.1252 93.2998 74.032 91.826 74.0334 90.3299C74.034 89.6395 74.0261 88.8653 73.9468 88.1873C73.66 88.0275 73.2768 87.5297 73.214 87.2055C72.1818 86.5642 70.4499 85.5103 69.3715 84.9823C69.166 84.7721 66.3431 83.257 65.7279 82.7932C65.1552 81.8159 65.0889 81.2893 65.8689 80.3867C66.6794 79.7873 67.9263 79.4867 68.9201 79.1684C71.0922 78.3994 73.2754 77.6598 75.4679 76.9485C75.5512 74.0467 75.9246 71.0749 76.1413 68.1758C76.1836 67.6151 76.3065 67.2332 76.5635 66.736Z" fill="#E8B40C"/>
<path d="M74.7621 84.1836L75.0284 84.2707C75.6258 84.6749 76.8634 85.3515 77.1231 85.9823C77.0987 86.3308 77.0623 86.7185 77.0511 87.065C75.444 88.1124 74.2031 87.817 73.7002 85.9037C73.9295 85.0305 74.1482 84.8432 74.7621 84.1836Z" fill="#EF9931"/>
<path d="M75.5786 97.7634C76.733 97.6717 77.0568 97.3625 77.9238 96.6328C78.0949 96.4893 78.2991 96.2883 78.5026 96.207L78.6143 96.2621C78.6771 96.9112 78.7319 97.5472 78.2687 98.0686C77.3211 99.1356 76.3293 98.6038 75.5786 97.7634Z" fill="#D87703"/>
<path d="M88.8629 80.5021C88.6931 80.356 88.5425 80.189 88.4169 80.0043C88.2061 79.6886 88.1513 79.2392 88.2378 78.8744C88.3336 78.4624 88.5933 78.1054 88.9581 77.8853C89.4742 77.5768 89.7834 77.6338 90.3028 77.7733C91.1744 78.0844 91.8114 78.3785 92.5806 78.898C92.7101 78.9857 93.3094 79.4285 93.3834 79.4659C95.27 81.1571 96.1171 83.5591 96.2242 86.0292C96.2499 86.6154 96.244 87.258 95.8026 87.7015C95.3447 88.1613 94.7387 88.1888 94.1519 88.0558C94.0561 88.0447 94.0151 88.0421 93.9273 87.9949C92.9632 87.4761 93.2334 86.6292 93.0088 85.8215C92.905 84.5449 92.5779 83.3239 91.6872 82.3571C91.4671 82.0742 91.3693 81.9916 91.1083 81.7624C90.5189 81.22 89.5984 80.8453 88.8629 80.5021Z" fill="#D87703"/>
<path d="M88.4312 84.0908C90.2807 83.9605 90.7016 83.5524 91.108 81.7622C91.369 81.9915 91.4668 82.074 91.6869 82.357C92.5776 83.3238 92.9047 84.5447 93.0085 85.8214C93.2331 86.629 92.9629 87.476 93.927 87.9947C94.0149 88.0419 94.0558 88.0445 94.1516 88.0557C93.962 88.746 96.8543 91.4297 94.5964 92.6395C93.851 93.0384 93.9461 92.8419 93.2444 92.9605C93.0177 92.817 90.993 90.1989 90.8457 89.9113C90.9276 89.8216 90.9078 89.8615 90.9461 89.7515C91.0723 89.386 88.6935 84.643 88.4312 84.0908Z" fill="#E8B40C"/>
<path d="M86.4438 88.8712C87.1806 86.8249 88.7051 87.3063 89.7815 88.7061C90.0663 89.0762 90.5124 89.591 90.8454 89.912C90.9928 90.1996 93.0174 92.8177 93.2441 92.9611C93.5659 93.3541 93.8824 93.7262 93.9742 94.2522C94.111 95.0323 93.2758 95.9893 92.5 96.0306C91.524 96.0594 90.9584 95.1496 90.4013 94.5227C89.7617 93.8015 89.0897 92.6919 88.3496 92.1122C87.8242 90.9784 86.4861 90.3233 86.4438 88.8712Z" fill="#D87703"/>
<path d="M88.8627 80.502C89.5982 80.8452 90.5187 81.2199 91.1081 81.7622C90.7017 83.5524 90.2808 83.9605 88.4312 84.0908C88.2601 83.8006 88.1748 83.7109 87.9535 83.4633C87.9323 83.1482 87.855 83.0107 87.738 82.7205C87.9561 82.1323 88.5812 81.1386 88.6268 80.7161C88.7385 80.6415 88.7662 80.6002 88.8627 80.502Z" fill="#EF9931"/>
<path d="M87.9538 83.463C86.9983 82.6304 87.3201 80.9156 88.6272 80.7158C88.5816 81.1383 87.9564 82.132 87.7384 82.7202C87.8553 83.0104 87.9327 83.1479 87.9538 83.463Z" fill="#FBB462"/>
<path d="M75.0286 84.2706C75.8836 83.9333 76.8226 84.4579 77.1279 85.2911C77.2065 85.5047 77.1557 85.7621 77.1233 85.9822C76.8636 85.3514 75.6259 84.6747 75.0286 84.2706Z" fill="#FBB462"/>
<path d="M83.6863 77.1701C86.1042 76.9781 87.3815 81.4487 85.2286 82.631C83.0533 82.965 81.4456 78.5246 83.6863 77.1701Z" fill="#471502"/>
<path d="M83.6896 78.1587C83.9903 78.0997 84.2995 78.2052 84.5004 78.4351C84.7006 78.665 84.7614 78.984 84.659 79.2702C84.5559 79.5571 84.3061 79.7667 84.0041 79.8198C83.5442 79.9004 83.1041 79.5991 83.0176 79.1438C82.931 78.6886 83.231 78.2491 83.6896 78.1587Z" fill="#FEFDFF"/>
<path d="M77.5914 78.8027C79.7727 78.4896 81.3368 82.968 79.1582 84.2276C76.9075 84.6986 75.317 80.0512 77.5914 78.8027Z" fill="#471502"/>
<path d="M77.4642 79.8108C77.7589 79.7165 78.082 79.7885 78.3073 79.9988C78.5333 80.2084 78.6258 80.5235 78.5492 80.8208C78.4732 81.1182 78.2399 81.3514 77.9406 81.4287C77.4952 81.5446 77.0373 81.2879 76.9084 80.8497C76.7796 80.4108 77.0261 79.951 77.4642 79.8108Z" fill="#FEFDFF"/>
<path d="M79.7305 84.0359C80.8736 83.8355 83.3642 83.0993 84.5582 82.7822C84.6838 83.5597 84.6692 83.7661 84.5047 84.5416C84.4571 85.9669 81.7043 86.8532 80.7791 85.6231C80.2168 85.2425 79.9611 84.632 79.7305 84.0359Z" fill="#471502"/>
<path d="M84.5048 84.5415C84.4573 85.9668 81.7044 86.8531 80.7793 85.6229C81.1374 85.4356 83.7397 84.8219 84.5048 84.5415Z" fill="#FCA6A3"/>
<path d="M65.869 80.3864C65.3305 79.8532 64.4484 78.8294 64.5942 78.1501C65.0319 76.1104 66.9081 76.3966 67.8491 77.8835C68.0572 78.2124 68.6989 78.9178 68.9202 79.168C67.9264 79.4864 66.6795 79.787 65.869 80.3864Z" fill="#D87703"/>
<path d="M35.617 30.7513C36.1153 30.4463 36.8437 29.7262 37.3468 29.3776C37.9947 28.9287 38.7037 28.5044 39.3592 28.0788C44.6291 24.6563 50.7647 22.7662 57.0342 22.3257C58.6768 22.2102 61.2328 22.0889 62.8721 22.326C67.5575 22.5604 73.7406 24.4154 77.7813 26.7139C78.1593 26.8147 78.0529 26.8235 78.4692 26.6322L78.4328 26.9571L78.8643 27.3003C80.3571 28.105 81.3489 28.8945 82.7439 29.8456C83.1925 29.6459 83.7866 29.8853 84.2339 30.0471C91.767 32.7716 92.0782 42.668 84.8432 45.9733C83.0498 46.7927 80.5269 46.7721 78.6654 46.1455C76.3685 45.2285 74.7377 43.6959 73.6269 41.4759C73.5687 41.3595 73.4491 40.9934 73.4617 40.8692L73.6408 40.8069C73.3216 40.3513 71.9868 39.8799 71.5454 39.2734C70.8694 38.8526 70.1273 38.5764 69.4091 38.2445C65.2716 36.3328 60.6843 35.8363 56.1862 36.4397C54.4689 36.6701 53.0078 37.2342 51.36 37.6433C51.1815 37.609 50.8123 37.5803 50.6174 37.5587C50.6029 37.358 50.5128 37.1968 50.4312 37.0099C49.4154 37.5223 48.7254 37.4243 47.7573 36.9137C47.7184 37.7193 47.8153 38.5386 47.7509 39.3235C41.8581 43.139 37.9963 47.6636 36.4083 54.6092C33.9221 65.4836 39.256 76.269 49.2543 81.2098C49.2253 81.3572 49.1657 81.8386 49.102 81.8989C48.0723 82.8638 46.6778 84.4148 45.6693 85.2664C45.5553 85.2683 45.5992 85.2552 45.5295 85.2932C44.9295 84.8793 44.1317 84.8838 43.5368 85.305C42.9418 85.7255 42.678 86.4723 42.878 87.1692L42.7985 87.2478C43.2139 87.8603 41.7804 89.1428 41.4014 89.5456C40.8134 90.1718 40.4254 90.8138 39.6717 91.2218L39.5446 91.2893C39.6364 91.6456 39.6294 91.4983 39.5032 91.8068C38.6072 91.3306 36.1028 89.5037 35.3032 88.8349C29.2697 83.8096 24.9634 77.0472 22.9815 69.4869C22.6074 68.0793 22.1821 66.3513 22.0539 64.8983C21.6296 64.0955 21.7271 58.1309 21.8061 56.9958C22.3955 49.4018 25.3096 42.1673 30.1588 36.2594C31.1141 35.0913 32.0168 33.9714 33.1674 32.9785L33.152 32.9511C32.7819 32.7541 32.1325 32.6209 31.7094 32.5257C34.2043 31.6304 34.3901 31.5012 35.0826 28.9385C35.1893 29.3821 35.3408 30.4547 35.617 30.7513Z" fill="url(#paint2_linear_4472_11107)"/>
<path d="M35.617 30.7513C36.1153 30.4463 36.8437 29.7262 37.3468 29.3776C37.9947 28.9287 38.7037 28.5044 39.3592 28.0788C44.6291 24.6563 50.7647 22.7662 57.0342 22.3257C58.6768 22.2102 61.2328 22.0889 62.8721 22.326C62.8507 22.3302 62.8293 22.3348 62.8078 22.3386C61.4613 22.5766 56.2583 21.9275 55.5323 22.9364C55.3029 23.2552 55.1705 23.6478 54.9181 23.95C54.1071 24.9213 53.0956 25.7399 52.2526 26.6797C52.0826 26.8692 51.9679 27.2854 51.7531 27.3852L51.5264 27.3497C51.0226 27.8647 50.3348 28.3472 49.996 28.9437C49.6932 29.4631 49.0244 29.7987 48.5999 30.2312C47.774 31.0728 46.9023 31.8813 46.0806 32.7245C45.605 33.2125 44.8455 33.186 44.8406 33.771L44.7604 33.8199L44.66 33.7794C44.3793 34.1601 44.7355 35.7631 42.9761 36.0217C42.8098 36.0461 42.1813 36.097 42.0798 36.2097C41.5737 36.7713 41.0294 37.5819 40.5236 38.1186C39.9676 38.7085 39.3641 39.2486 38.7986 39.8702C38.3359 40.3787 37.456 40.9621 36.9768 41.4862C36.9174 41.5878 36.8091 41.8563 36.8035 41.962C36.7854 42.3019 36.0905 42.9752 35.7847 43.0513C34.442 43.3852 34.8803 43.4762 34.2673 44.4138C33.9584 44.8863 32.8724 45.7449 32.5171 46.2677C32.0538 46.7661 31.4927 47.1516 31.0184 47.6407C30.837 47.8277 30.517 47.8086 30.2698 48.1095C30.1619 48.4931 30.5871 48.3333 30.1812 48.7789C30.9113 48.9609 31.3308 48.9106 31.7683 49.6254C32.3724 50.6123 31.9619 51.8579 30.9448 52.3427C30.4965 52.5567 29.9798 52.5805 29.5135 52.4087C28.5181 52.0352 28.4812 51.4179 28.2476 50.602C27.7952 50.9016 28.6158 50.715 27.7028 51.0129C26.9986 51.2426 25.274 53.2302 24.6709 53.7622C24.1469 54.2244 23.9419 54.7508 23.3187 55.0636C23.0614 55.1927 22.747 55.3686 22.6531 55.5848C22.6098 55.6845 22.5102 55.7198 22.4129 55.7646C22.3434 56.0356 22.4466 56.0596 22.3319 56.1627C22.2761 56.0844 22.2218 56.0051 22.169 55.9248C21.6845 56.3456 21.8551 62.1406 21.9841 63.08C22.0382 63.4739 22.1588 64.4835 22.1316 64.8378L22.0539 64.8983C21.6296 64.0956 21.7271 58.1309 21.8061 56.9958C22.3955 49.4018 25.3096 42.1673 30.1588 36.2594C31.1141 35.0913 32.0168 33.9714 33.1674 32.9785L33.152 32.9511C32.7819 32.7541 32.1325 32.6209 31.7094 32.5257C34.2043 31.6304 34.3901 31.5012 35.0826 28.9385C35.1893 29.3821 35.3408 30.4547 35.617 30.7513Z" fill="url(#paint3_linear_4472_11107)"/>
<path d="M31.7092 32.5252C34.2042 31.6299 34.39 31.5007 35.0824 28.938C35.1892 29.3816 35.3407 30.4542 35.6168 30.7508L35.6131 30.777C36.3457 31.8891 37.058 32.0909 38.2991 32.4953C36.0133 33.1758 35.688 33.666 35.0963 35.8793C34.8332 34.8211 34.3239 33.3832 33.1673 32.978L33.1519 32.9506C32.7818 32.7536 32.1323 32.6204 31.7092 32.5252Z" fill="#E8B40C"/>
<path d="M31.7092 32.5252C34.2042 31.6299 34.39 31.5007 35.0824 28.938C35.1892 29.3816 35.3407 30.4542 35.6168 30.7508L35.6131 30.777C34.9305 31.1068 33.7168 32.3755 33.1519 32.9506C32.7818 32.7536 32.1323 32.6204 31.7092 32.5252Z" fill="#FBDD58"/>
<path d="M29.9102 48.911C30.8679 48.7744 31.7566 49.432 31.8966 50.381C32.0367 51.33 31.3755 52.2123 30.4184 52.3535C29.8263 52.4408 29.2301 52.2229 28.8369 51.7754C28.4437 51.3279 28.3077 50.7127 28.4762 50.1432C28.6697 49.4896 29.2301 49.008 29.9102 48.911Z" fill="#FEFDFF"/>
<path d="M38.6754 35.5096C39.1935 35.438 39.7164 35.6025 40.0981 35.957C40.4798 36.3115 40.6794 36.818 40.641 37.3351C40.5817 38.135 39.9713 38.7874 39.1711 38.9063C38.2222 39.0473 37.3386 38.3963 37.2012 37.4549C37.0637 36.5135 37.7251 35.641 38.6754 35.5096Z" fill="#FEFDFF"/>
<path d="M82.7439 29.8455C83.1925 29.6457 83.7866 29.8852 84.234 30.0469C91.767 32.7714 92.0782 42.6678 84.8432 45.9732C83.0498 46.7925 80.5269 46.7719 78.6655 46.1454C76.3685 45.2283 74.7377 43.6957 73.6269 41.4758C73.5688 41.3594 73.4492 40.9932 73.4617 40.869L73.6408 40.8067C73.3216 40.3512 71.9868 39.8797 71.5454 39.2733C73.4293 40.2269 75.3271 41.925 76.9434 43.2735C78.6397 44.6881 80.2533 45.1809 82.469 44.9778C84.2102 44.826 86.1212 43.6976 87.1375 42.3141C89.8679 38.5975 88.5522 34.3655 85.015 31.7629C84.304 31.2396 83.4582 30.4058 82.7439 29.8455Z" fill="#A4D7F9"/>
<path d="M47.7572 36.9136C47.5456 36.6216 47.3441 36.3641 47.2027 36.0305C46.5435 34.475 48.0246 32.8303 49.6601 33.2316C50.23 33.3695 50.7158 33.7372 51 34.246C51.5492 35.23 51.2385 36.2854 50.431 37.0099C49.4153 37.5222 48.7253 37.4242 47.7572 36.9136Z" fill="#FBDD58"/>
<path d="M77.7814 26.7135C78.1593 26.8143 78.053 26.8231 78.4693 26.6318L78.4329 26.9567L78.8644 27.2999C78.84 27.4906 78.8175 27.911 78.614 27.9854C77.5289 28.3814 76.6058 28.8117 75.6153 29.4021C75.3272 29.0765 74.9618 28.7478 74.9221 28.3236C75.2162 27.772 77.1543 27.0997 77.7814 26.7135Z" fill="#5D8DF3"/>
<path d="M81.177 33.901C83.4845 33.6779 85.5436 35.3353 85.7973 37.6194C86.0504 39.9035 84.4037 41.9648 82.1028 42.2439C80.5889 42.4275 79.0929 41.79 78.1856 40.575C77.2784 39.3599 77.0999 37.7551 77.7191 36.3738C78.3389 34.9923 79.6599 34.0478 81.177 33.901Z" fill="#FEFDFF"/>
<path d="M72.812 30.3681C73.4463 30.3123 74.0609 30.6029 74.4164 31.1266C74.7719 31.6504 74.8115 32.3242 74.5201 32.8855C74.2294 33.4468 73.6532 33.8066 73.0162 33.8246C72.4631 33.8402 71.9345 33.5947 71.5922 33.1628C71.2505 32.7309 71.1349 32.1638 71.2822 31.6344C71.4078 31.1799 71.7151 30.796 72.1333 30.5712C72.3428 30.4582 72.5741 30.3891 72.812 30.3681Z" fill="#F8EEFC"/>
<path d="M72.1336 30.5717C72.343 30.4587 72.5743 30.3896 72.8122 30.3687C72.9972 30.5868 73.5232 31.0767 73.6091 31.2208C73.1069 31.8144 72.8803 32.2283 72.4527 32.7736C72.0913 32.5917 71.6089 32.3911 71.3591 32.0918C71.3149 31.8804 71.3003 31.9744 71.3637 31.7969L71.2825 31.6349C71.408 31.1804 71.7153 30.7965 72.1336 30.5717Z" fill="#A4D7F9"/>
<path d="M72.1336 30.5713C71.9862 31.1548 71.6281 31.3876 71.3637 31.7965L71.2825 31.6345C71.408 31.18 71.7153 30.7961 72.1336 30.5713Z" fill="#FEFDFF"/>
<path d="M57.2759 27.0598C58.2293 26.9259 59.1121 27.5824 59.2491 28.5272C59.3861 29.472 58.7255 30.3484 57.7726 30.4861C56.8171 30.6241 55.93 29.9671 55.7926 29.0196C55.6553 28.0722 56.3198 27.1942 57.2759 27.0598Z" fill="#FEFDFF"/>
<path d="M36.1912 78.3915C37.1464 78.2919 38.0028 78.9764 38.1074 79.9229C38.2121 80.8694 37.5255 81.7216 36.5713 81.8297C35.6108 81.9384 34.744 81.2526 34.6387 80.2995C34.5334 79.3471 35.2297 78.491 36.1912 78.3915Z" fill="#F8EEFC"/>
<path d="M30.2487 64.2402C31.194 64.1184 32.0625 64.7721 32.1973 65.7074C32.332 66.6428 31.6828 67.512 30.7409 67.6568C30.1212 67.7524 29.4975 67.5101 29.1083 67.0227C28.7191 66.5354 28.6244 65.8777 28.8605 65.302C29.0966 64.7262 29.6268 64.3208 30.2487 64.2402Z" fill="#F8EEFC"/>
<path d="M31.5305 77.7246C32.1217 78.6986 31.8429 79.0012 33.208 79.2901C32.1385 79.7473 31.9262 79.8908 31.5347 81.0017C31.4904 80.8753 31.4441 80.7488 31.3957 80.6237C31.0515 79.7368 30.6154 79.6143 29.7966 79.2547C31.0044 79.0864 31.0448 78.751 31.5305 77.7246Z" fill="#5D8DF3"/>
<path d="M70.0816 34.8174C70.5402 34.9324 70.9347 35.037 71.3847 35.1796L71.0193 37.105C70.6254 37.1031 70.1259 37.0194 69.7261 36.9643C69.7353 36.1224 69.8212 35.605 70.0816 34.8174Z" fill="#5D8DF3"/>
<path d="M49.2543 81.2095C53.3394 83.1994 57.919 83.9717 62.4381 83.4326C63.5615 83.3016 64.6473 83.1418 65.7278 82.7927C66.3429 83.2564 69.1658 84.7715 69.3713 84.9817C70.4498 85.5097 72.1817 86.5636 73.2139 87.2049C73.2766 87.5291 73.6599 88.0269 73.9467 88.1868C74.026 88.8647 74.0339 89.6389 74.0332 90.3293C74.0319 91.8254 74.1251 93.2992 74.1872 94.7914C69.9145 96.5946 64.6168 97.5948 60.0022 97.5575C59.2642 97.5516 57.887 97.6204 57.2024 97.4776C51.5529 97.4658 44.2515 94.678 39.5032 91.8064C39.6293 91.4979 39.6364 91.6453 39.5445 91.2889L39.6716 91.2215C40.4253 90.8134 40.8133 90.1715 41.4014 89.5453C41.7803 89.1424 43.2139 87.8599 42.7985 87.2475L42.8779 87.1689C42.678 86.4719 42.9417 85.7252 43.5367 85.3047C44.1317 84.8835 44.9295 84.8789 45.5295 85.2929C45.5992 85.2549 45.5552 85.268 45.6692 85.266C46.6778 84.4145 48.0723 82.8634 49.1019 81.8985C49.1657 81.8383 49.2252 81.3569 49.2543 81.2095Z" fill="url(#paint4_linear_4472_11107)"/>
<path d="M69.3713 84.9819C70.4497 85.5099 72.1816 86.5638 73.2138 87.2051C73.2766 87.5293 73.6598 88.0271 73.9466 88.187C74.0259 88.8649 74.0338 89.6391 74.0332 90.3295C74.0319 91.8256 74.125 93.2994 74.1871 94.7915C69.9145 96.5948 64.6168 97.595 60.0021 97.5577C59.2641 97.5518 57.887 97.6206 57.2024 97.4778C57.8779 97.3199 58.8206 97.5963 59.4601 97.4437C59.3251 97.3854 59.3663 97.4083 59.2535 97.3166L59.2879 97.2256C60.1451 96.6767 60.3267 95.8763 60.8212 95.3935C61.6231 94.6114 63.5723 92.5579 64.3758 92.0503C63.9936 91.764 63.234 91.3153 63.3239 90.7848C63.0169 89.947 63.3996 89.0142 64.2097 88.6265C65.0198 88.2394 65.9944 88.5223 66.4651 89.2815C66.6568 89.3719 66.7235 89.5127 66.8867 89.6594C67.64 88.9841 69.8299 86.4911 70.0539 85.5872C69.8041 85.4116 69.5114 85.2518 69.3713 84.9819Z" fill="url(#paint5_linear_4472_11107)"/>
<path d="M63.3238 90.7846C63.0168 89.9469 63.3996 89.0141 64.2096 88.6263C65.0198 88.2392 65.9943 88.5222 66.4651 89.2814C66.8153 89.8466 66.8113 90.56 66.4538 91.12C66.0963 91.6807 65.4482 91.9905 64.7833 91.9191C64.1182 91.8477 63.5521 91.4082 63.3238 90.7846Z" fill="#FEFDFF"/>
<path d="M47.1566 86.2125C48.1191 86.0861 49.0014 86.7601 49.1236 87.7151C49.2459 88.6701 48.5613 89.5413 47.5976 89.6573C46.6405 89.7732 45.7692 89.1005 45.6479 88.152C45.5266 87.2042 46.2008 86.337 47.1566 86.2125Z" fill="#F8EEFC"/>
<path d="M70.9956 39.7109L71.1059 39.7581C71.2658 40.1133 71.4872 41.1505 71.6339 41.6225C71.1568 41.8235 70.8878 41.9104 70.387 42.052L70.3136 42.0238C70.0566 41.6776 69.8312 40.3813 69.7361 39.9091C70.1821 39.8518 70.5561 39.8036 70.9956 39.7109Z" fill="#A4D7F9"/>
<path d="M90.7136 30.3804C90.9964 30.5976 91.8105 31.8831 92.0358 32.2446L90.9482 32.822L90.8543 32.8569C90.5801 32.7726 89.8896 31.6056 89.6729 31.3102C90.0198 30.9798 90.3495 30.6928 90.7136 30.3804Z" fill="#A4D7F9"/>
<path d="M86.8347 47.1768C87.029 47.2909 87.4387 48.1215 87.5735 48.3707C86.9979 48.7116 86.4026 48.9698 85.788 49.2271C85.7186 49.2501 85.6598 49.2371 85.5785 49.234C85.3684 49.0067 85.1801 48.305 85.0757 47.982C85.6645 47.7519 86.2625 47.4508 86.8347 47.1768Z" fill="#A4D7F9"/>
<path d="M80.4792 48.5186C81.1506 48.5339 81.8503 48.5285 82.5244 48.5326C82.5567 48.9971 82.5792 49.4623 82.5924 49.9278C81.7942 49.9496 81.2021 49.9487 80.3999 49.9147C80.4092 49.462 80.4501 48.9733 80.4792 48.5186Z" fill="#A4D7F9"/>
<path d="M90.2538 44.082C90.6483 44.3046 91.0659 44.6343 91.4201 44.9137C90.9456 45.4704 90.6337 45.9005 90.1091 46.4592L90.0152 46.5094C89.7053 46.4338 89.2249 45.8064 89.0208 45.5574C89.4351 45.0944 89.8586 44.5658 90.2538 44.082Z" fill="#A4D7F9"/>
<path d="M72.7249 44.0034C72.9251 44.0545 73.8502 45.1984 74.092 45.4578C73.8039 45.7819 73.389 46.1635 73.0711 46.4725C72.5603 45.9475 72.1275 45.3313 71.6438 44.7662C71.9636 44.5134 72.3826 44.2394 72.7249 44.0034Z" fill="#A4D7F9"/>
<path d="M76.1254 47.1299C76.2794 47.1548 77.7146 47.8441 77.9875 47.9601C77.8606 48.2629 77.5818 49.0627 77.3657 49.2212C76.7076 48.9655 76.0401 48.6118 75.415 48.2836L76.1254 47.1299Z" fill="#A4D7F9"/>
<path d="M86.5335 27.2788C87.1269 27.4769 88.0262 28.051 88.5324 28.4122L87.8088 29.412L87.7573 29.4446C87.5214 29.4517 86.3782 28.7323 85.9797 28.5477C86.2454 28.0686 86.3432 27.7988 86.5335 27.2788Z" fill="#A4D7F9"/>
<path d="M92.0147 39.8477C92.4951 39.9266 92.9107 40.0151 93.3865 40.1225C93.2477 40.8823 93.0925 41.4445 92.8499 42.1672C92.5625 42.1923 91.8561 41.9147 91.5039 41.8167C91.7081 41.1221 91.8574 40.5542 92.0147 39.8477Z" fill="#A4D7F9"/>
<path d="M81.4712 26.1997C82.2899 26.2156 82.9044 26.279 83.7225 26.3631C83.6406 26.7883 83.5725 27.2567 83.5011 27.6872C83.3888 27.7871 81.76 27.5905 81.4824 27.5718L81.4712 26.1997Z" fill="#A4D7F9"/>
<path d="M93.0177 34.9849L93.1512 35.0458C93.3646 35.5107 93.4703 36.5841 93.5364 37.1301C93.1108 37.2023 92.793 37.2055 92.3622 37.2191C92.2445 37.2194 92.2782 37.2157 92.1606 37.1669C92.0146 36.7558 91.9571 35.9497 91.8117 35.4088L91.7866 35.3179L93.0177 34.9849Z" fill="#A4D7F9"/>
<path d="M64.6192 60.2969C64.0681 59.6269 64.0985 58.6569 64.6906 58.0221C65.2826 57.3873 66.256 57.2814 66.9729 57.7737C67.5359 58.16 67.8194 58.8359 67.6998 59.5039C67.5802 60.1719 67.0787 60.7095 66.4159 60.88C65.7538 61.0505 65.052 60.8228 64.6192 60.2969Z" fill="#F8EEFC"/>
<defs>
<linearGradient id="paint0_linear_4472_11107" x1="92.9663" y1="74.4402" x2="73.5608" y2="52.7884" gradientUnits="userSpaceOnUse">
<stop stop-color="#FD8D51"/>
<stop offset="1" stop-color="#CF2EC3"/>
</linearGradient>
<linearGradient id="paint1_linear_4472_11107" x1="64.3714" y1="64.0788" x2="49.9838" y2="49.3644" gradientUnits="userSpaceOnUse">
<stop stop-color="#C843B4"/>
<stop offset="1" stop-color="#873CE4"/>
</linearGradient>
<linearGradient id="paint2_linear_4472_11107" x1="67.5569" y1="70.2415" x2="40.2585" y2="34.465" gradientUnits="userSpaceOnUse">
<stop stop-color="#C740B4"/>
<stop offset="1" stop-color="#565CFF"/>
</linearGradient>
<linearGradient id="paint3_linear_4472_11107" x1="39.3998" y1="39.5472" x2="33.0791" y2="33.1708" gradientUnits="userSpaceOnUse">
<stop stop-color="#5F73F3"/>
<stop offset="1" stop-color="#479FF5"/>
</linearGradient>
<linearGradient id="paint4_linear_4472_11107" x1="61.6058" y1="95.2518" x2="48.2761" y2="82.0155" gradientUnits="userSpaceOnUse">
<stop stop-color="#F76A73"/>
<stop offset="1" stop-color="#D439B7"/>
</linearGradient>
<linearGradient id="paint5_linear_4472_11107" x1="71.349" y1="97.3094" x2="64.7992" y2="90.9206" gradientUnits="userSpaceOnUse">
<stop stop-color="#F59F46"/>
<stop offset="1" stop-color="#F17171"/>
</linearGradient>
</defs>
</svg>
