<svg width="11" height="14" viewBox="0 0 11 14" fill="none" xmlns="http://www.w3.org/2000/svg">
<path d="M0 2.8335C0 2.43567 0.158035 2.05414 0.43934 1.77284C0.720645 1.49153 1.10218 1.3335 1.5 1.3335H9.16667C9.36365 1.3335 9.5587 1.37229 9.74069 1.44768C9.92268 1.52306 10.088 1.63355 10.2273 1.77284C10.3666 1.91212 10.4771 2.07748 10.5525 2.25947C10.6279 2.44146 10.6667 2.63651 10.6667 2.8335V11.8335C10.6667 12.0305 10.6279 12.2255 10.5525 12.4075C10.4771 12.5895 10.3666 12.7549 10.2273 12.8942C10.088 13.0334 9.92268 13.1439 9.74069 13.2193C9.5587 13.2947 9.36365 13.3335 9.16667 13.3335H1.5C1.10218 13.3335 0.720645 13.1755 0.43934 12.8942C0.158035 12.6129 0 12.2313 0 11.8335V2.8335Z" fill="url(#paint0_linear_1452_190)"/>
<path d="M0 2.8335C0 2.43567 0.158035 2.05414 0.43934 1.77284C0.720645 1.49153 1.10218 1.3335 1.5 1.3335H9.16667C9.36365 1.3335 9.5587 1.37229 9.74069 1.44768C9.92268 1.52306 10.088 1.63355 10.2273 1.77284C10.3666 1.91212 10.4771 2.07748 10.5525 2.25947C10.6279 2.44146 10.6667 2.63651 10.6667 2.8335V11.8335C10.6667 12.0305 10.6279 12.2255 10.5525 12.4075C10.4771 12.5895 10.3666 12.7549 10.2273 12.8942C10.088 13.0334 9.92268 13.1439 9.74069 13.2193C9.5587 13.2947 9.36365 13.3335 9.16667 13.3335H1.5C1.10218 13.3335 0.720645 13.1755 0.43934 12.8942C0.158035 12.6129 0 12.2313 0 11.8335V2.8335Z" fill="url(#paint1_radial_1452_190)" fill-opacity="0.7"/>
<path d="M0 2.8335C0 2.43567 0.158035 2.05414 0.43934 1.77284C0.720645 1.49153 1.10218 1.3335 1.5 1.3335H9.16667C9.36365 1.3335 9.5587 1.37229 9.74069 1.44768C9.92268 1.52306 10.088 1.63355 10.2273 1.77284C10.3666 1.91212 10.4771 2.07748 10.5525 2.25947C10.6279 2.44146 10.6667 2.63651 10.6667 2.8335V11.8335C10.6667 12.0305 10.6279 12.2255 10.5525 12.4075C10.4771 12.5895 10.3666 12.7549 10.2273 12.8942C10.088 13.0334 9.92268 13.1439 9.74069 13.2193C9.5587 13.2947 9.36365 13.3335 9.16667 13.3335H1.5C1.10218 13.3335 0.720645 13.1755 0.43934 12.8942C0.158035 12.6129 0 12.2313 0 11.8335V2.8335Z" fill="url(#paint2_radial_1452_190)" fill-opacity="0.4"/>
<path d="M2.66666 1.5C2.66666 1.89782 2.8247 2.27936 3.106 2.56066C3.38731 2.84196 3.76884 3 4.16666 3H6.5C6.89782 3 7.27935 2.84196 7.56066 2.56066C7.84196 2.27936 8 1.89782 8 1.5C8 1.10218 7.84196 0.720644 7.56066 0.43934C7.27935 0.158035 6.89782 0 6.5 0H4.16666C3.76884 0 3.38731 0.158035 3.106 0.43934C2.8247 0.720644 2.66666 1.10218 2.66666 1.5Z" fill="url(#paint3_linear_1452_190)"/>
<path d="M8.68667 6.0201C8.73579 5.97433 8.77519 5.91913 8.80252 5.85779C8.82985 5.79646 8.84454 5.73025 8.84573 5.66312C8.84691 5.59598 8.83456 5.5293 8.80942 5.46704C8.78427 5.40478 8.74684 5.34822 8.69936 5.30074C8.65188 5.25326 8.59532 5.21583 8.53307 5.19069C8.47081 5.16554 8.40412 5.15319 8.33699 5.15437C8.26985 5.15556 8.20364 5.17025 8.14231 5.19758C8.08098 5.22491 8.02578 5.26431 7.98 5.31344L4.66667 8.62677L3.35334 7.31344C3.25855 7.22512 3.13319 7.17703 3.00365 7.17932C2.87412 7.1816 2.75053 7.23408 2.65892 7.32569C2.56731 7.4173 2.51484 7.54089 2.51255 7.67042C2.51027 7.79996 2.55835 7.92532 2.64667 8.0201L4.31334 9.68677C4.40709 9.7804 4.53417 9.833 4.66667 9.833C4.79917 9.833 4.92625 9.7804 5.02 9.68677L8.68667 6.0201Z" fill="url(#paint4_linear_1452_190)" fill-opacity="0.9"/>
<defs>
<linearGradient id="paint0_linear_1452_190" x1="-2.10802e-08" y1="2.5335" x2="9.43067" y2="14.3222" gradientUnits="userSpaceOnUse">
<stop stop-color="#CD84DB" stop-opacity="0.97"/>
<stop offset="1" stop-color="#B185C9" stop-opacity="0.94"/>
</linearGradient>
<radialGradient id="paint1_radial_1452_190" cx="0" cy="0" r="1" gradientUnits="userSpaceOnUse" gradientTransform="translate(5.33333 0.666829) rotate(90) scale(4.11261 4.5)">
<stop stop-color="#0A1852"/>
<stop offset="0.9" stop-color="#0A1852" stop-opacity="0"/>
</radialGradient>
<radialGradient id="paint2_radial_1452_190" cx="0" cy="0" r="1" gradientUnits="userSpaceOnUse" gradientTransform="translate(5.33333 1.7455) rotate(90) scale(1.86217 3.30199)">
<stop stop-color="#0A1852"/>
<stop offset="1" stop-color="#0A1852" stop-opacity="0"/>
</radialGradient>
<linearGradient id="paint3_linear_1452_190" x1="5.33333" y1="0" x2="5.33333" y2="3" gradientUnits="userSpaceOnUse">
<stop stop-color="#FFE06B"/>
<stop offset="1" stop-color="#FAB500"/>
</linearGradient>
<linearGradient id="paint4_linear_1452_190" x1="9.33333" y1="11.0001" x2="4.17667" y2="3.82144" gradientUnits="userSpaceOnUse">
<stop stop-color="#F0E7F5" stop-opacity="0.94"/>
<stop offset="1" stop-color="white"/>
</linearGradient>
</defs>
</svg>
