<svg width="24" height="24" viewBox="0 0 24 24" fill="none" xmlns="http://www.w3.org/2000/svg">
<g clip-path="url(#clip0_1543_3218)">
<path d="M22 20.6665C22 22.1332 20.8 23.3332 19.3333 23.3332H4.66667C3.2 23.3332 2 22.1332 2 20.6665V9.33317C2 7.8665 3.2 6.6665 4.66667 6.6665H19.3333C20.8 6.6665 22 7.8665 22 9.33317V20.6665Z" fill="#FDD888"/>
<path d="M24 7.33317C24 8.79984 22.8 9.99984 21.3333 9.99984H2.66667C1.2 9.99984 0 8.79984 0 7.33317C0 5.8665 1.2 4.6665 2.66667 4.6665H21.3333C22.8 4.6665 24 5.8665 24 7.33317Z" fill="#FDD888"/>
<path d="M2 10H22V11.3333H2V10Z" fill="#FCAB40"/>
<path d="M12.6667 2H11.3333C10.8029 2 10.2942 2.21071 9.91911 2.58579C9.54404 2.96086 9.33333 3.46957 9.33333 4V23.3333H14.6667V4C14.6667 3.46957 14.4559 2.96086 14.0809 2.58579C13.7058 2.21071 13.1971 2 12.6667 2Z" fill="#DA2F47"/>
<path d="M10.6667 4.66643C11.4 4.66643 11.5087 4.32243 10.9073 3.90176L6.426 0.764426C6.2885 0.66431 6.13124 0.594655 5.9647 0.560105C5.79816 0.525555 5.62617 0.526904 5.46019 0.564061C5.29421 0.601218 5.13806 0.673331 5.00215 0.77559C4.86624 0.87785 4.75369 1.00791 4.672 1.15709L3.328 3.50909C2.964 4.14576 3.26666 4.66643 4 4.66643H10.6667ZM13.3333 4.66643C12.6 4.66643 12.4913 4.32243 13.0927 3.90176L17.5747 0.764426C17.7122 0.664417 17.8695 0.594851 18.036 0.560361C18.2025 0.52587 18.3745 0.527245 18.5404 0.564395C18.7063 0.601546 18.8625 0.673618 18.9984 0.775815C19.1343 0.878012 19.2469 1.00799 19.3287 1.15709L20.6727 3.50843C21.036 4.14576 20.7333 4.66643 20 4.66643H13.3333Z" fill="#DA2F47"/>
</g>
<defs>
<clipPath id="clip0_1543_3218">
<rect width="24" height="24" fill="white"/>
</clipPath>
</defs>
</svg>
