<svg width="32" height="32" viewBox="0 0 32 32" fill="none" xmlns="http://www.w3.org/2000/svg">
<path d="M28 26H4V15.3333L16 4L28 15.3333V26Z" fill="#E8EAF6"/>
<path d="M26 14L22.6667 10.6667V6H26V14ZM4 26H28V29.3333H4V26Z" fill="#C5CAE9"/>
<path d="M16 2.8667L2.66666 15.2667L4 16.7334L16 5.60003L28 16.7334L29.3333 15.2667L16 2.8667Z" fill="#B71C1C"/>
<path d="M12 18.6665H20V29.3332H12V18.6665Z" fill="#D84315"/>
<path d="M14 11.3335H18V15.3335H14V11.3335Z" fill="#01579B"/>
<path d="M18.3333 23.6665C18.1333 23.6665 18 23.7998 18 23.9998V25.3332C18 25.5332 18.1333 25.6665 18.3333 25.6665C18.5333 25.6665 18.6667 25.5332 18.6667 25.3332V23.9998C18.6667 23.7998 18.5333 23.6665 18.3333 23.6665Z" fill="#FF8A65"/>
</svg>
