<svg width="16" height="16" viewBox="0 0 16 16" fill="none" xmlns="http://www.w3.org/2000/svg">
<g clip-path="url(#clip0_1452_321)">
<path d="M0.79126 8.29641V15.5114H15.2988V8.26891C15.2988 8.26891 12.3963 6.26641 12.2625 6.24766C12.1288 6.22891 8.23001 2.66016 8.23001 2.66016L3.93251 6.12641L0.79126 8.29641Z" fill="#F8C778"/>
<path d="M0.79126 8.28867H4.21626L4.21251 15.5037H4.78126L4.78501 6.71992L8.14501 3.76242L11.535 6.86242L11.5263 15.5037H12.0588L12.0675 8.24742L15.2988 8.26992V7.83867L12.3513 6.25867L8.40876 2.79492L4.05626 6.18742L0.79376 7.87617L0.79126 8.28867Z" fill="#F5B03F"/>
<path d="M1.6375 5.32138C1.615 5.35763 0.743751 7.76013 0.727501 7.81013C0.711251 7.86013 0.752501 7.91888 0.852501 7.92763C0.952501 7.93638 4.40125 7.92763 4.40125 7.92763L4.39125 6.45513C4.39125 6.45513 8.09375 3.12263 8.135 3.12263C8.17625 3.12263 11.9075 6.54138 11.9163 6.59263C11.925 6.64263 11.9325 7.87013 11.9325 7.87013C11.9325 7.87013 15.2138 7.89513 15.2813 7.90388C15.3488 7.91263 15.365 7.82013 15.3063 7.64513C15.2475 7.47013 14.5625 5.35763 14.5125 5.32388C14.4625 5.29013 11.7575 5.29013 11.7575 5.29013C11.7575 5.29013 8.36875 2.17013 8.31 2.12013C8.25125 2.07013 8.07625 1.99388 7.92125 2.14888C7.785 2.28513 4.405 5.31513 4.405 5.31513C4.405 5.31513 1.6625 5.27888 1.6375 5.32138Z" fill="#A62714"/>
<path d="M5.48874 10.074L5.48749 15.509H10.7825V10.074C10.7825 10.074 5.48874 10.0602 5.48874 10.074Z" fill="#CF6150"/>
<path d="M0.454994 15.5313C0.501244 15.6013 1.04124 15.5688 2.47999 15.5763C3.91874 15.5838 4.33749 15.5813 4.41249 15.5663C4.48624 15.5513 4.54624 15.2275 4.49749 14.9463C4.44374 14.6375 4.25874 14.3463 3.95874 14.2525C3.55749 14.1275 3.30999 14.2425 3.11749 14.175C2.92499 14.1088 2.36124 13.8263 1.78999 13.8638C1.29999 13.895 0.951244 14.0388 0.647494 14.4863C0.321244 14.9675 0.424994 15.4863 0.454994 15.5313ZM15.7612 15.5013C15.835 15.45 15.8287 14.03 14.8412 13.9213C14.1 13.84 13.9062 14.1588 13.7812 14.1588C13.655 14.1588 13.175 13.925 12.5125 14.1813C11.6887 14.5 11.7037 15.4275 11.7337 15.5163C11.7637 15.605 12.6162 15.5825 13.7875 15.59C14.9587 15.5975 15.665 15.5688 15.7612 15.5013Z" fill="#7DB240"/>
<path d="M1.44624 8.70361H3.78249V10.5849H1.41499C1.41499 10.5849 1.42999 8.71861 1.44624 8.70361ZM1.41499 11.4636H3.74124V13.2836H1.39499C1.39499 13.2849 1.40499 11.4536 1.41499 11.4636Z" fill="#3E737C"/>
<path d="M1.80001 9.04736H3.38751V10.2911H1.78001C1.78001 10.2911 1.76876 9.05736 1.80001 9.04736ZM1.72876 11.7674H3.40751V12.9711H1.72876V11.7674Z" fill="#A7D0D7"/>
<path d="M12.4588 8.8148H14.785V10.6861H12.4488C12.4488 10.6861 12.4588 8.7848 12.4588 8.8148Z" fill="#3E737C"/>
<path d="M12.7825 9.13867H14.4513V10.3524H12.7825V9.13867Z" fill="#A7D0D7"/>
<path d="M12.4288 11.5752H14.745V13.3452H12.4288C12.4288 13.3452 12.4138 11.5914 12.4288 11.5752Z" fill="#3E737C"/>
<path d="M12.7925 11.899V12.9915H14.38V11.889C14.38 11.889 12.7775 11.884 12.7925 11.899Z" fill="#A7D0D7"/>
<path d="M6.25751 15.511L6.25626 10.666H10.0688V15.511H6.25751Z" fill="#3E737C"/>
<path d="M9.61751 11.6551V11.0176H6.72751V11.6551H9.61751ZM6.72751 11.9738H9.61751V13.6326H6.72751V11.9738ZM6.72751 13.9738H9.61751V14.8413H6.72751V13.9738Z" fill="#A7D0D7"/>
<path d="M8.03499 11.8312V15.0949H8.36499V11.7974C8.36499 11.7974 8.05749 11.8312 8.03499 11.8312ZM8.05749 5.0074C6.76124 5.01865 5.89249 5.9849 5.95874 7.2274C6.02249 8.4349 6.98124 9.1924 8.08999 9.16115C9.25499 9.12865 10.09 8.19365 10.1225 7.0849C10.155 5.97615 9.25499 4.9974 8.05749 5.0074Z" fill="#3E737C"/>
<path d="M8.02499 5.38135C6.96999 5.38135 6.26624 6.18385 6.31124 7.1501C6.35374 8.0826 6.98124 8.7876 8.05874 8.7876C9.04749 8.7876 9.69749 7.9751 9.71749 7.13885C9.73874 6.22635 9.05749 5.38135 8.02499 5.38135Z" fill="white"/>
<path d="M7.71752 7.18239C7.71752 7.18239 7.10501 7.69739 7.07126 7.75739C7.03751 7.81739 7.03876 7.91614 7.12001 7.98239C7.20251 8.04864 7.28376 8.00989 7.33376 7.97114C7.38251 7.93239 8.02877 7.40239 8.02877 7.40239C8.02877 7.40239 8.23752 7.39864 8.28627 7.15114C8.32502 6.95364 8.18251 6.86114 8.18251 6.86114C8.18251 6.86114 8.16001 5.67864 8.15001 5.59114C8.14126 5.52614 8.07377 5.46489 8.01377 5.47114C7.95377 5.47614 7.89376 5.50989 7.88751 5.60739C7.88126 5.70489 7.87501 6.83739 7.87501 6.83739C7.87501 6.83739 7.78751 6.86989 7.73876 6.96364C7.69001 7.05614 7.71752 7.18239 7.71752 7.18239Z" fill="#2F2F2F"/>
</g>
<defs>
<clipPath id="clip0_1452_321">
<rect width="16" height="16" fill="white"/>
</clipPath>
</defs>
</svg>
