<svg width="23" height="23" viewBox="0 0 23 23" fill="none" xmlns="http://www.w3.org/2000/svg">
<path d="M11.5114 21.0413C14.3414 21.0413 16.6356 18.7471 16.6356 15.9171C16.6356 13.0871 14.3414 10.793 11.5114 10.793C8.68137 10.793 6.38718 13.0871 6.38718 15.9171C6.38718 18.7471 8.68137 21.0413 11.5114 21.0413Z" fill="#FFC54D"/>
<path d="M15.1782 10.998H7.84482C7.27546 10.998 6.81998 10.5425 6.81998 9.97314V8.76611H16.1802V9.97314C16.1802 10.5425 15.7247 10.998 15.1782 10.998Z" fill="#F46262"/>
<path d="M15.1782 1H7.84482C7.27546 1 6.81998 1.45548 6.81998 2.02483V8.46989H16.1802V2.02483C16.1802 1.45548 15.7247 1 15.1782 1Z" fill="#F46262"/>
<path d="M11.7395 13.0704L12.5138 14.6191C12.5594 14.6874 12.6277 14.7557 12.696 14.7557L14.4041 15.0062C14.6091 15.0518 14.7002 15.2795 14.5407 15.4389L13.3109 16.6687C13.2654 16.7143 13.2198 16.8054 13.2426 16.8965L13.5387 18.6045C13.5842 18.8095 13.3565 18.9689 13.1743 18.8551L11.6484 18.058C11.5801 18.0124 11.489 18.0124 11.4207 18.058L9.872 18.8551C9.6898 18.9462 9.46206 18.8095 9.50761 18.6045L9.80368 16.8965C9.82645 16.8282 9.7809 16.7371 9.73535 16.6687L8.50554 15.4617C8.36889 15.3251 8.43722 15.0518 8.64219 15.029L10.3503 14.7785C10.4186 14.7557 10.4869 14.733 10.5325 14.6419L11.3068 13.0932C11.3751 12.8883 11.6484 12.8883 11.7395 13.0704Z" fill="white"/>
<path d="M13.4702 1H9.55298V9.08479H13.4702V1Z" fill="#FFC54D"/>
<path d="M16.7039 9.08463H6.27329C6.11387 9.08463 6 8.97076 6 8.81134V8.74302C6 8.5836 6.11387 8.46973 6.27329 8.46973H16.7267C16.8861 8.46973 17 8.5836 17 8.74302V8.81134C16.9772 8.94798 16.8634 9.08463 16.7039 9.08463Z" fill="#285FFF"/>
</svg>
