<svg width="16" height="16" viewBox="0 0 16 16" fill="none" xmlns="http://www.w3.org/2000/svg">
<path d="M10.7415 11.2805V15.7415H3.2415C2.97628 15.7415 2.72193 15.6361 2.53439 15.4486C2.34686 15.2611 2.2415 15.0067 2.2415 14.7415V11.2823C2.24152 10.8407 2.38766 10.4115 2.65714 10.0617C2.92663 9.71194 3.3043 9.46115 3.73125 9.3485L6 8.75H7L9.25375 9.34725C9.68025 9.46026 10.0574 9.71113 10.3265 10.0608C10.5956 10.4105 10.7415 10.8393 10.7415 11.2805Z" fill="#F2A7B1"/>
<path d="M10.7415 13.7501V11.2806C10.7415 10.8394 10.5956 10.4105 10.3265 10.0609C10.0574 9.71122 9.68025 9.46035 9.25375 9.34735L7.852 8.9751C7.62154 9.36045 7.49989 9.80109 7.5 10.2501C7.5 10.3827 7.55268 10.5099 7.64645 10.6037C7.74021 10.6974 7.86739 10.7501 8 10.7501H7.75C7.64444 10.7505 7.54172 10.7843 7.45656 10.8467C7.3714 10.9091 7.30817 10.9968 7.27592 11.0974C7.24367 11.1979 7.24406 11.306 7.27704 11.4063C7.31002 11.5066 7.37389 11.5938 7.4595 11.6556L7.25 13.7501H10.7415Z" fill="#E8859B"/>
<path d="M2.9915 14.7415V11.2823C2.99152 10.8407 3.13766 10.4115 3.40714 10.0617C3.67663 9.71194 4.0543 9.46115 4.48125 9.3485L6.75 8.75H6L3.73125 9.3485C3.3043 9.46115 2.92663 9.71194 2.65714 10.0617C2.38766 10.4115 2.24152 10.8407 2.2415 11.2823V14.7415C2.2415 15.0067 2.34686 15.2611 2.53439 15.4486C2.72193 15.6361 2.97628 15.7415 3.2415 15.7415H3.9915C3.72628 15.7415 3.47193 15.6361 3.28439 15.4486C3.09686 15.2611 2.9915 15.0067 2.9915 14.7415Z" fill="#E8859B"/>
<path d="M10.3728 5.75675C10.2507 5.62499 10.1666 5.46265 10.1293 5.28695C10.092 5.11124 10.103 4.92873 10.161 4.75875C10.2698 4.45736 10.2791 4.12901 10.1874 3.82197C10.0957 3.51493 9.90799 3.2454 9.65176 3.053C9.53048 2.96681 9.431 2.85349 9.36125 2.72207C9.2915 2.59064 9.25341 2.44475 9.25001 2.296C9.25001 1.75337 9.03445 1.23296 8.65075 0.84926C8.26705 0.46556 7.74664 0.25 7.20401 0.25H5.79601C5.25337 0.25 4.73297 0.46556 4.34927 0.84926C3.96557 1.23296 3.75001 1.75337 3.75001 2.296C3.7466 2.44475 3.70851 2.59064 3.63876 2.72207C3.56901 2.85349 3.46954 2.96681 3.34826 3.053C3.09202 3.2454 2.90427 3.51493 2.8126 3.82197C2.72094 4.12901 2.73019 4.45736 2.83901 4.75875C2.89708 4.92872 2.90806 5.11125 2.87078 5.28695C2.83349 5.46266 2.74935 5.625 2.62726 5.75675C2.48545 5.91619 2.37943 6.10416 2.31635 6.308C2.25326 6.51184 2.23456 6.72683 2.26151 6.9385C2.31506 7.30661 2.50069 7.64266 2.78378 7.88398C3.06686 8.1253 3.42806 8.25539 3.80001 8.25H9.20001C9.57178 8.25522 9.93277 8.12507 10.2157 7.88382C10.4986 7.64257 10.6842 7.30668 10.7378 6.93875C10.7648 6.72709 10.7462 6.5121 10.6833 6.30822C10.6203 6.10434 10.5144 5.9163 10.3728 5.75675Z" fill="#C67A60"/>
<path d="M7 8.75L6.8535 8.8965C6.75974 8.99024 6.63258 9.04289 6.5 9.04289C6.36742 9.04289 6.24026 8.99024 6.1465 8.8965L6 8.75V7.25H7V8.75Z" fill="#F7D1C6"/>
<path d="M6.5 7.75C5.90326 7.75 5.33097 7.51295 4.90901 7.09099C4.48705 6.66903 4.25 6.09674 4.25 5.5V2.75H8.75V5.5C8.75 6.09674 8.51295 6.66903 8.09099 7.09099C7.66903 7.51295 7.09674 7.75 6.5 7.75Z" fill="#F7D1C6"/>
<path d="M8.75 5.75V4.25H9C9.13261 4.25 9.25979 4.30268 9.35355 4.39645C9.44732 4.49021 9.5 4.61739 9.5 4.75V5C9.5 5.19891 9.42098 5.38968 9.28033 5.53033C9.13968 5.67098 8.94891 5.75 8.75 5.75Z" fill="#F7D1C6"/>
<path d="M4 4.25H4.25V5.75C4.05109 5.75 3.86032 5.67098 3.71967 5.53033C3.57902 5.38968 3.5 5.19891 3.5 5V4.75C3.5 4.61739 3.55268 4.49021 3.64645 4.39645C3.74021 4.30268 3.86739 4.25 4 4.25Z" fill="#F7D1C6"/>
<path d="M13 10.75H8L7.75 13.25H13.25L13 10.75Z" fill="#C67A60"/>
<path d="M8.5 9.25H12.5V11.25C12.5 11.7804 12.2893 12.2891 11.9142 12.6642C11.5391 13.0393 11.0304 13.25 10.5 13.25C9.96957 13.25 9.46086 13.0393 9.08579 12.6642C8.71071 12.2891 8.5 11.7804 8.5 11.25V9.25Z" fill="#F7D1C6"/>
<path d="M8.25 10.25H8.5V11.25H8.25C8.11739 11.25 7.99021 11.1973 7.89645 11.1036C7.80268 11.0098 7.75 10.8826 7.75 10.75C7.75 10.6174 7.80268 10.4902 7.89645 10.3964C7.99021 10.3027 8.11739 10.25 8.25 10.25Z" fill="#F7D1C6"/>
<path d="M12.75 11.2588H12.5V10.2588H12.75C12.8826 10.2588 13.0098 10.3115 13.1036 10.4052C13.1973 10.499 13.25 10.6262 13.25 10.7588C13.25 10.8914 13.1973 11.0186 13.1036 11.1123C13.0098 11.2061 12.8826 11.2588 12.75 11.2588Z" fill="#F7D1C6"/>
<path d="M12.5 10.25H11.5L11 9.75L10.5 10.25H8.5C8.36739 10.25 8.24021 10.1973 8.14645 10.1036C8.05268 10.0098 8 9.88261 8 9.75C8 9.08696 8.26339 8.45107 8.73223 7.98223C9.20107 7.51339 9.83696 7.25 10.5 7.25C11.163 7.25 11.7989 7.51339 12.2678 7.98223C12.7366 8.45107 13 9.08696 13 9.75C13 9.88261 12.9473 10.0098 12.8536 10.1036C12.7598 10.1973 12.6326 10.25 12.5 10.25Z" fill="#C67A60"/>
<path d="M11.7422 13.2578H9.24225C8.71182 13.2578 8.20311 13.4685 7.82803 13.8436C7.45296 14.2187 7.24225 14.7274 7.24225 15.2578V15.7501H13.7422V15.2578C13.7422 14.7274 13.5315 14.2187 13.1565 13.8436C12.7814 13.4685 12.2727 13.2578 11.7422 13.2578Z" fill="#D9AAE2" fill-opacity="0.94"/>
<path d="M8.25775 15.7502C8.45531 15.7481 8.6441 15.6682 8.78308 15.5278C8.92206 15.3873 9.00001 15.1977 9 15.0002V14.5002C9.00033 14.3235 8.93812 14.1523 8.82437 14.0171C8.71063 13.8819 8.55269 13.7913 8.37854 13.7613C8.20439 13.7314 8.02526 13.764 7.87288 13.8535C7.7205 13.943 7.6047 14.0835 7.546 14.2502H7.514C7.33423 14.5555 7.23929 14.9033 7.239 15.2577V15.7502H8.25725H8.25775Z" fill="#BC9DCE" fill-opacity="0.94"/>
<path d="M10 13.25H11V13.5C11 13.6326 10.9473 13.7598 10.8536 13.8536C10.7598 13.9473 10.6326 14 10.5 14C10.3674 14 10.2402 13.9473 10.1464 13.8536C10.0527 13.7598 10 13.6326 10 13.5V13.25Z" fill="#F7D1C6"/>
<path d="M7.75 13.75C7.59537 13.7503 7.44464 13.7986 7.31857 13.8882C7.19249 13.9777 7.09727 14.1041 7.046 14.25H4.25C4.11739 14.25 3.99021 14.1973 3.89645 14.1036C3.80268 14.0098 3.75 13.8826 3.75 13.75V13.25H2.25V14.75C2.25 15.0152 2.35536 15.2696 2.54289 15.4571C2.73043 15.6446 2.98478 15.75 3.25 15.75H7.75775C7.95532 15.748 8.1441 15.668 8.28308 15.5276C8.42206 15.3872 8.50001 15.1976 8.5 15V14.5C8.5 14.3011 8.42098 14.1103 8.28033 13.9697C8.13968 13.829 7.94891 13.75 7.75 13.75Z" fill="#F7D1C6"/>
<path d="M4 15.75C3.73478 15.75 3.48043 15.6446 3.29289 15.4571C3.10536 15.2696 3 15.0152 3 14.75V13.25H2.25V14.75C2.25 15.0152 2.35536 15.2696 2.54289 15.4571C2.73043 15.6446 2.98478 15.75 3.25 15.75H4Z" fill="#F4B19F"/>
<path d="M5 5.5V2.75H4.25V5.5C4.24821 5.82768 4.3184 6.15176 4.45562 6.44934C4.59284 6.74691 4.79374 7.01072 5.04412 7.22211C5.29451 7.4335 5.58826 7.58733 5.90463 7.67272C6.221 7.7581 6.55226 7.77296 6.875 7.71625C6.351 7.62793 5.8752 7.3569 5.53198 6.95121C5.18876 6.54552 5.00029 6.0314 5 5.5Z" fill="#F4B19F"/>
<path d="M9 2.5L8.75 4.25L7.5 3.25L7.05225 3.50575C6.19886 3.9935 5.23294 4.25004 4.25 4.25L4 2.5H9Z" fill="#C67A60"/>
<path d="M9.5 11.4522C9.5663 11.4522 9.62989 11.4259 9.67678 11.379C9.72366 11.3321 9.75 11.2686 9.75 11.2022V11C9.75 10.9337 9.72366 10.8701 9.67678 10.8232C9.62989 10.7763 9.5663 10.75 9.5 10.75C9.4337 10.75 9.37011 10.7763 9.32322 10.8232C9.27634 10.8701 9.25 10.9337 9.25 11V11.2022C9.25 11.2686 9.27634 11.3321 9.32322 11.379C9.37011 11.4259 9.4337 11.4522 9.5 11.4522Z" fill="#C67A60"/>
<path d="M3.01151 6.9385C2.98456 6.72683 3.00326 6.51184 3.06635 6.308C3.12943 6.10416 3.23545 5.91619 3.37726 5.75675C3.49932 5.62499 3.58346 5.46265 3.62074 5.28695C3.65801 5.11124 3.64705 4.92873 3.58901 4.75875C3.48019 4.45736 3.47094 4.12901 3.5626 3.82197C3.65427 3.51493 3.84202 3.2454 4.09826 3.053C4.21954 2.96681 4.31901 2.85349 4.38876 2.72207C4.45851 2.59064 4.4966 2.44475 4.50001 2.296C4.50001 1.75337 4.71557 1.23296 5.09927 0.84926C5.48297 0.46556 6.00337 0.25 6.54601 0.25H5.79601C5.25337 0.25 4.73297 0.46556 4.34927 0.84926C3.96557 1.23296 3.75001 1.75337 3.75001 2.296C3.7466 2.44475 3.70851 2.59064 3.63876 2.72207C3.56901 2.85349 3.46954 2.96681 3.34826 3.053C3.09202 3.2454 2.90427 3.51493 2.8126 3.82197C2.72094 4.12901 2.73019 4.45736 2.83901 4.75875C2.89705 4.92873 2.90801 5.11124 2.87074 5.28695C2.83346 5.46265 2.74932 5.62499 2.62726 5.75675C2.48545 5.91619 2.37943 6.10416 2.31635 6.308C2.25326 6.51184 2.23456 6.72683 2.26151 6.9385C2.31506 7.30661 2.50069 7.64266 2.78378 7.88398C3.06686 8.1253 3.42806 8.25539 3.80001 8.25H4.55001C4.17806 8.25539 3.81686 8.1253 3.53378 7.88398C3.25069 7.64266 3.06506 7.30661 3.01151 6.9385Z" fill="#B26049"/>
<path d="M11.5 11.4522C11.5663 11.4522 11.6299 11.4259 11.6768 11.379C11.7237 11.3321 11.75 11.2686 11.75 11.2022V11C11.75 10.9337 11.7237 10.8701 11.6768 10.8232C11.6299 10.7763 11.5663 10.75 11.5 10.75C11.4337 10.75 11.3701 10.7763 11.3232 10.8232C11.2763 10.8701 11.25 10.9337 11.25 11V11.2022C11.25 11.2686 11.2763 11.3321 11.3232 11.379C11.3701 11.4259 11.4337 11.4522 11.5 11.4522Z" fill="#C67A60"/>
<path d="M9.82324 12.4266C9.9048 12.5276 10.0079 12.609 10.125 12.6649C10.2421 12.7209 10.3702 12.7499 10.5 12.7499C10.6298 12.7499 10.7579 12.7209 10.875 12.6649C10.9921 12.609 11.0952 12.5276 11.1767 12.4266C11.2223 12.3795 11.2475 12.3163 11.2469 12.2508C11.2463 12.1852 11.2201 12.1225 11.1737 12.0762C11.1273 12.0298 11.0646 12.0035 10.9991 12.0029C10.9335 12.0024 10.8704 12.0276 10.8232 12.0731C10.7883 12.1271 10.7405 12.1714 10.684 12.2022C10.6275 12.2329 10.5643 12.249 10.5 12.249C10.4357 12.249 10.3725 12.2329 10.316 12.2022C10.2595 12.1714 10.2117 12.1271 10.1767 12.0731C10.1296 12.0276 10.0664 12.0024 10.0009 12.0029C9.93535 12.0035 9.87264 12.0298 9.82629 12.0762C9.77994 12.1225 9.75365 12.1852 9.75308 12.2508C9.75251 12.3163 9.77771 12.3795 9.82324 12.4266Z" fill="#F97878"/>
<path d="M5.5 5V4.75C5.5 4.6837 5.47366 4.62011 5.42678 4.57322C5.37989 4.52634 5.3163 4.5 5.25 4.5C5.1837 4.5 5.12011 4.52634 5.07322 4.57322C5.02634 4.62011 5 4.6837 5 4.75V5C5 5.0663 5.02634 5.12989 5.07322 5.17678C5.12011 5.22366 5.1837 5.25 5.25 5.25C5.3163 5.25 5.37989 5.22366 5.42678 5.17678C5.47366 5.12989 5.5 5.0663 5.5 5Z" fill="#C67A60"/>
<path d="M7.75 5.25C7.8163 5.25 7.87989 5.22366 7.92678 5.17678C7.97366 5.12989 8 5.0663 8 5V4.75C8 4.6837 7.97366 4.62011 7.92678 4.57322C7.87989 4.52634 7.8163 4.5 7.75 4.5C7.6837 4.5 7.62011 4.52634 7.57322 4.57322C7.52634 4.62011 7.5 4.6837 7.5 4.75V5C7.5 5.0663 7.52634 5.12989 7.57322 5.17678C7.62011 5.22366 7.6837 5.25 7.75 5.25Z" fill="#C67A60"/>
<path d="M6.5 7.20661C6.62569 7.20687 6.7502 7.18227 6.86634 7.13421C6.98249 7.08616 7.08798 7.0156 7.17675 6.92661C7.22228 6.87946 7.24748 6.81631 7.24691 6.75076C7.24634 6.68521 7.22005 6.62251 7.1737 6.57615C7.12735 6.5298 7.06464 6.50351 6.9991 6.50294C6.93355 6.50237 6.8704 6.52757 6.82324 6.57311C6.73744 6.65869 6.62119 6.70675 6.5 6.70675C6.3788 6.70675 6.26256 6.65869 6.17675 6.57311C6.12959 6.52757 6.06644 6.50237 6.00089 6.50294C5.93535 6.50351 5.87264 6.5298 5.82629 6.57615C5.77994 6.62251 5.75365 6.68521 5.75308 6.75076C5.75251 6.81631 5.77771 6.87946 5.82324 6.92661C5.91203 7.01558 6.01752 7.08612 6.13366 7.13418C6.24981 7.18223 6.3743 7.20684 6.5 7.20661Z" fill="#F97878"/>
</svg>
