<svg width="48" height="48" viewBox="0 0 48 48" fill="none" xmlns="http://www.w3.org/2000/svg">
<rect width="48" height="48" rx="24" fill="#F8F4FA"/>
<path d="M35.68 25.4117V19.0588C35.68 17.1867 35.0057 15.3913 33.8055 14.0675C32.6053 12.7437 30.9774 12 29.28 12H18.4C16.7026 12 15.0747 12.7437 13.8745 14.0675C12.6743 15.3913 12 17.1867 12 19.0588V28.9411C12 29.8681 12.1655 30.786 12.4872 31.6424C12.8088 32.4988 13.2802 33.2769 13.8745 33.9324C15.0747 35.2562 16.7026 35.9999 18.4 35.9999H26.4128" stroke="#9CA3AF" stroke-width="1.5" stroke-linecap="round" stroke-linejoin="round"/>
<path d="M12.3325 31.0586L15.8397 26.541C16.3003 26.0365 16.9048 25.7229 17.5509 25.6535C18.197 25.584 18.8451 25.7629 19.3853 26.1598C19.9256 26.5568 20.5736 26.7357 21.2197 26.6662C21.8658 26.5967 22.4703 26.2832 22.9309 25.7787L25.9133 22.4893C26.7703 21.5409 27.9049 20.9592 29.1146 20.848C30.3244 20.7368 31.5307 21.1034 32.5181 21.8822L35.6797 24.5787M18.7325 21.4163C19.0116 21.4145 19.2875 21.352 19.5447 21.2325C19.8018 21.113 20.0351 20.9389 20.2312 20.7199C20.4273 20.501 20.5824 20.2416 20.6877 19.9566C20.7929 19.6716 20.8462 19.3664 20.8445 19.0587C20.8428 18.7509 20.7862 18.4466 20.6779 18.1629C20.5695 17.8793 20.4116 17.622 20.2131 17.4057C20.0146 17.1894 19.7795 17.0183 19.521 16.9023C19.2626 16.7862 18.986 16.7274 18.7069 16.7293C18.1434 16.733 17.6043 16.9835 17.2082 17.4257C16.8121 17.8678 16.5915 18.4654 16.5949 19.0869C16.5983 19.7085 16.8254 20.3031 17.2263 20.7399C17.6272 21.1768 18.169 21.4201 18.7325 21.4163Z" stroke="#9CA3AF" stroke-width="1.5" stroke-linecap="round" stroke-linejoin="round"/>
<path d="M32.7924 28.9412V36M29.6001 32.4776H36.0001" stroke="#9CA3AF" stroke-width="1.5" stroke-miterlimit="10" stroke-linecap="round"/>
</svg>
