<svg width="22" height="22" viewBox="0 0 22 22" fill="none" xmlns="http://www.w3.org/2000/svg">
<path d="M10.6667 21.3333C16.5577 21.3333 21.3333 16.5577 21.3333 10.6667C21.3333 4.77563 16.5577 0 10.6667 0C4.77563 0 0 4.77563 0 10.6667C0 16.5577 4.77563 21.3333 10.6667 21.3333Z" fill="#00FF00" fill-opacity="0.24"/>
<path d="M6 9.33317L9.85853 13.1917C9.93667 13.2698 10.0633 13.2698 10.1415 13.1917L20.6667 2.6665" stroke="#00D200" stroke-width="1.2"/>
<path d="M20.477 8.72852C20.9198 10.9701 20.5817 13.2957 19.5188 15.3184C18.4558 17.3411 16.7324 18.9387 14.635 19.8455C12.5377 20.7521 10.1932 20.9133 7.99155 20.3021C5.78992 19.6908 3.86401 18.3441 2.53433 16.486C1.20465 14.6277 0.551405 12.3703 0.683311 10.0892C0.815218 7.8081 1.72433 5.64098 3.25934 3.94848C4.79434 2.25598 6.86267 1.14021 9.1201 0.786837C11.3774 0.433464 13.6878 0.863811 15.6666 2.00626" stroke="#00D200" stroke-linecap="round"/>
</svg>
