<svg width="48" height="48" viewBox="0 0 48 48" fill="none" xmlns="http://www.w3.org/2000/svg">
<g clip-path="url(#clip0_208_2672)">
<path d="M46.1265 8.57806H1.93555V39.4219H46.1265V8.57806Z" fill="#F4F4F4"/>
<path d="M46.1265 41.2955H1.93556C0.898141 41.2955 0.0620117 40.4594 0.0620117 39.4219V8.57808C0.0620117 7.54066 0.898141 6.70453 1.93556 6.70453H46.1265C47.1639 6.70453 48.0001 7.54066 48.0001 8.57808V39.4219C48.0001 40.4594 47.1639 41.2955 46.1265 41.2955ZM3.80911 37.5484H44.253V10.4516H3.80911V37.5484Z" fill="#0C82EB"/>
<path d="M1.93535 41.2955C1.45535 41.2955 0.975351 41.1097 0.61148 40.7458C-0.116262 40.0181 -0.116262 38.8258 0.61148 38.0981L15.716 23.0013C16.4515 22.2736 17.636 22.2736 18.3637 23.0013C19.0915 23.7291 19.0915 24.9213 18.3637 25.6491L3.25922 40.7458C2.89535 41.1097 2.41535 41.2955 1.93535 41.2955Z" fill="#0C82EB"/>
<path d="M1.93545 41.3574C1.43996 41.3574 0.944481 41.1716 0.565126 40.7923C-0.193584 40.0335 -0.193584 38.8103 0.565126 38.0516L15.6696 22.9548C16.4284 22.1961 17.6516 22.1961 18.4103 22.9548C19.169 23.7135 19.169 24.9368 18.4103 25.6955L3.30577 40.7923C2.92642 41.1716 2.43093 41.3574 1.93545 41.3574Z" fill="#00B2E3"/>
<path d="M46.1265 41.2955C45.6465 41.2955 45.1665 41.1097 44.8026 40.7458L29.6981 25.6491C28.9704 24.9213 28.9626 23.7291 29.6981 23.0013C30.4259 22.2736 31.6181 22.2736 32.3459 23.0013L47.4504 38.0981C48.1781 38.8258 48.1859 40.0181 47.4504 40.7458C47.0865 41.1097 46.6065 41.2955 46.1265 41.2955Z" fill="#0C82EB"/>
<path d="M24.0309 32.4774C22.916 32.4774 21.8322 32.0129 21.058 31.2078L0.588292 9.87098C0.0695827 9.32905 -0.077514 8.53163 0.21668 7.84259C0.510873 7.15356 1.18442 6.70453 1.93539 6.70453H46.1264C46.8773 6.70453 47.5509 7.15356 47.8451 7.84259C48.1393 8.53163 47.9922 9.32905 47.4735 9.87098L27.0038 31.2078C26.2296 32.0129 25.1457 32.4774 24.0309 32.4774ZM6.33281 10.4516L23.7676 28.6219C23.9535 28.8155 24.1238 28.8155 24.3096 28.6219L41.7367 10.4516H6.33281Z" fill="#68A2B9"/>
<path d="M1.93524 31.8503C0.866853 31.8503 -0.000244141 30.9832 -0.000244141 29.9148V8.57806C-0.000244141 7.50967 0.866853 6.64258 1.93524 6.64258H22.9159C23.9843 6.64258 24.8514 7.50967 24.8514 8.57806C24.8514 9.64645 23.9843 10.5135 22.9159 10.5135H3.87847V29.9148C3.87847 30.9832 3.01137 31.8503 1.93524 31.8503Z" fill="#00B2E3"/>
<path d="M1.93548 41.3652C0.867097 41.3652 0 40.4981 0 39.4297V29.9149C0 28.8465 0.867097 27.9794 1.93548 27.9794C3.00387 27.9794 3.87097 28.8465 3.87097 29.9149V39.4297C3.87871 40.4903 3.01161 41.3652 1.93548 41.3652Z" fill="#00B2E3"/>
<path d="M22.4128 31.7884C21.9173 31.7884 21.4296 31.5949 21.058 31.2155L0.588292 9.87098C0.0695827 9.32905 -0.077514 8.53163 0.21668 7.84259C0.510873 7.15356 1.18442 6.70453 1.93539 6.70453H24.0309C25.0683 6.70453 25.9044 7.54066 25.9044 8.57808C25.9044 9.6155 25.0683 10.4516 24.0309 10.4516H6.33281L23.7676 28.622C24.4876 29.3652 24.4567 30.5574 23.7135 31.2697C23.3418 31.6103 22.8773 31.7884 22.4128 31.7884Z" fill="#A2C5D3"/>
</g>
<defs>
<clipPath id="clip0_208_2672">
<rect width="48" height="48" fill="white"/>
</clipPath>
</defs>
</svg>
