<svg width="64" height="64" viewBox="0 0 64 64" fill="none" xmlns="http://www.w3.org/2000/svg">
<g clip-path="url(#clip0_740_1814)">
<path d="M32.0108 0.00732422C14.3336 0.00732422 0.0148315 14.3336 0.0148315 32.0033C0.0148315 42.8863 5.448 52.4991 13.7506 58.2794V58.2791L13.7503 58.2789L13.7561 58.2601C13.9471 57.5963 14.1755 56.9439 14.4404 56.306L14.4523 56.2765C14.525 56.1029 14.6015 55.9315 14.6794 55.7612C14.7801 55.5393 14.8855 55.3196 14.9955 55.1022C15.0351 55.0241 15.0762 54.9468 15.1168 54.8694C15.192 54.7246 15.2692 54.581 15.3486 54.4385C15.3934 54.3585 15.441 54.2809 15.4871 54.2018C15.6194 53.9751 15.7569 53.7513 15.8993 53.5308C15.9701 53.4209 16.0404 53.3105 16.1138 53.2027C16.1831 53.1004 16.255 53.0006 16.3261 52.9001C16.4734 52.6926 16.6251 52.4882 16.7812 52.2872C16.833 52.2211 16.8843 52.1547 16.9369 52.089L16.9536 30.7485H16.9577C16.9531 30.5962 16.9463 30.4446 16.9463 30.291C16.9463 30.2637 16.9481 30.2368 16.9484 30.2095C16.7729 20.6 25.7543 14.8013 32.0142 15.2265C38.3985 14.7935 47.6284 20.8159 47.0969 30.7485L47.0823 30.7566L47.0987 52.1021C47.1391 52.1526 47.1792 52.2039 47.219 52.2549C47.3055 52.365 47.3904 52.4765 47.4739 52.5887C47.5429 52.6809 47.6101 52.7749 47.6773 52.8686C47.7583 52.9816 47.839 53.0944 47.9171 53.2097C47.9869 53.3126 48.0536 53.4178 48.1215 53.5224C48.242 53.7087 48.359 53.8973 48.4723 54.088C48.5449 54.2104 48.6181 54.332 48.6876 54.4562C48.7493 54.5663 48.8082 54.6786 48.8675 54.79C48.9316 54.9103 48.9951 55.0309 49.0568 55.1532C49.179 55.3972 49.2957 55.6438 49.4068 55.893C49.4518 55.9935 49.4974 56.0935 49.5404 56.195C49.626 56.3968 49.708 56.6015 49.7867 56.8077C49.8015 56.8465 49.8177 56.8845 49.8325 56.9233C49.9262 57.1746 50.0137 57.4295 50.0973 57.687C50.1181 57.7513 50.1372 57.8164 50.1572 57.881C50.1978 58.0112 50.24 58.1401 50.278 58.2719C50.2764 58.2731 50.2746 58.2743 50.2728 58.2752V58.2755C58.5728 52.495 64.0062 42.8839 64.0062 32.0035C64.0065 14.3336 49.6804 0.00732422 32.0108 0.00732422Z" fill="#F4B3B3"/>
<path d="M17.263 51.6957C17.4268 51.5032 17.5949 51.3144 17.7671 51.1293C17.7814 51.1137 17.7965 51.0994 17.8108 51.084C17.9754 50.9093 18.1437 50.738 18.3154 50.5703C18.3678 50.5195 18.4214 50.4695 18.4743 50.4193C18.6686 50.2335 18.8674 50.0525 19.0705 49.8764C19.0958 49.8545 19.1203 49.8321 19.1458 49.8102V49.8136C20.6177 48.552 22.3139 47.5243 24.1952 46.7705C24.6923 46.5716 25.1973 46.3932 25.709 46.2357C25.7538 46.2219 25.7981 46.2076 25.8431 46.194C26.3969 46.0279 26.9575 45.8855 27.5234 45.767C27.5856 45.7537 27.6486 45.7422 27.7114 45.7298C28.0152 45.6688 28.3202 45.6145 28.6264 45.5667C28.8399 45.5337 29.055 45.504 29.2716 45.4769C29.351 45.467 29.4299 45.4558 29.5101 45.4467C29.8043 45.4127 30.0991 45.3845 30.3944 45.3621H32.0215V45.3548L32.0106 45.3551C23.8442 45.3551 17.2005 38.8559 16.9578 30.748H16.9536L16.937 52.0886C16.983 52.0313 17.0307 51.9753 17.0776 51.9188C17.1393 51.8449 17.2002 51.7694 17.263 51.6957Z" fill="#FECF77"/>
<path d="M32.0108 45.3555L32.0217 45.3552C40.1767 45.3495 46.8107 38.8628 47.063 30.7678C43.0622 33.2211 32.6565 29.6304 29.5512 24.1665C26.6497 29.2513 21.7347 33.7515 16.9614 30.7487C16.9515 30.5667 16.952 30.3892 16.9486 30.2098C16.9486 30.2368 16.9465 30.2639 16.9465 30.2913C16.9465 30.4446 16.9536 30.5964 16.958 30.7487C17.2004 38.8563 23.8444 45.3555 32.0108 45.3555Z" fill="#FCE9EA"/>
<path d="M29.551 24.1665C32.6563 29.6304 43.062 33.2208 47.0628 30.7678C46.8105 38.8631 40.1767 45.3495 32.0215 45.3552V45.3625H33.627C33.9241 45.3847 34.2178 45.4138 34.5097 45.4469C34.5928 45.4565 34.6751 45.468 34.7576 45.4781C34.9693 45.505 35.1797 45.5339 35.3885 45.5662C35.6892 45.6127 35.9889 45.6659 36.2874 45.7255C36.3618 45.7403 36.4366 45.7539 36.5105 45.7698C37.0649 45.8861 37.6141 46.0254 38.1569 46.1874C38.229 46.209 38.3001 46.2325 38.3717 46.2549C38.6512 46.3416 38.9286 46.4346 39.2039 46.5337C39.3883 46.6004 39.5705 46.6697 39.7515 46.7413C41.6281 47.4834 43.3219 48.4963 44.7944 49.7417V49.7372C44.8282 49.7656 44.8602 49.7958 44.8938 49.8245C44.9922 49.9091 45.0899 49.9948 45.1865 50.0815C45.2792 50.1651 45.3706 50.2499 45.4617 50.3356C45.5583 50.4262 45.6549 50.516 45.7492 50.6087C45.8393 50.6973 45.9265 50.7881 46.0145 50.8788C46.1787 51.0474 46.3394 51.2193 46.4965 51.3946C46.5775 51.4847 46.659 51.5737 46.7379 51.6656C46.8285 51.7711 46.9162 51.8792 47.0042 51.987C47.0355 52.0252 47.068 52.063 47.0993 52.1018L47.0829 30.7563L47.0975 30.7482C47.6289 20.8156 38.3991 14.7932 32.0147 15.2262H32.0184C32.5402 17.0739 31.4994 20.7518 29.551 24.1665Z" fill="#FCBA6F"/>
<path d="M49.407 55.8929C49.4521 55.9934 49.4974 56.0934 49.5406 56.1949C49.4976 56.0934 49.4521 55.9934 49.407 55.8929ZM47.6776 52.8685C47.7585 52.9815 47.8393 53.0942 47.9174 53.2096C47.8395 53.0942 47.7585 52.9815 47.6776 52.8685ZM48.6879 54.4561C48.7496 54.5662 48.8084 54.6784 48.8678 54.7899C48.8084 54.6782 48.7498 54.5662 48.6879 54.4561ZM44.7943 49.7413C43.3219 48.4959 41.6281 47.4827 39.7515 46.7409L39.7976 46.7589V55.1349H24.0912V46.8117C24.1256 46.7976 24.1607 46.7844 24.1954 46.7706C22.3138 47.5244 20.618 48.5521 19.146 49.8137V61.3023C17.2543 60.4712 15.4474 59.4587 13.7509 58.2793V58.2795C18.9286 61.884 25.2213 63.9994 32.0108 63.9994C37.1018 63.9994 41.9137 62.8081 46.1869 60.6925C45.7279 60.9181 45.2636 61.1327 44.7943 61.3359V49.7413ZM16.1138 53.2026C16.1831 53.1002 16.255 53.0005 16.326 52.9C16.255 53.0005 16.1831 53.1005 16.1138 53.2026ZM46.1999 60.6857C47.6154 59.984 48.977 59.1782 50.2733 58.2751V58.2748C48.9769 59.1779 47.6153 59.9837 46.1999 60.6857ZM50.0973 57.6869C50.1181 57.7512 50.1371 57.8163 50.1572 57.8809C50.1374 57.8163 50.1184 57.7512 50.0973 57.6869ZM15.1171 54.8695C15.1931 54.7248 15.2692 54.5805 15.3488 54.4386C15.2689 54.5803 15.1931 54.7248 15.1171 54.8695ZM17.8108 51.0841C17.7964 51.0995 17.7813 51.1138 17.767 51.1294C17.7813 51.1138 17.7964 51.0992 17.8108 51.0841ZM27.5236 45.7673C27.5858 45.754 27.6488 45.7426 27.7116 45.7301C27.6491 45.7426 27.5858 45.754 27.5236 45.7673ZM25.7092 46.2357C25.754 46.2219 25.7983 46.2076 25.8433 46.1941C25.7983 46.2076 25.754 46.2222 25.7092 46.2357ZM45.4617 50.3355C45.558 50.4261 45.6549 50.5159 45.7492 50.6086C45.6549 50.5159 45.5583 50.4258 45.4617 50.3355ZM38.1572 46.1873C38.2293 46.2089 38.3006 46.2324 38.372 46.2547C38.3004 46.2324 38.2293 46.2089 38.1572 46.1873ZM34.5097 45.4468C34.5928 45.4564 34.675 45.4679 34.7576 45.478C34.675 45.4679 34.593 45.4564 34.5097 45.4468ZM36.2873 45.7254C36.3618 45.7402 36.4365 45.7538 36.5105 45.7697C36.4368 45.754 36.3618 45.7402 36.2873 45.7254Z" fill="#A0D9F6"/>
<path d="M38.9516 46.4442C38.7594 46.3781 38.5661 46.3149 38.372 46.2546C38.3006 46.2322 38.2293 46.2088 38.1572 46.1872C37.6143 46.0255 37.0651 45.8861 36.5108 45.7695C36.4368 45.7537 36.3621 45.7401 36.2876 45.7253C35.9892 45.6654 35.6895 45.6123 35.3888 45.5659C35.1789 45.5337 34.9685 45.5044 34.7579 45.4779C34.6753 45.4678 34.593 45.4563 34.51 45.4467C34.2163 45.4129 33.922 45.3848 33.6273 45.3623H30.3946C30.0993 45.3847 29.8045 45.4129 29.5103 45.4469C29.4304 45.456 29.3515 45.4672 29.2718 45.4771C28.9715 45.5146 28.672 45.5582 28.3735 45.6078C28.1511 45.6453 27.9306 45.686 27.7116 45.73C27.6491 45.7425 27.5861 45.7539 27.5236 45.7672C26.9577 45.8857 26.3971 46.0281 25.8434 46.1942C25.7983 46.2078 25.754 46.2221 25.7093 46.2359C25.425 46.3235 25.1426 46.4175 24.8625 46.5176C24.6375 46.5983 24.4151 46.6827 24.1954 46.7707C24.1608 46.7845 24.1256 46.7978 24.0912 46.8119V55.135H39.7976V46.759L39.7515 46.741C39.487 46.6365 39.2203 46.5375 38.9516 46.4442ZM32.0033 53.0684C31.8782 53.0684 31.7544 53.0438 31.6389 52.9959C31.5234 52.9481 31.4184 52.878 31.33 52.7896C31.2416 52.7012 31.1714 52.5962 31.1236 52.4807C31.0757 52.3652 31.0511 52.2414 31.051 52.1164C31.051 51.9914 31.0756 51.8676 31.1235 51.752C31.1713 51.6365 31.2414 51.5316 31.3298 51.4431C31.4182 51.3547 31.5231 51.2846 31.6387 51.2367C31.7542 51.1888 31.878 51.1642 32.003 51.1642C32.2555 51.1641 32.4977 51.2644 32.6763 51.4429C32.8548 51.6215 32.9552 51.8636 32.9552 52.1161C32.9553 52.3686 32.855 52.6108 32.6764 52.7894C32.4979 52.968 32.2558 53.0683 32.0033 53.0684ZM32.0033 49.6214C31.7507 49.6214 31.5084 49.5211 31.3298 49.3425C31.1512 49.1639 31.0509 48.9216 31.0509 48.669C31.0509 48.4165 31.1512 48.1742 31.3298 47.9956C31.5084 47.817 31.7507 47.7167 32.0033 47.7167C32.2558 47.7167 32.4981 47.817 32.6767 47.9956C32.8553 48.1742 32.9556 48.4165 32.9556 48.669C32.9556 48.9216 32.8553 49.1639 32.6767 49.3425C32.4981 49.5211 32.2558 49.6214 32.0033 49.6214ZM19.1458 49.8138V49.8104C19.1202 49.8323 19.0958 49.8547 19.0705 49.8766C18.8675 50.0528 18.6687 50.2338 18.4742 50.4195C18.4214 50.4697 18.3677 50.5197 18.3154 50.5705C18.1437 50.7382 17.9754 50.9095 17.8108 51.0842C17.7965 51.0996 17.7814 51.1139 17.767 51.1295C17.5949 51.3146 17.4268 51.5035 17.2629 51.6959C17.2002 51.7696 17.1392 51.8451 17.0778 51.9195C17.0309 51.9763 16.9833 52.0323 16.9372 52.0893C16.8846 52.1549 16.8333 52.2213 16.7815 52.2875C16.6254 52.4885 16.4736 52.6929 16.3263 52.9004C16.255 53.0009 16.1831 53.1009 16.1141 53.203C16.0407 53.3108 15.9706 53.4212 15.8996 53.5311C15.7571 53.7516 15.6197 53.9753 15.4874 54.2021C15.4413 54.2812 15.3939 54.3591 15.3488 54.4388C15.2692 54.5807 15.1931 54.7252 15.1171 54.8697C15.0765 54.947 15.0356 55.0244 14.9958 55.1025C14.9186 55.2549 14.8437 55.4085 14.7711 55.5631C14.7401 55.629 14.7101 55.6951 14.6797 55.7615C14.6013 55.9321 14.5256 56.1039 14.4526 56.2768L14.4406 56.3062C14.1757 56.9441 13.9472 57.5966 13.7563 58.2604C13.7545 58.2667 13.7522 58.2729 13.7506 58.2792L13.7509 58.2794C15.4474 59.459 17.2542 60.4714 19.146 61.3025V49.8138H19.1458ZM50.2783 58.2719C50.2403 58.1401 50.1981 58.0112 50.1575 57.881C50.1374 57.8165 50.1184 57.7514 50.0976 57.687C50.015 57.4305 49.9267 57.1759 49.8328 56.9233C49.8179 56.8845 49.8018 56.8465 49.7869 56.8077C49.7085 56.6021 49.6264 56.3978 49.5406 56.1951C49.4974 56.0932 49.4521 55.9935 49.407 55.893C49.241 55.5188 49.0611 55.1509 48.8678 54.79C48.8082 54.6783 48.7496 54.5663 48.6879 54.4562C48.6181 54.3317 48.5452 54.2104 48.4725 54.088C48.3592 53.8973 48.2423 53.7087 48.1218 53.5225C48.0538 53.4178 47.9869 53.3123 47.9174 53.2097C47.8393 53.0947 47.7586 52.9817 47.6776 52.8686C47.5298 52.6604 47.377 52.4558 47.2193 52.2549C47.1795 52.2037 47.1394 52.1528 47.099 52.1021C47.0678 52.0633 47.0352 52.0255 47.004 51.9872C46.9157 51.8795 46.8279 51.7714 46.7376 51.6659C46.6587 51.574 46.5772 51.485 46.4962 51.3949C46.3392 51.2196 46.1785 51.0476 46.0142 50.8791C45.9262 50.7884 45.839 50.6976 45.7489 50.609C45.6549 50.5166 45.5581 50.4265 45.4615 50.3359C45.3703 50.2505 45.2792 50.1656 45.1862 50.0818C45.0896 49.9951 44.992 49.9094 44.8936 49.8248C44.86 49.7961 44.8279 49.7659 44.7941 49.7375V61.3361C45.2678 61.1309 45.7365 60.9143 46.1996 60.6864C47.6151 59.9843 48.9766 59.1785 50.2731 58.2755L50.2783 58.2719Z" fill="#FEFEFE"/>
<path d="M31.051 48.6693C31.051 48.9218 31.1513 49.164 31.3299 49.3426C31.5085 49.5212 31.7507 49.6215 32.0032 49.6215C32.2558 49.6215 32.498 49.5212 32.6766 49.3426C32.8551 49.164 32.9555 48.9218 32.9555 48.6693C32.9555 48.4167 32.8551 48.1745 32.6766 47.9959C32.498 47.8174 32.2558 47.717 32.0032 47.717C31.7507 47.717 31.5085 47.8174 31.3299 47.9959C31.1513 48.1745 31.051 48.4167 31.051 48.6693Z" fill="#A0D9F6"/>
<path d="M31.0513 52.116C31.0513 52.241 31.0759 52.3648 31.1237 52.4803C31.1716 52.5958 31.2417 52.7008 31.3301 52.7892C31.4185 52.8776 31.5234 52.9477 31.6389 52.9955C31.7544 53.0434 31.8782 53.068 32.0032 53.068C32.1282 53.068 32.252 53.0434 32.3675 52.9955C32.483 52.9477 32.588 52.8776 32.6764 52.7892C32.7648 52.7008 32.8349 52.5958 32.8827 52.4803C32.9306 52.3648 32.9552 52.241 32.9552 52.116C32.9552 51.8635 32.8549 51.6214 32.6764 51.4429C32.4978 51.2644 32.2557 51.1641 32.0032 51.1641C31.7508 51.1641 31.5086 51.2644 31.3301 51.4429C31.1516 51.6214 31.0513 51.8635 31.0513 52.116Z" fill="#A0D9F6"/>
<path d="M16.9611 30.7484C21.7345 33.7512 26.6495 29.251 29.551 24.1662C31.4992 20.7518 32.5399 17.0739 32.0181 15.2264H32.0145C25.7543 14.8015 16.7729 20.6002 16.9486 30.2095C16.9518 30.3889 16.9515 30.5667 16.9611 30.7484Z" fill="#FECF77"/>
</g>
<defs>
<clipPath id="clip0_740_1814">
<rect width="64" height="64" fill="white"/>
</clipPath>
</defs>
</svg>
