<svg width="64" height="64" viewBox="0 0 64 64" fill="none" xmlns="http://www.w3.org/2000/svg">
<path d="M31.9999 0C14.3281 0 0 14.3281 0 32C0 42.8846 5.4367 52.4989 13.7414 58.2796C15.3598 52.6437 19.4494 48.3981 25.0145 46.4596C25.2463 46.3786 25.4806 46.302 25.7176 46.2294C25.7551 46.2179 25.7921 46.2054 25.8298 46.1942C26.3874 46.0269 26.9519 45.8837 27.5218 45.7648C27.5801 45.7526 27.639 45.7416 27.6973 45.7299C28.0029 45.6687 28.3098 45.614 28.6179 45.5661C28.8347 45.5325 29.0521 45.5023 29.2699 45.4752C29.3483 45.4653 29.4262 45.4546 29.5048 45.4458C29.7995 45.4116 30.0949 45.3833 30.3908 45.3609H33.6238C33.9212 45.383 34.215 45.4122 34.5069 45.4453C34.5894 45.4549 34.6712 45.4661 34.7532 45.4765C35.0541 45.5139 35.3542 45.5577 35.6532 45.6078C35.8668 45.6437 36.0788 45.6828 36.2889 45.7247C36.3608 45.739 36.4337 45.7523 36.5051 45.7674C37.0683 45.8859 37.6196 46.0257 38.1587 46.1869C38.2254 46.2067 38.291 46.2283 38.3574 46.2489C38.559 46.3114 38.7592 46.3768 38.9571 46.4453C44.5399 48.3763 48.643 52.6255 50.2685 58.2723C58.5675 52.4906 64 42.8799 64 31.9994C63.9995 14.3279 49.6717 0 31.9999 0ZM31.9999 45.3533C23.8478 45.3533 17.2124 38.8778 16.9465 30.7906C16.9374 30.7849 16.9283 30.7802 16.9192 30.7745C16.607 24.9372 19.6588 20.4531 23.522 17.8328C23.5444 17.8174 23.566 17.8015 23.5884 17.7864C23.7358 17.6875 23.8853 17.5937 24.0348 17.5002C24.0934 17.4635 24.1507 17.4252 24.2098 17.3896C26.5884 15.9448 29.2056 15.1898 31.5079 15.2336C31.6717 15.2281 31.835 15.2211 32.0001 15.2211C32.1569 15.2211 32.3113 15.2281 32.4671 15.2328C34.2327 15.2023 36.1816 15.6414 38.0673 16.4966C39.4717 17.116 40.7733 17.9463 41.9269 18.9588C45.0675 21.6531 47.3412 25.7023 47.066 30.7745L47.0535 30.7817C46.7917 38.8729 40.1548 45.3533 31.9999 45.3533Z" fill="#A0D9F6"/>
<path d="M23.5214 17.8327C23.5435 17.8176 23.5654 17.8012 23.5878 17.7863C23.5654 17.8014 23.5438 17.8176 23.5214 17.8327ZM32.4661 15.2327C32.3104 15.228 32.156 15.2209 31.9992 15.2209C31.8341 15.2209 31.6708 15.228 31.507 15.2334C31.6648 15.2366 31.8224 15.24 31.9771 15.2504C32.1399 15.2404 32.303 15.2345 32.4661 15.2327ZM29.5156 24.1814C26.62 29.261 21.7143 33.761 16.9459 30.7905C17.2117 38.8777 23.8471 45.3532 31.9992 45.3532C40.1541 45.3532 46.7913 38.8727 47.0528 30.7816C43.0681 33.2616 32.6203 29.6639 29.5156 24.1814ZM24.0341 17.5001C24.0927 17.4637 24.1503 17.4251 24.2091 17.3894C24.1497 17.4254 24.0927 17.4637 24.0341 17.5001ZM38.0663 16.4965C39.4625 17.1313 40.7619 17.9602 41.926 18.9587C40.7723 17.9463 39.4707 17.116 38.0663 16.4965Z" fill="#FCE9EA"/>
<path d="M27.5217 45.7646C27.5801 45.7524 27.6389 45.7414 27.6973 45.7297C27.6387 45.7414 27.5798 45.7524 27.5217 45.7646ZM38.9571 46.4453C39.0029 46.4612 39.0482 46.4774 39.0936 46.4935C38.9235 46.9755 38.7044 47.4388 38.4397 47.8761C39.5115 49.5266 39.2425 56.7232 37.6318 55.5919L34.8121 53.6063L31.9996 51.6279L32.1845 51.4979C32.123 51.4995 32.0616 51.5026 31.9996 51.5026C31.935 51.5026 31.8712 51.4992 31.8071 51.4977L31.9923 51.6279L29.1798 53.6063L26.36 55.5919C24.7405 56.7253 24.4723 49.5013 25.5548 47.8675C25.293 47.4339 25.076 46.9747 24.9072 46.4971C24.9428 46.4844 24.9783 46.4716 25.0142 46.4594C19.4491 48.3977 15.3595 52.6435 13.7411 58.2794C18.9197 61.8844 25.2124 63.9997 31.9996 63.9997C38.7912 63.9997 45.0878 61.8815 50.268 58.2727C48.6433 52.6258 44.5402 48.3763 38.9571 46.4453ZM36.2891 45.7248C36.361 45.7391 36.4339 45.7524 36.5053 45.7675C36.4339 45.7524 36.3613 45.7388 36.2891 45.7248ZM29.2699 45.4753C29.3483 45.4656 29.4262 45.4547 29.5048 45.4459C29.4262 45.4547 29.3483 45.4654 29.2699 45.4753ZM34.5069 45.4451C34.5894 45.4544 34.6712 45.4659 34.7532 45.4763C34.6712 45.4662 34.5897 45.455 34.5069 45.4451Z" fill="#7CA7DF"/>
<path d="M25.5548 47.8673C25.7699 47.5429 26.0381 47.4377 26.36 47.664L29.1798 49.6496L31.8071 51.4978C31.8714 51.4994 31.935 51.5028 31.9995 51.5028C32.0615 51.5028 32.123 51.4996 32.1844 51.4981L34.812 49.6496L37.6318 47.664C37.9552 47.4356 38.2243 47.5444 38.4396 47.8759C38.7044 47.4387 38.9235 46.9754 39.0935 46.4934L38.9571 46.4452C38.7582 46.3765 38.5583 46.311 38.3573 46.2489C38.2909 46.2283 38.2253 46.2067 38.1586 46.1869C37.6135 46.0241 37.0618 45.8842 36.505 45.7673C36.4336 45.7522 36.3607 45.739 36.2888 45.7246C35.7802 45.6227 35.268 45.54 34.7532 45.4765C34.6711 45.466 34.5894 45.4546 34.5068 45.4452C34.213 45.4114 33.9186 45.3833 33.6237 45.3608H30.3907C30.0948 45.3832 29.7995 45.4115 29.5048 45.4457C29.4261 45.4546 29.3482 45.4655 29.2699 45.4752C28.7426 45.5402 28.218 45.6252 27.6972 45.7298C27.6386 45.7416 27.5798 45.7525 27.5217 45.7647C26.9519 45.8839 26.3874 46.0271 25.8298 46.1942C25.792 46.2054 25.755 46.2179 25.7175 46.2293C25.4806 46.3017 25.2462 46.3785 25.0144 46.4595C24.9787 46.4718 24.9431 46.4845 24.9074 46.4973C25.0761 46.9748 25.2931 47.4338 25.5548 47.8673Z" fill="#FEFEFE"/>
<path d="M37.6317 47.6638L34.8119 49.6495L32.1843 51.498L31.9994 51.6279L34.8119 53.6063L37.6317 55.592C39.2424 56.7232 39.5114 49.5266 38.4395 47.8761C38.2244 47.5443 37.9554 47.4355 37.6317 47.6638ZM26.3599 47.6638C26.038 47.4375 25.7698 47.5427 25.5547 47.8672C24.4721 49.5011 24.7404 56.725 26.3599 55.5917L29.1797 53.606L31.9921 51.6276L31.807 51.4974L29.1797 49.6493L26.3599 47.6638Z" fill="#5C5163"/>
<path d="M29.5156 24.1819C32.6203 29.6644 43.0682 33.2621 47.0528 30.7821L47.0653 30.7748C47.3406 25.7027 45.0666 21.6535 41.9263 18.9592C40.762 17.9609 39.4627 17.1319 38.0666 16.497C36.181 15.6418 34.232 15.2027 32.4664 15.2332C32.3021 15.236 32.1383 15.2399 31.9773 15.2509C32.4987 17.0967 31.4604 20.7699 29.5156 24.1819Z" fill="#F7B970"/>
<path d="M29.5164 24.1816C31.4612 20.7694 32.4997 17.0965 31.9781 15.2507C31.8216 15.2411 31.6649 15.2354 31.508 15.2337C29.2057 15.19 26.5885 15.9449 24.2099 17.3897C24.151 17.4254 24.0935 17.4639 24.0349 17.5004C23.8854 17.5939 23.7359 17.6876 23.5886 17.7866C23.5662 17.8017 23.5445 17.8178 23.5221 17.8329C19.6589 20.4533 16.6071 24.9374 16.9193 30.7746C16.9284 30.7803 16.9375 30.785 16.9467 30.7907C21.7151 33.7613 26.6208 29.2613 29.5164 24.1816Z" fill="#FBCE77"/>
</svg>
