<svg width="40" height="40" viewBox="0 0 40 40" fill="none" xmlns="http://www.w3.org/2000/svg">
<path d="M36.6663 34.4447C36.6663 36.8891 34.6663 38.8891 32.2219 38.8891H7.77745C5.33301 38.8891 3.33301 36.8891 3.33301 34.4447V15.5558C3.33301 13.1113 5.33301 11.1113 7.77745 11.1113H32.2219C34.6663 11.1113 36.6663 13.1113 36.6663 15.5558V34.4447Z" fill="#FDD888"/>
<path d="M40 12.2223C40 14.6667 38 16.6667 35.5556 16.6667H4.44444C2 16.6667 0 14.6667 0 12.2223C0 9.77783 2 7.77783 4.44444 7.77783H35.5556C38 7.77783 40 9.77783 40 12.2223Z" fill="#FDD888"/>
<path d="M3.33301 16.6665H36.6663V18.8887H3.33301V16.6665Z" fill="#FCAB40"/>
<path d="M21.1112 3.3335H18.889C18.0049 3.3335 17.1571 3.68469 16.532 4.30981C15.9069 4.93493 15.5557 5.78277 15.5557 6.66683V38.8891H24.4446V6.66683C24.4446 5.78277 24.0934 4.93493 23.4682 4.30981C22.8431 3.68469 21.9953 3.3335 21.1112 3.3335Z" fill="#DA2F47"/>
<path d="M17.7782 7.77754C19.0004 7.77754 19.1816 7.20421 18.1793 6.5031L10.7104 1.27421C10.4813 1.10735 10.2192 0.991255 9.94162 0.933672C9.66405 0.876088 9.3774 0.878336 9.10077 0.940265C8.82414 1.00219 8.56389 1.12238 8.33737 1.29281C8.11085 1.46325 7.92326 1.68001 7.78712 1.92865L5.54712 5.84865C4.94045 6.90976 5.44489 7.77754 6.66712 7.77754H17.7782ZM22.2227 7.77754C21.0004 7.77754 20.8193 7.20421 21.8216 6.5031L29.2916 1.27421C29.5208 1.10752 29.7829 0.991582 30.0604 0.934097C30.3379 0.876613 30.6245 0.878905 30.9011 0.940822C31.1777 1.00274 31.4379 1.12286 31.6644 1.29319C31.891 1.46352 32.0786 1.68014 32.2149 1.92865L34.4549 5.84754C35.0604 6.90976 34.556 7.77754 33.3338 7.77754H22.2227Z" fill="#DA2F47"/>
</svg>
