<svg width="24" height="24" viewBox="0 0 24 24" fill="none" xmlns="http://www.w3.org/2000/svg">
<path d="M5.08127 22.3131C4.20002 22.3131 3.48752 21.6006 3.48752 20.7193V12.9756H4.63127V20.7006C4.63127 20.9443 4.83752 21.1506 5.08127 21.1506H18.3938C18.6375 21.1506 18.8438 20.9443 18.8438 20.7006V13.2381H19.9875V20.7193C19.9875 21.6006 19.275 22.3131 18.3938 22.3131H5.08127Z" fill="#6D6C6E"/>
<path d="M3.54376 13.0312V20.7C3.54376 21.5437 4.23751 22.2375 5.08126 22.2375H18.3938C19.2375 22.2375 19.9313 21.5625 19.9313 20.7V13.2938H18.9V20.7187C18.9 21 18.675 21.225 18.3938 21.225H5.08126C4.80001 21.225 4.57501 21 4.57501 20.7187V13.0312H3.54376Z" fill="#6D6C6E"/>
<path d="M11.6812 7.08789H12.825V21.7879H11.6812V7.08789Z" fill="#6D6C6E"/>
<path d="M12.75 21.732V7.14453H11.7188V21.732H12.75Z" fill="#6D6C6E"/>
<path d="M4.05001 13.3508C2.60626 13.3508 1.44376 12.1695 1.44376 10.7445V6.58203H19.4063C20.85 6.58203 22.0125 7.76328 22.0125 9.18828V13.332H4.05001V13.3508ZM2.58751 10.7258C2.58751 11.5508 3.24376 12.207 4.06876 12.207H20.9063V9.20703C20.9063 8.38203 20.25 7.72578 19.425 7.72578H2.58751V10.7258Z" fill="#6D6C6E"/>
<path d="M2.00625 7.66895H19.4062C20.25 7.66895 20.9437 8.36269 20.9437 9.20644V12.7877L21.45 12.2814H4.05C3.20625 12.2814 2.5125 11.5877 2.5125 10.7439V7.14394L2.00625 7.66895ZM2.00625 6.6377H1.5V10.7252C1.5 12.1314 2.64375 13.2752 4.05 13.2752H21.9562V9.20644C21.9562 7.80019 20.8125 6.65645 19.4062 6.65645H2.00625V6.6377Z" fill="#6D6C6E"/>
<path d="M10.1438 7.7252V5.04395H14.3438V7.70644H10.1438V7.7252ZM13.2188 6.58144V6.1877H11.2688V6.58144H13.2188Z" fill="#6D6C6E"/>
<path d="M10.7063 6.13184H13.7813L13.275 5.62559V7.16309L13.7813 6.65684H10.7063L11.2125 7.16309V5.62559L10.7063 6.13184ZM10.7063 5.10059H10.2V7.66934H14.2875V5.11934H10.7063V5.10059Z" fill="#6D6C6E"/>
<path d="M6.11251 7.51914C6.05626 7.44414 5.96251 7.33164 5.83126 7.16289C5.60626 6.86289 5.40001 6.56289 5.23126 6.28164C5.00626 5.94414 4.83751 5.60664 4.68751 5.30664C4.20001 4.27539 4.16251 3.52539 4.57501 2.98164C5.51251 1.72539 7.21876 0.712891 8.36251 0.712891C8.92501 0.712891 9.54376 1.18164 10.5375 2.38164C10.725 2.60664 10.9125 2.85039 11.1188 3.11289C11.4375 3.56289 11.8125 4.06914 12.1875 4.61289C12.3188 4.80039 12.4313 4.96914 12.525 5.11914C12.5813 5.21289 12.675 5.36289 12.675 5.36289L11.7188 5.98164C11.7188 5.98164 11.625 5.83164 11.5688 5.75664C11.4938 5.60664 11.3813 5.43789 11.25 5.25039C10.875 4.72539 10.5188 4.21914 10.1813 3.78789C9.99376 3.54414 9.80626 3.30039 9.63751 3.09414C8.94376 2.25039 8.43751 1.83789 8.34376 1.83789C7.57501 1.83789 6.16876 2.71914 5.47501 3.65664C5.38126 3.78789 5.41876 4.18164 5.71876 4.81914C5.85001 5.08164 6.00001 5.36289 6.18751 5.66289C6.35626 5.92539 6.54376 6.20664 6.75001 6.46914C6.86251 6.61914 6.95626 6.73164 6.99376 6.78789L7.03126 6.82539L6.15001 7.53789L6.11251 7.51914Z" fill="#6D6C6E"/>
<path d="M11.85 5.34375L12.7125 5.90625C12.7313 5.86875 12.7688 5.8125 12.825 5.71875C12.9188 5.56875 13.0313 5.4 13.1625 5.23125C13.5 4.725 13.875 4.21875 14.2313 3.75C14.4188 3.50625 14.6063 3.2625 14.7938 3.05625C15.45 2.26875 16.0125 1.78125 16.1438 1.78125C16.95 1.78125 18.3375 2.6625 19.0688 3.61875C19.1813 3.76875 19.125 4.21875 18.825 4.8375C18.6938 5.1 18.5438 5.4 18.3563 5.7C18.1875 5.98125 17.9813 6.2625 17.7938 6.50625C17.6813 6.65625 17.5875 6.76875 17.55 6.825L18.3375 7.48125C18.3938 7.40625 18.4875 7.29375 18.6188 7.125C18.825 6.84375 19.0313 6.54375 19.2188 6.24375C19.425 5.90625 19.6125 5.5875 19.7625 5.26875C20.1938 4.33125 20.3063 3.5625 19.8938 3C18.9563 1.81875 17.2688 0.75 16.1063 0.75C15.525 0.75 14.8688 1.33125 13.9688 2.4C13.7813 2.625 13.5938 2.86875 13.3875 3.13125C13.0125 3.61875 12.6563 4.125 12.3 4.65C12.1688 4.8375 12.0563 5.00625 11.9625 5.15625C11.9063 5.23125 11.8688 5.30625 11.85 5.34375Z" fill="#6D6C6E"/>
</svg>
