<svg width="20" height="22" viewBox="0 0 20 22" fill="none" xmlns="http://www.w3.org/2000/svg">
<path fill-rule="evenodd" clip-rule="evenodd" d="M9.75 4C5.19621 4 1.5 7.69621 1.5 12.25C1.5 16.8038 5.19621 20.5 9.75 20.5C14.3038 20.5 18 16.8038 18 12.25C18 7.69621 14.3038 4 9.75 4ZM0 12.25C0 6.86779 4.36779 2.5 9.75 2.5C15.1322 2.5 19.5 6.86779 19.5 12.25C19.5 17.6322 15.1322 22 9.75 22C4.36779 22 0 17.6322 0 12.25Z" fill="#7A9EBF"/>
<path fill-rule="evenodd" clip-rule="evenodd" d="M6 0.750001C6 1.16421 6.33579 1.5 6.75 1.5H12.75C13.1642 1.5 13.5 1.16421 13.5 0.750001C13.5 0.335791 13.1642 0 12.75 0L6.75 1.01328e-06C6.33579 1.01328e-06 6 0.335791 6 0.750001Z" fill="#7A9EBF"/>
<path fill-rule="evenodd" clip-rule="evenodd" d="M9.75 6.5C10.1642 6.5 10.5 6.83579 10.5 7.25V12.25C10.5 12.6642 10.1642 13 9.75 13C9.3358 13 9 12.6642 9 12.25V7.25C9 6.83579 9.3358 6.5 9.75 6.5Z" fill="#7A9EBF"/>
</svg>
