<svg width="24" height="24" viewBox="0 0 24 24" fill="none" xmlns="http://www.w3.org/2000/svg">
<g clip-path="url(#clip0_2071_7693)">
<path d="M3.27256 0C2.67008 0 2.18164 0.48853 2.18164 1.09092V9.81818C2.18164 10.4207 2.67008 10.9091 3.27256 10.9091C3.87504 10.9091 4.36348 10.4208 4.36348 9.81818V1.09092C4.36348 0.48853 3.87504 0 3.27256 0Z" fill="#D4CBF6"/>
<path d="M11.9996 0C11.3971 0 10.9087 0.48853 10.9087 1.09092V11.2727C10.9087 11.8752 11.3971 12.3636 11.9996 12.3636C12.6021 12.3636 13.0905 11.8753 13.0905 11.2727V1.09092C13.0905 0.48853 12.6021 0 11.9996 0Z" fill="#D4CBF6"/>
<path d="M20.7272 0C20.1247 0 19.6362 0.48853 19.6362 1.09092V8.36366C19.6362 8.96619 20.1247 9.45457 20.7272 9.45457C21.3296 9.45457 21.8181 8.96623 21.8181 8.36366V1.09092C21.8181 0.48853 21.3296 0 20.7272 0Z" fill="#AB99EC"/>
<path d="M3.27256 13.0908C2.67008 13.0908 2.18164 13.5793 2.18164 14.1817V22.909C2.18164 23.5115 2.67008 23.9999 3.27256 23.9999C3.87504 23.9999 4.36348 23.5116 4.36348 22.909V14.1817C4.36348 13.5793 3.87504 13.0908 3.27256 13.0908Z" fill="#D4CBF6"/>
<path d="M11.9996 14.5454C11.3971 14.5454 10.9087 15.0339 10.9087 15.6363V22.9091C10.9087 23.5116 11.3971 24 11.9996 24C12.6021 24 13.0905 23.5116 13.0905 22.9091V15.6363C13.0905 15.0339 12.6021 14.5454 11.9996 14.5454Z" fill="#D4CBF6"/>
<path d="M20.7272 11.6362C20.1247 11.6362 19.6362 12.1248 19.6362 12.7272V22.9089C19.6362 23.5115 20.1247 23.9999 20.7272 23.9999C21.3296 23.9999 21.8181 23.5115 21.8181 22.9089V12.7272C21.8181 12.1248 21.3296 11.6362 20.7272 11.6362Z" fill="#AB99EC"/>
<path d="M13.0909 11.2727V1.09092C13.0909 0.48853 12.6025 0 12 0V12.3636C12.6025 12.3636 13.0909 11.8752 13.0909 11.2727Z" fill="#AB99EC"/>
<path d="M13.0909 22.909V15.6363C13.0909 15.0339 12.6025 14.5454 12 14.5454V23.9999C12.6025 23.9999 13.0909 23.5116 13.0909 22.909Z" fill="#AB99EC"/>
<path d="M5.45455 8.72705H1.09092C0.488437 8.72705 0 9.21553 0 9.81797V14.1816C0 14.7841 0.488437 15.2725 1.09092 15.2725H5.45455C6.05703 15.2725 6.54547 14.7842 6.54547 14.1816V9.81797C6.54542 9.21553 6.05699 8.72705 5.45455 8.72705Z" fill="#9E8CEC"/>
<path d="M22.9091 7.27295H18.5455C17.943 7.27295 17.4546 7.76148 17.4546 8.36387V12.7275C17.4546 13.33 17.943 13.8184 18.5455 13.8184H22.9091C23.5116 13.8184 24.0001 13.3301 24.0001 12.7275V8.36387C24 7.76143 23.5116 7.27295 22.9091 7.27295Z" fill="#6A56CF"/>
<path d="M14.1816 10.1816H9.81797C9.21549 10.1816 8.72705 10.6702 8.72705 11.2726V15.6362C8.72705 16.2387 9.21549 16.7271 9.81797 16.7271H14.1816C14.7841 16.7271 15.2725 16.2388 15.2725 15.6362V11.2726C15.2725 10.6702 14.7841 10.1816 14.1816 10.1816Z" fill="#9E8CEC"/>
<path d="M14.1818 10.1816H12V16.7271H14.1818C14.7843 16.7271 15.2727 16.2387 15.2727 15.6361V11.2725C15.2727 10.6702 14.7843 10.1816 14.1818 10.1816Z" fill="#6A56CF"/>
</g>
<defs>
<clipPath id="clip0_2071_7693">
<rect width="24" height="24" fill="white"/>
</clipPath>
</defs>
</svg>
