<svg width="64" height="64" viewBox="0 0 64 64" fill="none" xmlns="http://www.w3.org/2000/svg">
<path d="M46.4994 57.71H17.501C15.1302 57.71 13.2085 55.7881 13.2085 53.4175V34.1084C13.2085 31.7376 15.1302 29.8159 17.501 29.8159H46.4994C48.87 29.8159 50.7917 31.7377 50.7917 34.1084V53.4175C50.7917 55.7881 48.87 57.71 46.4994 57.71Z" fill="url(#paint0_linear_208_2893)"/>
<path d="M47.1902 28.0371H42.1902V21.3976C42.1902 15.8243 37.656 11.29 32.0827 11.29C26.5093 11.29 21.9751 15.8243 21.9751 21.3976V28.0371H16.9751V21.3976C16.9751 13.0673 23.7523 6.29001 32.0827 6.29001C40.4131 6.29001 47.1902 13.0673 47.1902 21.3976V28.0371Z" fill="#3F5EAB"/>
<path d="M36.375 40.9805C36.375 38.5642 34.4163 36.6055 32 36.6055C29.5838 36.6055 27.625 38.5642 27.625 40.9805C27.625 42.3305 28.2369 43.5371 29.1978 44.3396L27.7313 49.5878H36.2325L34.7729 44.3643C35.7509 43.562 36.375 42.3442 36.375 40.9805Z" fill="#3F5EAB"/>
<defs>
<linearGradient id="paint0_linear_208_2893" x1="16.888" y1="58.875" x2="47.1122" y2="28.6508" gradientUnits="userSpaceOnUse">
<stop stop-color="#FF7BAC"/>
<stop offset="1" stop-color="#00FFFF"/>
</linearGradient>
</defs>
</svg>
