<svg width="48" height="48" viewBox="0 0 48 48" fill="none" xmlns="http://www.w3.org/2000/svg">
<path d="M24 31C28.42 31 32 27.42 32 23V12C32 7.58 28.42 4 24 4C19.58 4 16 7.58 16 12V23C16 27.42 19.58 31 24 31Z" stroke="white" stroke-width="3" stroke-linecap="round" stroke-linejoin="round"/>
<path d="M8.69995 19.2998V22.6998C8.69995 31.1398 15.56 37.9998 24 37.9998C32.44 37.9998 39.2999 31.1398 39.2999 22.6998V19.2998" stroke="white" stroke-width="3" stroke-linecap="round" stroke-linejoin="round"/>
<path d="M21.22 12.8602C23.02 12.2002 24.98 12.2002 26.78 12.8602" stroke="white" stroke-width="3" stroke-linecap="round" stroke-linejoin="round"/>
<path d="M22.3999 17.1001C23.4599 16.8201 24.5599 16.8201 25.6199 17.1001" stroke="white" stroke-width="3" stroke-linecap="round" stroke-linejoin="round"/>
<path d="M24 38V44" stroke="white" stroke-width="3" stroke-linecap="round" stroke-linejoin="round"/>
</svg>
