<svg width="24" height="24" viewBox="0 0 24 24" fill="none" xmlns="http://www.w3.org/2000/svg">
<path d="M12.0004 0C5.37281 0 0 5.37196 0 11.9979C0 18.6272 5.37281 24 12.0004 24C18.628 24 23.9991 18.6263 23.9991 11.9979C23.9991 5.37196 18.628 0 12.0004 0ZM12.0004 22.7709C6.04999 22.7709 1.22905 17.9474 1.22905 11.997C1.22905 6.04914 6.04999 1.22734 12.0004 1.22734C17.9491 1.22734 22.7709 6.04914 22.7709 11.997C22.7701 17.9474 17.9483 22.7709 12.0004 22.7709Z" fill="#FFD930"/>
<path d="M13.3701 14.7264L13.8954 3.93018H10.1301L10.6537 14.7264H13.3701Z" fill="#FFD930"/>
<path d="M12.0134 15.9175C10.7508 15.9175 9.86768 16.8006 9.86768 18.0855C9.86768 19.324 10.7251 20.2552 11.9653 20.2552H12.0134C13.2999 20.2552 14.1325 19.324 14.1325 18.0855C14.1101 16.8006 13.275 15.9175 12.0134 15.9175Z" fill="#FFD930"/>
</svg>
