<svg width="164" height="164" viewBox="0 0 164 164" fill="none" xmlns="http://www.w3.org/2000/svg">
<g clip-path="url(#clip0_2058_8769)">
<path d="M164 0H0V164H164V0Z" fill="#F0E8F4"/>
<path d="M19.1332 13.6667H13.6665V19.1334H19.1332V13.6667Z" fill="#9763A1"/>
<path d="M24.6 13.6667H19.1333V19.1334H24.6V13.6667Z" fill="#9763A1"/>
<path d="M30.0668 13.6667H24.6001V19.1334H30.0668V13.6667Z" fill="#9763A1"/>
<path d="M35.5336 13.6667H30.0669V19.1334H35.5336V13.6667Z" fill="#9763A1"/>
<path d="M40.9999 13.6667H35.5332V19.1334H40.9999V13.6667Z" fill="#9763A1"/>
<path d="M46.4667 13.6667H41V19.1334H46.4667V13.6667Z" fill="#9763A1"/>
<path d="M51.9335 13.6667H46.4668V19.1334H51.9335V13.6667Z" fill="#9763A1"/>
<path d="M62.8666 13.6667H57.3999V19.1334H62.8666V13.6667Z" fill="#B370C2"/>
<path d="M68.3334 13.6667H62.8667V19.1334H68.3334V13.6667Z" fill="#B370C2"/>
<path d="M79.2665 13.6667H73.7998V19.1334H79.2665V13.6667Z" fill="#B370C2"/>
<path d="M84.7333 13.6667H79.2666V19.1334H84.7333V13.6667Z" fill="#B370C2"/>
<path d="M90.2001 13.6667H84.7334V19.1334H90.2001V13.6667Z" fill="#B370C2"/>
<path d="M117.534 13.6667H112.067V19.1334H117.534V13.6667Z" fill="#9763A1"/>
<path d="M123 13.6667H117.533V19.1334H123V13.6667Z" fill="#9763A1"/>
<path d="M128.467 13.6667H123V19.1334H128.467V13.6667Z" fill="#9763A1"/>
<path d="M133.933 13.6667H128.467V19.1334H133.933V13.6667Z" fill="#9763A1"/>
<path d="M139.4 13.6667H133.933V19.1334H139.4V13.6667Z" fill="#9763A1"/>
<path d="M144.867 13.6667H139.4V19.1334H144.867V13.6667Z" fill="#9763A1"/>
<path d="M150.333 13.6667H144.867V19.1334H150.333V13.6667Z" fill="#9763A1"/>
<path d="M19.1332 19.1333H13.6665V24.6H19.1332V19.1333Z" fill="#9763A1"/>
<path d="M51.9335 19.1333H46.4668V24.6H51.9335V19.1333Z" fill="#9763A1"/>
<path d="M62.8666 19.1333H57.3999V24.6H62.8666V19.1333Z" fill="#B370C2"/>
<path d="M68.3334 19.1333H62.8667V24.6H68.3334V19.1333Z" fill="#B370C2"/>
<path d="M73.8002 19.1333H68.3335V24.6H73.8002V19.1333Z" fill="#B370C2"/>
<path d="M95.6669 19.1333H90.2002V24.6H95.6669V19.1333Z" fill="#B370C2"/>
<path d="M106.6 19.1333H101.133V24.6H106.6V19.1333Z" fill="#B370C2"/>
<path d="M117.534 19.1333H112.067V24.6H117.534V19.1333Z" fill="#9763A1"/>
<path d="M150.333 19.1333H144.867V24.6H150.333V19.1333Z" fill="#9763A1"/>
<path d="M19.1332 24.6001H13.6665V30.0668H19.1332V24.6001Z" fill="#9763A1"/>
<path d="M28.7001 24.6001H25.9668C25.212 24.6001 24.6001 25.212 24.6001 25.9668V28.7001C24.6001 29.4549 25.212 30.0668 25.9668 30.0668H28.7001C29.4549 30.0668 30.0668 29.4549 30.0668 28.7001V25.9668C30.0668 25.212 29.4549 24.6001 28.7001 24.6001Z" fill="#A678BF"/>
<path d="M34.1669 24.6001H31.4336C30.6788 24.6001 30.0669 25.212 30.0669 25.9668V28.7001C30.0669 29.4549 30.6788 30.0668 31.4336 30.0668H34.1669C34.9217 30.0668 35.5336 29.4549 35.5336 28.7001V25.9668C35.5336 25.212 34.9217 24.6001 34.1669 24.6001Z" fill="#A678BF"/>
<path d="M39.6332 24.6001H36.8999C36.1451 24.6001 35.5332 25.212 35.5332 25.9668V28.7001C35.5332 29.4549 36.1451 30.0668 36.8999 30.0668H39.6332C40.388 30.0668 40.9999 29.4549 40.9999 28.7001V25.9668C40.9999 25.212 40.388 24.6001 39.6332 24.6001Z" fill="#A678BF"/>
<path d="M51.9335 24.6001H46.4668V30.0668H51.9335V24.6001Z" fill="#9763A1"/>
<path d="M62.8666 24.6001H57.3999V30.0668H62.8666V24.6001Z" fill="#B370C2"/>
<path d="M68.3334 24.6001H62.8667V30.0668H68.3334V24.6001Z" fill="#B370C2"/>
<path d="M73.8002 24.6001H68.3335V30.0668H73.8002V24.6001Z" fill="#B370C2"/>
<path d="M79.2665 24.6001H73.7998V30.0668H79.2665V24.6001Z" fill="#B370C2"/>
<path d="M90.2001 24.6001H84.7334V30.0668H90.2001V24.6001Z" fill="#B370C2"/>
<path d="M101.133 24.6001H95.6665V30.0668H101.133V24.6001Z" fill="#B370C2"/>
<path d="M117.534 24.6001H112.067V30.0668H117.534V24.6001Z" fill="#9763A1"/>
<path d="M127.1 24.6001H124.367C123.612 24.6001 123 25.212 123 25.9668V28.7001C123 29.4549 123.612 30.0668 124.367 30.0668H127.1C127.855 30.0668 128.467 29.4549 128.467 28.7001V25.9668C128.467 25.212 127.855 24.6001 127.1 24.6001Z" fill="#A678BF"/>
<path d="M132.567 24.6001H129.833C129.079 24.6001 128.467 25.212 128.467 25.9668V28.7001C128.467 29.4549 129.079 30.0668 129.833 30.0668H132.567C133.322 30.0668 133.933 29.4549 133.933 28.7001V25.9668C133.933 25.212 133.322 24.6001 132.567 24.6001Z" fill="#A678BF"/>
<path d="M138.033 24.6001H135.3C134.545 24.6001 133.933 25.212 133.933 25.9668V28.7001C133.933 29.4549 134.545 30.0668 135.3 30.0668H138.033C138.788 30.0668 139.4 29.4549 139.4 28.7001V25.9668C139.4 25.212 138.788 24.6001 138.033 24.6001Z" fill="#A678BF"/>
<path d="M150.333 24.6001H144.867V30.0668H150.333V24.6001Z" fill="#9763A1"/>
<path d="M19.1332 30.0667H13.6665V35.5333H19.1332V30.0667Z" fill="#9763A1"/>
<path d="M28.7001 30.0667H25.9668C25.212 30.0667 24.6001 30.6785 24.6001 31.4333V34.1667C24.6001 34.9214 25.212 35.5333 25.9668 35.5333H28.7001C29.4549 35.5333 30.0668 34.9214 30.0668 34.1667V31.4333C30.0668 30.6785 29.4549 30.0667 28.7001 30.0667Z" fill="#A678BF"/>
<path d="M34.1669 30.0667H31.4336C30.6788 30.0667 30.0669 30.6785 30.0669 31.4333V34.1667C30.0669 34.9214 30.6788 35.5333 31.4336 35.5333H34.1669C34.9217 35.5333 35.5336 34.9214 35.5336 34.1667V31.4333C35.5336 30.6785 34.9217 30.0667 34.1669 30.0667Z" fill="#A678BF"/>
<path d="M39.6332 30.0667H36.8999C36.1451 30.0667 35.5332 30.6785 35.5332 31.4333V34.1667C35.5332 34.9214 36.1451 35.5333 36.8999 35.5333H39.6332C40.388 35.5333 40.9999 34.9214 40.9999 34.1667V31.4333C40.9999 30.6785 40.388 30.0667 39.6332 30.0667Z" fill="#A678BF"/>
<path d="M51.9335 30.0667H46.4668V35.5333H51.9335V30.0667Z" fill="#9763A1"/>
<path d="M84.7333 30.0667H79.2666V35.5333H84.7333V30.0667Z" fill="#B370C2"/>
<path d="M90.2001 30.0667H84.7334V35.5333H90.2001V30.0667Z" fill="#B370C2"/>
<path d="M106.6 30.0667H101.133V35.5333H106.6V30.0667Z" fill="#B370C2"/>
<path d="M117.534 30.0667H112.067V35.5333H117.534V30.0667Z" fill="#9763A1"/>
<path d="M127.1 30.0667H124.367C123.612 30.0667 123 30.6785 123 31.4333V34.1667C123 34.9214 123.612 35.5333 124.367 35.5333H127.1C127.855 35.5333 128.467 34.9214 128.467 34.1667V31.4333C128.467 30.6785 127.855 30.0667 127.1 30.0667Z" fill="#A678BF"/>
<path d="M132.567 30.0667H129.833C129.079 30.0667 128.467 30.6785 128.467 31.4333V34.1667C128.467 34.9214 129.079 35.5333 129.833 35.5333H132.567C133.322 35.5333 133.933 34.9214 133.933 34.1667V31.4333C133.933 30.6785 133.322 30.0667 132.567 30.0667Z" fill="#A678BF"/>
<path d="M138.033 30.0667H135.3C134.545 30.0667 133.933 30.6785 133.933 31.4333V34.1667C133.933 34.9214 134.545 35.5333 135.3 35.5333H138.033C138.788 35.5333 139.4 34.9214 139.4 34.1667V31.4333C139.4 30.6785 138.788 30.0667 138.033 30.0667Z" fill="#A678BF"/>
<path d="M150.333 30.0667H144.867V35.5333H150.333V30.0667Z" fill="#9763A1"/>
<path d="M19.1332 35.5334H13.6665V41.0001H19.1332V35.5334Z" fill="#9763A1"/>
<path d="M28.7001 35.5334H25.9668C25.212 35.5334 24.6001 36.1453 24.6001 36.9001V39.6334C24.6001 40.3882 25.212 41.0001 25.9668 41.0001H28.7001C29.4549 41.0001 30.0668 40.3882 30.0668 39.6334V36.9001C30.0668 36.1453 29.4549 35.5334 28.7001 35.5334Z" fill="#A678BF"/>
<path d="M34.1669 35.5334H31.4336C30.6788 35.5334 30.0669 36.1453 30.0669 36.9001V39.6334C30.0669 40.3882 30.6788 41.0001 31.4336 41.0001H34.1669C34.9217 41.0001 35.5336 40.3882 35.5336 39.6334V36.9001C35.5336 36.1453 34.9217 35.5334 34.1669 35.5334Z" fill="#A678BF"/>
<path d="M39.6332 35.5334H36.8999C36.1451 35.5334 35.5332 36.1453 35.5332 36.9001V39.6334C35.5332 40.3882 36.1451 41.0001 36.8999 41.0001H39.6332C40.388 41.0001 40.9999 40.3882 40.9999 39.6334V36.9001C40.9999 36.1453 40.388 35.5334 39.6332 35.5334Z" fill="#A678BF"/>
<path d="M51.9335 35.5334H46.4668V41.0001H51.9335V35.5334Z" fill="#9763A1"/>
<path d="M62.8666 35.5334H57.3999V41.0001H62.8666V35.5334Z" fill="#B370C2"/>
<path d="M68.3334 35.5334H62.8667V41.0001H68.3334V35.5334Z" fill="#B370C2"/>
<path d="M73.8002 35.5334H68.3335V41.0001H73.8002V35.5334Z" fill="#B370C2"/>
<path d="M84.7333 35.5334H79.2666V41.0001H84.7333V35.5334Z" fill="#B370C2"/>
<path d="M95.6669 35.5334H90.2002V41.0001H95.6669V35.5334Z" fill="#B370C2"/>
<path d="M106.6 35.5334H101.133V41.0001H106.6V35.5334Z" fill="#B370C2"/>
<path d="M117.534 35.5334H112.067V41.0001H117.534V35.5334Z" fill="#9763A1"/>
<path d="M127.1 35.5334H124.367C123.612 35.5334 123 36.1453 123 36.9001V39.6334C123 40.3882 123.612 41.0001 124.367 41.0001H127.1C127.855 41.0001 128.467 40.3882 128.467 39.6334V36.9001C128.467 36.1453 127.855 35.5334 127.1 35.5334Z" fill="#A678BF"/>
<path d="M132.567 35.5334H129.833C129.079 35.5334 128.467 36.1453 128.467 36.9001V39.6334C128.467 40.3882 129.079 41.0001 129.833 41.0001H132.567C133.322 41.0001 133.933 40.3882 133.933 39.6334V36.9001C133.933 36.1453 133.322 35.5334 132.567 35.5334Z" fill="#A678BF"/>
<path d="M138.033 35.5334H135.3C134.545 35.5334 133.933 36.1453 133.933 36.9001V39.6334C133.933 40.3882 134.545 41.0001 135.3 41.0001H138.033C138.788 41.0001 139.4 40.3882 139.4 39.6334V36.9001C139.4 36.1453 138.788 35.5334 138.033 35.5334Z" fill="#A678BF"/>
<path d="M150.333 35.5334H144.867V41.0001H150.333V35.5334Z" fill="#9763A1"/>
<path d="M19.1332 41H13.6665V46.4667H19.1332V41Z" fill="#9763A1"/>
<path d="M51.9335 41H46.4668V46.4667H51.9335V41Z" fill="#9763A1"/>
<path d="M79.2665 41H73.7998V46.4667H79.2665V41Z" fill="#B370C2"/>
<path d="M95.6669 41H90.2002V46.4667H95.6669V41Z" fill="#B370C2"/>
<path d="M106.6 41H101.133V46.4667H106.6V41Z" fill="#B370C2"/>
<path d="M117.534 41H112.067V46.4667H117.534V41Z" fill="#9763A1"/>
<path d="M150.333 41H144.867V46.4667H150.333V41Z" fill="#9763A1"/>
<path d="M19.1332 46.4666H13.6665V51.9332H19.1332V46.4666Z" fill="#9763A1"/>
<path d="M24.6 46.4666H19.1333V51.9332H24.6V46.4666Z" fill="#9763A1"/>
<path d="M30.0668 46.4666H24.6001V51.9332H30.0668V46.4666Z" fill="#9763A1"/>
<path d="M35.5336 46.4666H30.0669V51.9332H35.5336V46.4666Z" fill="#9763A1"/>
<path d="M40.9999 46.4666H35.5332V51.9332H40.9999V46.4666Z" fill="#9763A1"/>
<path d="M46.4667 46.4666H41V51.9332H46.4667V46.4666Z" fill="#9763A1"/>
<path d="M51.9335 46.4666H46.4668V51.9332H51.9335V46.4666Z" fill="#9763A1"/>
<path d="M62.8666 46.4666H57.3999V51.9332H62.8666V46.4666Z" fill="#B370C2"/>
<path d="M73.8002 46.4666H68.3335V51.9332H73.8002V46.4666Z" fill="#B370C2"/>
<path d="M84.7333 46.4666H79.2666V51.9332H84.7333V46.4666Z" fill="#B370C2"/>
<path d="M95.6669 46.4666H90.2002V51.9332H95.6669V46.4666Z" fill="#B370C2"/>
<path d="M106.6 46.4666H101.133V51.9332H106.6V46.4666Z" fill="#B370C2"/>
<path d="M117.534 46.4666H112.067V51.9332H117.534V46.4666Z" fill="#9763A1"/>
<path d="M123 46.4666H117.533V51.9332H123V46.4666Z" fill="#9763A1"/>
<path d="M128.467 46.4666H123V51.9332H128.467V46.4666Z" fill="#9763A1"/>
<path d="M133.933 46.4666H128.467V51.9332H133.933V46.4666Z" fill="#9763A1"/>
<path d="M139.4 46.4666H133.933V51.9332H139.4V46.4666Z" fill="#9763A1"/>
<path d="M144.867 46.4666H139.4V51.9332H144.867V46.4666Z" fill="#9763A1"/>
<path d="M150.333 46.4666H144.867V51.9332H150.333V46.4666Z" fill="#9763A1"/>
<path d="M68.3334 51.9333H62.8667V57.4H68.3334V51.9333Z" fill="#B370C2"/>
<path d="M73.8002 51.9333H68.3335V57.4H73.8002V51.9333Z" fill="#B370C2"/>
<path d="M79.2665 51.9333H73.7998V57.4H79.2665V51.9333Z" fill="#B370C2"/>
<path d="M84.7333 51.9333H79.2666V57.4H84.7333V51.9333Z" fill="#B370C2"/>
<path d="M90.2001 51.9333H84.7334V57.4H90.2001V51.9333Z" fill="#B370C2"/>
<path d="M106.6 51.9333H101.133V57.4H106.6V51.9333Z" fill="#B370C2"/>
<path d="M19.1332 57.3999H13.6665V62.8666H19.1332V57.3999Z" fill="#B370C2"/>
<path d="M35.5336 57.3999H30.0669V62.8666H35.5336V57.3999Z" fill="#B370C2"/>
<path d="M40.9999 57.3999H35.5332V62.8666H40.9999V57.3999Z" fill="#B370C2"/>
<path d="M46.4667 57.3999H41V62.8666H46.4667V57.3999Z" fill="#B370C2"/>
<path d="M51.9335 57.3999H46.4668V62.8666H51.9335V57.3999Z" fill="#B370C2"/>
<path d="M57.3998 57.3999H51.9331V62.8666H57.3998V57.3999Z" fill="#B370C2"/>
<path d="M62.8666 57.3999H57.3999V62.8666H62.8666V57.3999Z" fill="#B370C2"/>
<path d="M68.3334 57.3999H62.8667V62.8666H68.3334V57.3999Z" fill="#B370C2"/>
<path d="M73.8002 57.3999H68.3335V62.8666H73.8002V57.3999Z" fill="#B370C2"/>
<path d="M95.6669 57.3999H90.2002V62.8666H95.6669V57.3999Z" fill="#B370C2"/>
<path d="M101.133 57.3999H95.6665V62.8666H101.133V57.3999Z" fill="#B370C2"/>
<path d="M112.067 57.3999H106.6V62.8666H112.067V57.3999Z" fill="#B370C2"/>
<path d="M128.467 57.3999H123V62.8666H128.467V57.3999Z" fill="#B370C2"/>
<path d="M139.4 57.3999H133.933V62.8666H139.4V57.3999Z" fill="#B370C2"/>
<path d="M144.867 57.3999H139.4V62.8666H144.867V57.3999Z" fill="#B370C2"/>
<path d="M150.333 57.3999H144.867V62.8666H150.333V57.3999Z" fill="#B370C2"/>
<path d="M19.1332 62.8667H13.6665V68.3334H19.1332V62.8667Z" fill="#B370C2"/>
<path d="M24.6 62.8667H19.1333V68.3334H24.6V62.8667Z" fill="#B370C2"/>
<path d="M35.5336 62.8667H30.0669V68.3334H35.5336V62.8667Z" fill="#B370C2"/>
<path d="M46.4667 62.8667H41V68.3334H46.4667V62.8667Z" fill="#B370C2"/>
<path d="M62.8666 62.8667H57.3999V68.3334H62.8666V62.8667Z" fill="#B370C2"/>
<path d="M68.3334 62.8667H62.8667V68.3334H68.3334V62.8667Z" fill="#B370C2"/>
<path d="M73.8002 62.8667H68.3335V68.3334H73.8002V62.8667Z" fill="#B370C2"/>
<path d="M84.7333 62.8667H79.2666V68.3334H84.7333V62.8667Z" fill="#B370C2"/>
<path d="M101.133 62.8667H95.6665V68.3334H101.133V62.8667Z" fill="#B370C2"/>
<path d="M112.067 62.8667H106.6V68.3334H112.067V62.8667Z" fill="#B370C2"/>
<path d="M123 62.8667H117.533V68.3334H123V62.8667Z" fill="#B370C2"/>
<path d="M128.467 62.8667H123V68.3334H128.467V62.8667Z" fill="#B370C2"/>
<path d="M133.933 62.8667H128.467V68.3334H133.933V62.8667Z" fill="#B370C2"/>
<path d="M139.4 62.8667H133.933V68.3334H139.4V62.8667Z" fill="#B370C2"/>
<path d="M144.867 62.8667H139.4V68.3334H144.867V62.8667Z" fill="#B370C2"/>
<path d="M19.1332 68.3333H13.6665V73.7999H19.1332V68.3333Z" fill="#B370C2"/>
<path d="M24.6 68.3333H19.1333V73.7999H24.6V68.3333Z" fill="#B370C2"/>
<path d="M30.0668 68.3333H24.6001V73.7999H30.0668V68.3333Z" fill="#B370C2"/>
<path d="M35.5336 68.3333H30.0669V73.7999H35.5336V68.3333Z" fill="#B370C2"/>
<path d="M46.4667 68.3333H41V73.7999H46.4667V68.3333Z" fill="#B370C2"/>
<path d="M51.9335 68.3333H46.4668V73.7999H51.9335V68.3333Z" fill="#B370C2"/>
<path d="M62.8666 68.3333H57.3999V73.7999H62.8666V68.3333Z" fill="#B370C2"/>
<path d="M68.3334 68.3333H62.8667V73.7999H68.3334V68.3333Z" fill="#B370C2"/>
<path d="M73.8002 68.3333H68.3335V73.7999H73.8002V68.3333Z" fill="#B370C2"/>
<path d="M79.2665 68.3333H73.7998V73.7999H79.2665V68.3333Z" fill="#B370C2"/>
<path d="M84.7333 68.3333H79.2666V73.7999H84.7333V68.3333Z" fill="#B370C2"/>
<path d="M90.2001 68.3333H84.7334V73.7999H90.2001V68.3333Z" fill="#B370C2"/>
<path d="M95.6669 68.3333H90.2002V73.7999H95.6669V68.3333Z" fill="#B370C2"/>
<path d="M101.133 68.3333H95.6665V73.7999H101.133V68.3333Z" fill="#B370C2"/>
<path d="M117.534 68.3333H112.067V73.7999H117.534V68.3333Z" fill="#B370C2"/>
<path d="M123 68.3333H117.533V73.7999H123V68.3333Z" fill="#B370C2"/>
<path d="M133.933 68.3333H128.467V73.7999H133.933V68.3333Z" fill="#B370C2"/>
<path d="M150.333 68.3333H144.867V73.7999H150.333V68.3333Z" fill="#B370C2"/>
<path d="M19.1332 73.8H13.6665V79.2667H19.1332V73.8Z" fill="#B370C2"/>
<path d="M24.6 73.8H19.1333V79.2667H24.6V73.8Z" fill="#B370C2"/>
<path d="M30.0668 73.8H24.6001V79.2667H30.0668V73.8Z" fill="#B370C2"/>
<path d="M57.3998 73.8H51.9331V79.2667H57.3998V73.8Z" fill="#B370C2"/>
<path d="M73.8002 73.8H68.3335V79.2667H73.8002V73.8Z" fill="#B370C2"/>
<path d="M79.2665 73.8H73.7998V79.2667H79.2665V73.8Z" fill="#B370C2"/>
<path d="M84.7333 73.8H79.2666V79.2667H84.7333V73.8Z" fill="#B370C2"/>
<path d="M95.6669 73.8H90.2002V79.2667H95.6669V73.8Z" fill="#B370C2"/>
<path d="M101.133 73.8H95.6665V79.2667H101.133V73.8Z" fill="#B370C2"/>
<path d="M123 73.8H117.533V79.2667H123V73.8Z" fill="#B370C2"/>
<path d="M133.933 73.8H128.467V79.2667H133.933V73.8Z" fill="#B370C2"/>
<path d="M139.4 73.8H133.933V79.2667H139.4V73.8Z" fill="#B370C2"/>
<path d="M144.867 73.8H139.4V79.2667H144.867V73.8Z" fill="#B370C2"/>
<path d="M150.333 73.8H144.867V79.2667H150.333V73.8Z" fill="#B370C2"/>
<path d="M19.1332 79.2666H13.6665V84.7333H19.1332V79.2666Z" fill="#B370C2"/>
<path d="M24.6 79.2666H19.1333V84.7333H24.6V79.2666Z" fill="#B370C2"/>
<path d="M40.9999 79.2666H35.5332V84.7333H40.9999V79.2666Z" fill="#B370C2"/>
<path d="M51.9335 79.2666H46.4668V84.7333H51.9335V79.2666Z" fill="#B370C2"/>
<path d="M73.8002 79.2666H68.3335V84.7333H73.8002V79.2666Z" fill="#B370C2"/>
<path d="M84.7333 79.2666H79.2666V84.7333H84.7333V79.2666Z" fill="#B370C2"/>
<path d="M106.6 79.2666H101.133V84.7333H106.6V79.2666Z" fill="#B370C2"/>
<path d="M117.534 79.2666H112.067V84.7333H117.534V79.2666Z" fill="#B370C2"/>
<path d="M150.333 79.2666H144.867V84.7333H150.333V79.2666Z" fill="#B370C2"/>
<path d="M19.1332 84.7334H13.6665V90.2001H19.1332V84.7334Z" fill="#B370C2"/>
<path d="M24.6 84.7334H19.1333V90.2001H24.6V84.7334Z" fill="#B370C2"/>
<path d="M35.5336 84.7334H30.0669V90.2001H35.5336V84.7334Z" fill="#B370C2"/>
<path d="M46.4667 84.7334H41V90.2001H46.4667V84.7334Z" fill="#B370C2"/>
<path d="M62.8666 84.7334H57.3999V90.2001H62.8666V84.7334Z" fill="#B370C2"/>
<path d="M68.3334 84.7334H62.8667V90.2001H68.3334V84.7334Z" fill="#B370C2"/>
<path d="M73.8002 84.7334H68.3335V90.2001H73.8002V84.7334Z" fill="#B370C2"/>
<path d="M84.7333 84.7334H79.2666V90.2001H84.7333V84.7334Z" fill="#B370C2"/>
<path d="M90.2001 84.7334H84.7334V90.2001H90.2001V84.7334Z" fill="#B370C2"/>
<path d="M101.133 84.7334H95.6665V90.2001H101.133V84.7334Z" fill="#B370C2"/>
<path d="M106.6 84.7334H101.133V90.2001H106.6V84.7334Z" fill="#B370C2"/>
<path d="M112.067 84.7334H106.6V90.2001H112.067V84.7334Z" fill="#B370C2"/>
<path d="M128.467 84.7334H123V90.2001H128.467V84.7334Z" fill="#B370C2"/>
<path d="M144.867 84.7334H139.4V90.2001H144.867V84.7334Z" fill="#B370C2"/>
<path d="M19.1332 90.2H13.6665V95.6666H19.1332V90.2Z" fill="#B370C2"/>
<path d="M24.6 90.2H19.1333V95.6666H24.6V90.2Z" fill="#B370C2"/>
<path d="M35.5336 90.2H30.0669V95.6666H35.5336V90.2Z" fill="#B370C2"/>
<path d="M46.4667 90.2H41V95.6666H46.4667V90.2Z" fill="#B370C2"/>
<path d="M51.9335 90.2H46.4668V95.6666H51.9335V90.2Z" fill="#B370C2"/>
<path d="M57.3998 90.2H51.9331V95.6666H57.3998V90.2Z" fill="#B370C2"/>
<path d="M62.8666 90.2H57.3999V95.6666H62.8666V90.2Z" fill="#B370C2"/>
<path d="M73.8002 90.2H68.3335V95.6666H73.8002V90.2Z" fill="#B370C2"/>
<path d="M90.2001 90.2H84.7334V95.6666H90.2001V90.2Z" fill="#B370C2"/>
<path d="M95.6669 90.2H90.2002V95.6666H95.6669V90.2Z" fill="#B370C2"/>
<path d="M101.133 90.2H95.6665V95.6666H101.133V90.2Z" fill="#B370C2"/>
<path d="M112.067 90.2H106.6V95.6666H112.067V90.2Z" fill="#B370C2"/>
<path d="M117.534 90.2H112.067V95.6666H117.534V90.2Z" fill="#B370C2"/>
<path d="M128.467 90.2H123V95.6666H128.467V90.2Z" fill="#B370C2"/>
<path d="M133.933 90.2H128.467V95.6666H133.933V90.2Z" fill="#B370C2"/>
<path d="M139.4 90.2H133.933V95.6666H139.4V90.2Z" fill="#B370C2"/>
<path d="M144.867 90.2H139.4V95.6666H144.867V90.2Z" fill="#B370C2"/>
<path d="M150.333 90.2H144.867V95.6666H150.333V90.2Z" fill="#B370C2"/>
<path d="M19.1332 95.6667H13.6665V101.133H19.1332V95.6667Z" fill="#B370C2"/>
<path d="M35.5336 95.6667H30.0669V101.133H35.5336V95.6667Z" fill="#B370C2"/>
<path d="M46.4667 95.6667H41V101.133H46.4667V95.6667Z" fill="#B370C2"/>
<path d="M57.3998 95.6667H51.9331V101.133H57.3998V95.6667Z" fill="#B370C2"/>
<path d="M73.8002 95.6667H68.3335V101.133H73.8002V95.6667Z" fill="#B370C2"/>
<path d="M79.2665 95.6667H73.7998V101.133H79.2665V95.6667Z" fill="#B370C2"/>
<path d="M95.6669 95.6667H90.2002V101.133H95.6669V95.6667Z" fill="#B370C2"/>
<path d="M106.6 95.6667H101.133V101.133H106.6V95.6667Z" fill="#B370C2"/>
<path d="M112.067 95.6667H106.6V101.133H112.067V95.6667Z" fill="#B370C2"/>
<path d="M123 95.6667H117.533V101.133H123V95.6667Z" fill="#B370C2"/>
<path d="M133.933 95.6667H128.467V101.133H133.933V95.6667Z" fill="#B370C2"/>
<path d="M139.4 95.6667H133.933V101.133H139.4V95.6667Z" fill="#B370C2"/>
<path d="M150.333 95.6667H144.867V101.133H150.333V95.6667Z" fill="#B370C2"/>
<path d="M19.1332 101.133H13.6665V106.6H19.1332V101.133Z" fill="#B370C2"/>
<path d="M35.5336 101.133H30.0669V106.6H35.5336V101.133Z" fill="#B370C2"/>
<path d="M40.9999 101.133H35.5332V106.6H40.9999V101.133Z" fill="#B370C2"/>
<path d="M46.4667 101.133H41V106.6H46.4667V101.133Z" fill="#B370C2"/>
<path d="M51.9335 101.133H46.4668V106.6H51.9335V101.133Z" fill="#B370C2"/>
<path d="M57.3998 101.133H51.9331V106.6H57.3998V101.133Z" fill="#B370C2"/>
<path d="M68.3334 101.133H62.8667V106.6H68.3334V101.133Z" fill="#B370C2"/>
<path d="M73.8002 101.133H68.3335V106.6H73.8002V101.133Z" fill="#B370C2"/>
<path d="M84.7333 101.133H79.2666V106.6H84.7333V101.133Z" fill="#B370C2"/>
<path d="M90.2001 101.133H84.7334V106.6H90.2001V101.133Z" fill="#B370C2"/>
<path d="M95.6669 101.133H90.2002V106.6H95.6669V101.133Z" fill="#B370C2"/>
<path d="M106.6 101.133H101.133V106.6H106.6V101.133Z" fill="#B370C2"/>
<path d="M112.067 101.133H106.6V106.6H112.067V101.133Z" fill="#B370C2"/>
<path d="M117.534 101.133H112.067V106.6H117.534V101.133Z" fill="#B370C2"/>
<path d="M123 101.133H117.533V106.6H123V101.133Z" fill="#B370C2"/>
<path d="M128.467 101.133H123V106.6H128.467V101.133Z" fill="#B370C2"/>
<path d="M139.4 101.133H133.933V106.6H139.4V101.133Z" fill="#B370C2"/>
<path d="M144.867 101.133H139.4V106.6H144.867V101.133Z" fill="#B370C2"/>
<path d="M62.8666 106.6H57.3999V112.067H62.8666V106.6Z" fill="#B370C2"/>
<path d="M68.3334 106.6H62.8667V112.067H68.3334V106.6Z" fill="#B370C2"/>
<path d="M73.8002 106.6H68.3335V112.067H73.8002V106.6Z" fill="#B370C2"/>
<path d="M84.7333 106.6H79.2666V112.067H84.7333V106.6Z" fill="#B370C2"/>
<path d="M90.2001 106.6H84.7334V112.067H90.2001V106.6Z" fill="#B370C2"/>
<path d="M106.6 106.6H101.133V112.067H106.6V106.6Z" fill="#B370C2"/>
<path d="M128.467 106.6H123V112.067H128.467V106.6Z" fill="#B370C2"/>
<path d="M139.4 106.6H133.933V112.067H139.4V106.6Z" fill="#B370C2"/>
<path d="M144.867 106.6H139.4V112.067H144.867V106.6Z" fill="#B370C2"/>
<path d="M19.1332 112.067H13.6665V117.533H19.1332V112.067Z" fill="#9763A1"/>
<path d="M24.6 112.067H19.1333V117.533H24.6V112.067Z" fill="#9763A1"/>
<path d="M30.0668 112.067H24.6001V117.533H30.0668V112.067Z" fill="#9763A1"/>
<path d="M35.5336 112.067H30.0669V117.533H35.5336V112.067Z" fill="#9763A1"/>
<path d="M40.9999 112.067H35.5332V117.533H40.9999V112.067Z" fill="#9763A1"/>
<path d="M46.4667 112.067H41V117.533H46.4667V112.067Z" fill="#9763A1"/>
<path d="M51.9335 112.067H46.4668V117.533H51.9335V112.067Z" fill="#9763A1"/>
<path d="M62.8666 112.067H57.3999V117.533H62.8666V112.067Z" fill="#B370C2"/>
<path d="M73.8002 112.067H68.3335V117.533H73.8002V112.067Z" fill="#B370C2"/>
<path d="M79.2665 112.067H73.7998V117.533H79.2665V112.067Z" fill="#B370C2"/>
<path d="M106.6 112.067H101.133V117.533H106.6V112.067Z" fill="#B370C2"/>
<path d="M117.534 112.067H112.067V117.533H117.534V112.067Z" fill="#B370C2"/>
<path d="M128.467 112.067H123V117.533H128.467V112.067Z" fill="#B370C2"/>
<path d="M150.333 112.067H144.867V117.533H150.333V112.067Z" fill="#B370C2"/>
<path d="M19.1332 117.533H13.6665V123H19.1332V117.533Z" fill="#9763A1"/>
<path d="M51.9335 117.533H46.4668V123H51.9335V117.533Z" fill="#9763A1"/>
<path d="M62.8666 117.533H57.3999V123H62.8666V117.533Z" fill="#B370C2"/>
<path d="M68.3334 117.533H62.8667V123H68.3334V117.533Z" fill="#B370C2"/>
<path d="M73.8002 117.533H68.3335V123H73.8002V117.533Z" fill="#B370C2"/>
<path d="M90.2001 117.533H84.7334V123H90.2001V117.533Z" fill="#B370C2"/>
<path d="M95.6669 117.533H90.2002V123H95.6669V117.533Z" fill="#B370C2"/>
<path d="M101.133 117.533H95.6665V123H101.133V117.533Z" fill="#B370C2"/>
<path d="M106.6 117.533H101.133V123H106.6V117.533Z" fill="#B370C2"/>
<path d="M128.467 117.533H123V123H128.467V117.533Z" fill="#B370C2"/>
<path d="M19.1332 123H13.6665V128.467H19.1332V123Z" fill="#9763A1"/>
<path d="M28.7001 123H25.9668C25.212 123 24.6001 123.612 24.6001 124.367V127.1C24.6001 127.855 25.212 128.467 25.9668 128.467H28.7001C29.4549 128.467 30.0668 127.855 30.0668 127.1V124.367C30.0668 123.612 29.4549 123 28.7001 123Z" fill="#A678BF"/>
<path d="M34.1669 123H31.4336C30.6788 123 30.0669 123.612 30.0669 124.367V127.1C30.0669 127.855 30.6788 128.467 31.4336 128.467H34.1669C34.9217 128.467 35.5336 127.855 35.5336 127.1V124.367C35.5336 123.612 34.9217 123 34.1669 123Z" fill="#A678BF"/>
<path d="M39.6332 123H36.8999C36.1451 123 35.5332 123.612 35.5332 124.367V127.1C35.5332 127.855 36.1451 128.467 36.8999 128.467H39.6332C40.388 128.467 40.9999 127.855 40.9999 127.1V124.367C40.9999 123.612 40.388 123 39.6332 123Z" fill="#A678BF"/>
<path d="M51.9335 123H46.4668V128.467H51.9335V123Z" fill="#9763A1"/>
<path d="M62.8666 123H57.3999V128.467H62.8666V123Z" fill="#B370C2"/>
<path d="M79.2665 123H73.7998V128.467H79.2665V123Z" fill="#B370C2"/>
<path d="M84.7333 123H79.2666V128.467H84.7333V123Z" fill="#B370C2"/>
<path d="M95.6669 123H90.2002V128.467H95.6669V123Z" fill="#B370C2"/>
<path d="M101.133 123H95.6665V128.467H101.133V123Z" fill="#B370C2"/>
<path d="M106.6 123H101.133V128.467H106.6V123Z" fill="#B370C2"/>
<path d="M112.067 123H106.6V128.467H112.067V123Z" fill="#B370C2"/>
<path d="M117.534 123H112.067V128.467H117.534V123Z" fill="#B370C2"/>
<path d="M123 123H117.533V128.467H123V123Z" fill="#B370C2"/>
<path d="M128.467 123H123V128.467H128.467V123Z" fill="#B370C2"/>
<path d="M19.1332 128.467H13.6665V133.933H19.1332V128.467Z" fill="#9763A1"/>
<path d="M28.7001 128.467H25.9668C25.212 128.467 24.6001 129.078 24.6001 129.833V132.567C24.6001 133.321 25.212 133.933 25.9668 133.933H28.7001C29.4549 133.933 30.0668 133.321 30.0668 132.567V129.833C30.0668 129.078 29.4549 128.467 28.7001 128.467Z" fill="#A678BF"/>
<path d="M34.1669 128.467H31.4336C30.6788 128.467 30.0669 129.078 30.0669 129.833V132.567C30.0669 133.321 30.6788 133.933 31.4336 133.933H34.1669C34.9217 133.933 35.5336 133.321 35.5336 132.567V129.833C35.5336 129.078 34.9217 128.467 34.1669 128.467Z" fill="#A678BF"/>
<path d="M39.6332 128.467H36.8999C36.1451 128.467 35.5332 129.078 35.5332 129.833V132.567C35.5332 133.321 36.1451 133.933 36.8999 133.933H39.6332C40.388 133.933 40.9999 133.321 40.9999 132.567V129.833C40.9999 129.078 40.388 128.467 39.6332 128.467Z" fill="#A678BF"/>
<path d="M51.9335 128.467H46.4668V133.933H51.9335V128.467Z" fill="#9763A1"/>
<path d="M62.8666 128.467H57.3999V133.933H62.8666V128.467Z" fill="#B370C2"/>
<path d="M68.3334 128.467H62.8667V133.933H68.3334V128.467Z" fill="#B370C2"/>
<path d="M73.8002 128.467H68.3335V133.933H73.8002V128.467Z" fill="#B370C2"/>
<path d="M79.2665 128.467H73.7998V133.933H79.2665V128.467Z" fill="#B370C2"/>
<path d="M95.6669 128.467H90.2002V133.933H95.6669V128.467Z" fill="#B370C2"/>
<path d="M106.6 128.467H101.133V133.933H106.6V128.467Z" fill="#B370C2"/>
<path d="M117.534 128.467H112.067V133.933H117.534V128.467Z" fill="#B370C2"/>
<path d="M144.867 128.467H139.4V133.933H144.867V128.467Z" fill="#B370C2"/>
<path d="M150.333 128.467H144.867V133.933H150.333V128.467Z" fill="#B370C2"/>
<path d="M19.1332 133.933H13.6665V139.4H19.1332V133.933Z" fill="#9763A1"/>
<path d="M28.7001 133.933H25.9668C25.212 133.933 24.6001 134.545 24.6001 135.3V138.033C24.6001 138.788 25.212 139.4 25.9668 139.4H28.7001C29.4549 139.4 30.0668 138.788 30.0668 138.033V135.3C30.0668 134.545 29.4549 133.933 28.7001 133.933Z" fill="#A678BF"/>
<path d="M34.1669 133.933H31.4336C30.6788 133.933 30.0669 134.545 30.0669 135.3V138.033C30.0669 138.788 30.6788 139.4 31.4336 139.4H34.1669C34.9217 139.4 35.5336 138.788 35.5336 138.033V135.3C35.5336 134.545 34.9217 133.933 34.1669 133.933Z" fill="#A678BF"/>
<path d="M39.6332 133.933H36.8999C36.1451 133.933 35.5332 134.545 35.5332 135.3V138.033C35.5332 138.788 36.1451 139.4 36.8999 139.4H39.6332C40.388 139.4 40.9999 138.788 40.9999 138.033V135.3C40.9999 134.545 40.388 133.933 39.6332 133.933Z" fill="#A678BF"/>
<path d="M51.9335 133.933H46.4668V139.4H51.9335V133.933Z" fill="#9763A1"/>
<path d="M68.3334 133.933H62.8667V139.4H68.3334V133.933Z" fill="#B370C2"/>
<path d="M79.2665 133.933H73.7998V139.4H79.2665V133.933Z" fill="#B370C2"/>
<path d="M90.2001 133.933H84.7334V139.4H90.2001V133.933Z" fill="#B370C2"/>
<path d="M95.6669 133.933H90.2002V139.4H95.6669V133.933Z" fill="#B370C2"/>
<path d="M101.133 133.933H95.6665V139.4H101.133V133.933Z" fill="#B370C2"/>
<path d="M112.067 133.933H106.6V139.4H112.067V133.933Z" fill="#B370C2"/>
<path d="M128.467 133.933H123V139.4H128.467V133.933Z" fill="#B370C2"/>
<path d="M133.933 133.933H128.467V139.4H133.933V133.933Z" fill="#B370C2"/>
<path d="M139.4 133.933H133.933V139.4H139.4V133.933Z" fill="#B370C2"/>
<path d="M144.867 133.933H139.4V139.4H144.867V133.933Z" fill="#B370C2"/>
<path d="M150.333 133.933H144.867V139.4H150.333V133.933Z" fill="#B370C2"/>
<path d="M19.1332 139.4H13.6665V144.867H19.1332V139.4Z" fill="#9763A1"/>
<path d="M51.9335 139.4H46.4668V144.867H51.9335V139.4Z" fill="#9763A1"/>
<path d="M73.8002 139.4H68.3335V144.867H73.8002V139.4Z" fill="#B370C2"/>
<path d="M95.6669 139.4H90.2002V144.867H95.6669V139.4Z" fill="#B370C2"/>
<path d="M101.133 139.4H95.6665V144.867H101.133V139.4Z" fill="#B370C2"/>
<path d="M123 139.4H117.533V144.867H123V139.4Z" fill="#B370C2"/>
<path d="M128.467 139.4H123V144.867H128.467V139.4Z" fill="#B370C2"/>
<path d="M139.4 139.4H133.933V144.867H139.4V139.4Z" fill="#B370C2"/>
<path d="M144.867 139.4H139.4V144.867H144.867V139.4Z" fill="#B370C2"/>
<path d="M150.333 139.4H144.867V144.867H150.333V139.4Z" fill="#B370C2"/>
<path d="M19.1332 144.867H13.6665V150.333H19.1332V144.867Z" fill="#9763A1"/>
<path d="M24.6 144.867H19.1333V150.333H24.6V144.867Z" fill="#9763A1"/>
<path d="M30.0668 144.867H24.6001V150.333H30.0668V144.867Z" fill="#9763A1"/>
<path d="M35.5336 144.867H30.0669V150.333H35.5336V144.867Z" fill="#9763A1"/>
<path d="M40.9999 144.867H35.5332V150.333H40.9999V144.867Z" fill="#9763A1"/>
<path d="M46.4667 144.867H41V150.333H46.4667V144.867Z" fill="#9763A1"/>
<path d="M51.9335 144.867H46.4668V150.333H51.9335V144.867Z" fill="#9763A1"/>
<path d="M62.8666 144.867H57.3999V150.333H62.8666V144.867Z" fill="#B370C2"/>
<path d="M73.8002 144.867H68.3335V150.333H73.8002V144.867Z" fill="#B370C2"/>
<path d="M84.7333 144.867H79.2666V150.333H84.7333V144.867Z" fill="#B370C2"/>
<path d="M106.6 144.867H101.133V150.333H106.6V144.867Z" fill="#B370C2"/>
<path d="M112.067 144.867H106.6V150.333H112.067V144.867Z" fill="#B370C2"/>
<path d="M133.933 144.867H128.467V150.333H133.933V144.867Z" fill="#B370C2"/>
<path d="M150.333 144.867H144.867V150.333H150.333V144.867Z" fill="#B370C2"/>
</g>
<defs>
<clipPath id="clip0_2058_8769">
<rect width="164" height="164" fill="white"/>
</clipPath>
</defs>
</svg>
