<svg width="24" height="24" viewBox="0 0 24 24" fill="none" xmlns="http://www.w3.org/2000/svg">
<path d="M7.46245 15.3748C7.23745 15.5998 7.23745 15.9748 7.46245 16.1998C7.68745 16.4248 8.06245 16.4248 8.28745 16.1998L16.4812 7.85605C16.7062 7.63105 16.7062 7.25605 16.4812 7.03105C16.2562 6.80605 15.8812 6.80605 15.6562 7.03105L7.46245 15.3748Z" fill="#F30000"/>
<path d="M15.6562 16.1998C15.8812 16.4248 16.2562 16.4248 16.4812 16.1998C16.7062 15.9748 16.7062 15.5998 16.4812 15.3748L8.28745 7.03105C8.06245 6.80605 7.68745 6.80605 7.46245 7.03105C7.23745 7.25605 7.23745 7.63105 7.46245 7.85605L15.6562 16.1998Z" fill="#F30000"/>
<path d="M11.7938 23.6063C5.2875 23.6063 0 18.3188 0 11.8125C0 5.30625 5.2875 0 11.7938 0C18.3 0 23.5875 5.2875 23.5875 11.7937C23.5875 18.3 18.3 23.6063 11.7938 23.6063ZM11.7938 1.125C5.90625 1.125 1.125 5.925 1.125 11.8125C1.125 17.7 5.90625 22.4813 11.7938 22.4813C17.6813 22.4813 22.4625 17.7 22.4625 11.8125C22.4625 5.925 17.6813 1.125 11.7938 1.125Z" fill="#F30000"/>
</svg>
