<svg width="23" height="20" viewBox="0 0 23 20" fill="none" xmlns="http://www.w3.org/2000/svg">
<path d="M16.392 16.3845C14.8224 17.9558 12.7566 18.9343 10.5466 19.1532C8.33646 19.3722 6.11881 18.8181 4.27143 17.5854C2.42405 16.3526 1.06123 14.5175 0.415167 12.3926C-0.230896 10.2678 -0.120235 7.98463 0.728295 5.93221C1.57683 3.87978 3.11073 2.18504 5.06867 1.13674C7.02661 0.0884374 9.28745 -0.248577 11.466 0.183114C13.6446 0.614806 15.6061 1.7885 17.0163 3.50422C18.4265 5.21994 19.1983 7.37155 19.2 9.59247H16.8C16.8015 7.92663 16.2253 6.31182 15.1695 5.02322C14.1138 3.73461 12.644 2.85194 11.0104 2.52562C9.37685 2.1993 7.68068 2.44952 6.21092 3.23364C4.74117 4.01776 3.58879 5.28725 2.95014 6.82581C2.3115 8.36436 2.22611 10.0768 2.70853 11.6712C3.19095 13.2657 4.21133 14.6435 5.59578 15.57C6.98024 16.4964 8.64311 16.9141 10.301 16.7519C11.959 16.5897 13.5093 15.8577 14.688 14.6805L16.392 16.3845ZM13.2 9.59247H22.8L18 14.3925L13.2 9.59247Z" fill="#9CA3AF"/>
</svg>
