<svg width="16" height="16" viewBox="0 0 16 16" fill="none" xmlns="http://www.w3.org/2000/svg">
<path d="M9.99998 2.83341C9.99998 2.11341 9.15065 1.73275 8.61331 2.21008L5.61798 4.87341C5.52656 4.95486 5.40842 4.99993 5.28598 5.00008H2.83331C2.43572 5.00008 2.05439 5.15793 1.77312 5.43895C1.49186 5.71997 1.33367 6.10115 1.33331 6.49875V9.49675C1.33331 9.89457 1.49135 10.2761 1.77265 10.5574C2.05396 10.8387 2.43549 10.9967 2.83331 10.9967H5.28665C5.40909 10.9969 5.52722 11.042 5.61865 11.1234L8.61265 13.7854C9.14998 14.2634 9.99998 13.8821 9.99998 13.1627V2.83341ZM6.28331 5.62008L8.99998 3.20408V12.7921L6.28331 10.3767C6.00877 10.1325 5.65412 9.99751 5.28665 9.99742H2.83331C2.7007 9.99742 2.57353 9.94474 2.47976 9.85097C2.38599 9.7572 2.33331 9.63002 2.33331 9.49742V6.49875C2.33331 6.36614 2.38599 6.23896 2.47976 6.1452C2.57353 6.05143 2.7007 5.99875 2.83331 5.99875H5.28665C5.65403 5.99884 6.00867 5.8641 6.28331 5.62008ZM12.6613 3.93141C12.7678 3.85248 12.9014 3.8191 13.0325 3.8386C13.1637 3.85811 13.2817 3.9289 13.3606 4.03542C14.2109 5.18221 14.6688 6.57249 14.6666 8.00008C14.6686 9.42774 14.2104 10.818 13.36 11.9647C13.3213 12.0186 13.2723 12.0643 13.2159 12.099C13.1594 12.1338 13.0966 12.157 13.0311 12.1672C12.9656 12.1775 12.8987 12.1746 12.8343 12.1587C12.7699 12.1429 12.7093 12.1144 12.6561 12.0749C12.6028 12.0355 12.5579 11.9858 12.524 11.9288C12.4901 11.8718 12.4679 11.8086 12.4587 11.743C12.4494 11.6773 12.4533 11.6105 12.4701 11.5464C12.4869 11.4822 12.5164 11.4221 12.5566 11.3694C13.2794 10.3949 13.6687 9.21335 13.6666 8.00008C13.6685 6.78704 13.2793 5.60572 12.5566 4.63142C12.5175 4.5786 12.4891 4.51859 12.4732 4.45481C12.4573 4.39102 12.4541 4.32473 12.4638 4.25971C12.4735 4.19469 12.496 4.13223 12.5299 4.07589C12.5638 4.01956 12.6084 3.97047 12.6613 3.93141ZM11.4286 5.57942C11.4864 5.5481 11.5497 5.52847 11.615 5.52164C11.6804 5.51481 11.7464 5.52092 11.8094 5.53962C11.8723 5.55832 11.931 5.58924 11.982 5.63061C12.033 5.67198 12.0754 5.723 12.1066 5.78075C12.464 6.44141 12.6666 7.19741 12.6666 8.00008C12.667 8.77465 12.4745 9.53713 12.1066 10.2187C12.0754 10.2765 12.0331 10.3276 11.9821 10.369C11.9311 10.4104 11.8724 10.4414 11.8095 10.4602C11.7465 10.4789 11.6805 10.4851 11.6151 10.4783C11.5498 10.4716 11.4864 10.452 11.4286 10.4207C11.3709 10.3895 11.3198 10.3472 11.2784 10.2962C11.237 10.2452 11.206 10.1865 11.1872 10.1236C11.1685 10.0606 11.1623 9.99459 11.1691 9.92925C11.1758 9.8639 11.1954 9.80053 11.2266 9.74275C11.5066 9.22475 11.6666 8.63141 11.6666 7.99941C11.6668 7.39102 11.5156 6.79214 11.2266 6.25675C11.1637 6.14013 11.1496 6.00328 11.1874 5.87627C11.2253 5.74926 11.3121 5.64249 11.4286 5.57942Z" fill="#9CA3AF"/>
</svg>
