<svg width="111" height="116" viewBox="0 0 111 116" fill="none" xmlns="http://www.w3.org/2000/svg">
<path fill-rule="evenodd" clip-rule="evenodd" d="M55.2259 105.95C80.3192 105.95 100.661 85.608 100.661 60.5147C100.661 35.4215 80.3192 15.0793 55.2259 15.0793C30.1326 15.0793 9.79053 35.4215 9.79053 60.5147C9.79053 85.608 30.1326 105.95 55.2259 105.95Z" stroke="#3AD29F" stroke-width="0.305962" stroke-dasharray="1.84 1.84"/>
<path fill-rule="evenodd" clip-rule="evenodd" d="M55.226 115.588C85.6421 115.588 110.299 90.9308 110.299 60.5147C110.299 30.0986 85.6421 5.44153 55.226 5.44153C24.8099 5.44153 0.152832 30.0986 0.152832 60.5147C0.152832 90.9308 24.8099 115.588 55.226 115.588Z" stroke="#3AD29F" stroke-width="0.305962" stroke-dasharray="1.84 1.84"/>
<path d="M92.0855 78.0602C92.087 71.6482 87.2088 66.2884 80.825 65.6881C74.4413 65.0878 68.6493 69.4442 67.4555 75.744L29.2729 74.7083L29.6921 81.2682C29.6921 81.2682 24.2475 93.831 52.8626 97.1782V109.876H85.9433V88.7642C89.7445 86.5384 92.0818 82.4651 92.0855 78.0602Z" fill="url(#paint0_linear_620_8)"/>
<path d="M31.0031 81.5436C31.0031 81.5436 25.7895 93.574 53.193 96.7835V108.949H84.8739V76.7323L30.5962 75.2606L31.0031 81.5436Z" fill="#FFCBB4"/>
<path d="M46.8366 31.3397C45.117 34.0533 41.5286 34.8688 38.8051 33.1648L21.7952 21.9559C19.0815 20.2362 18.2661 16.6479 19.9701 13.9244C21.6895 11.2145 25.2732 10.3995 27.9955 12.0993L45.0054 23.3082C47.7212 25.0259 48.5394 28.6146 46.8366 31.3397Z" fill="url(#paint1_linear_620_8)"/>
<path d="M45.8943 30.7278C44.2959 33.2502 40.9605 34.0081 38.4289 32.4244L22.6121 21.9972C20.0898 20.3987 19.3318 17.0633 20.9156 14.5317C22.5141 12.0093 25.8495 11.2514 28.3811 12.8351L44.1947 23.2562C46.7219 24.8539 47.4817 28.1941 45.8943 30.7278Z" fill="#FFCBB4"/>
<path d="M78.8602 90.3675C85.4309 90.3675 90.7576 85.0409 90.7576 78.4702C90.7576 71.8994 85.4309 66.5728 78.8602 66.5728C72.2895 66.5728 66.9629 71.8994 66.9629 78.4702C66.9629 85.0409 72.2895 90.3675 78.8602 90.3675Z" fill="#FFCBB4"/>
<path d="M76.7182 0H31.1421C30.1071 0 29.2681 0.839027 29.2681 1.87402V87.1549C29.2681 88.1899 30.1071 89.0289 31.1421 89.0289H76.7182C77.7532 89.0289 78.5922 88.1899 78.5922 87.1549V1.87402C78.5922 0.839027 77.7532 0 76.7182 0Z" fill="url(#paint2_linear_620_8)"/>
<path d="M75.8371 1.20398H32.0203C30.8678 1.20398 29.9336 2.13821 29.9336 3.29064V85.7413C29.9336 86.8938 30.8678 87.828 32.0203 87.828H75.8371C76.9895 87.828 77.9238 86.8938 77.9238 85.7413V3.29064C77.9238 2.13821 76.9895 1.20398 75.8371 1.20398Z" fill="white"/>
<path d="M65.9853 3.37628C65.6984 5.27448 64.0698 6.67964 62.15 6.68526H45.5761C43.6569 6.67889 42.0291 5.27391 41.7423 3.37628H32.9612C32.4777 3.37628 32.0139 3.56766 31.6719 3.90939C31.3299 4.25113 31.1377 4.7148 31.1377 5.19829V83.8306C31.1377 84.3141 31.3291 84.7779 31.6708 85.1199C32.0125 85.4619 32.4762 85.6541 32.9597 85.6541H74.8979C75.3814 85.6541 75.8453 85.4627 76.1873 85.121C76.5293 84.7793 76.7215 84.3156 76.7215 83.8321V5.19982C76.7215 4.71633 76.5301 4.2525 76.1884 3.91048C75.8466 3.56845 75.383 3.37628 74.8995 3.37628H65.9853Z" fill="#E9ECFF"/>
<path d="M59.0384 4.41199H48.9554C48.7864 4.41199 48.6494 4.54897 48.6494 4.71795V4.77455C48.6494 4.94353 48.7864 5.08051 48.9554 5.08051H59.0384C59.2073 5.08051 59.3443 4.94353 59.3443 4.77455V4.71795C59.3443 4.54897 59.2073 4.41199 59.0384 4.41199Z" fill="#DBDBDB"/>
<path d="M61.6161 5.17807C61.8913 5.17807 62.1145 4.95493 62.1145 4.67967C62.1145 4.40442 61.8913 4.18127 61.6161 4.18127C61.3408 4.18127 61.1177 4.40442 61.1177 4.67967C61.1177 4.95493 61.3408 5.17807 61.6161 5.17807Z" fill="#DBDBDB"/>
<path d="M86.5505 80.569C83.0977 81.3676 80.728 79.1157 79.9295 75.6644L71.9959 46.2049C71.2065 42.7402 73.3626 39.2883 76.8224 38.4778C80.2871 37.6884 83.739 39.8446 84.5495 43.3043L91.0236 73.5242C91.8222 76.977 90.0017 79.7705 86.5505 80.569Z" fill="url(#paint3_linear_620_8)"/>
<path d="M83.6595 44.0255C82.9864 41.1122 80.079 39.2962 77.1657 39.9693C74.2523 40.6424 72.4363 43.5498 73.1094 46.4631L80.4047 78.0373C81.0778 80.9506 83.9852 82.7666 86.8985 82.0935C89.8119 81.4204 91.6279 78.513 90.9548 75.5997L83.6595 44.0255Z" fill="#FFCBB4"/>
<path d="M90.7067 104.968H45.4243V115.524H90.7067V104.968Z" fill="url(#paint4_linear_620_8)"/>
<path d="M89.4831 106.192H46.6484V114.453H89.4831V106.192Z" fill="#B9A2C5"/>
<path d="M40.2339 62.9425C38.5351 65.6239 34.9897 66.4298 32.2988 64.7462L20.891 57.3648C18.2096 55.6661 17.4037 52.1206 19.0873 49.4297C20.7861 46.7484 24.3315 45.9425 27.0224 47.6261L38.4302 55.0074C41.1116 56.7062 41.9175 60.2516 40.2339 62.9425Z" fill="url(#paint5_linear_620_8)"/>
<path d="M37.3703 78.5665C35.6564 81.2724 32.0787 82.0859 29.3633 80.387L22.2971 75.2346C19.5911 73.5207 18.7777 69.9429 20.4766 67.2275C22.1905 64.5216 25.7682 63.7082 28.4836 65.4071L35.5498 70.561C38.2548 72.2749 39.0682 75.8514 37.3703 78.5665Z" fill="url(#paint6_linear_620_8)"/>
<g opacity="0.5">
<path d="M53.9286 58.2751C61.5275 58.2751 67.6877 52.1149 67.6877 44.516C67.6877 36.917 61.5275 30.7568 53.9286 30.7568C46.3296 30.7568 40.1694 36.917 40.1694 44.516C40.1694 52.1149 46.3296 58.2751 53.9286 58.2751Z" fill="url(#paint7_linear_620_8)"/>
</g>
<path d="M53.9289 57.4658C61.0809 57.4658 66.8787 51.668 66.8787 44.516C66.8787 37.3639 61.0809 31.5661 53.9289 31.5661C46.7769 31.5661 40.979 37.3639 40.979 44.516C40.979 51.668 46.7769 57.4658 53.9289 57.4658Z" fill="#69F0AE"/>
<path d="M48.3081 42.7873L53.1637 47.239L60.0433 37.1224L62.4726 39.1463L53.1637 51.2869L46.2842 43.5981L48.3081 42.7873Z" fill="white"/>
<path d="M36.7994 78.1825C35.2009 80.7049 31.8655 81.4628 29.3339 79.8791L22.7435 75.0816C20.2211 73.4831 19.4632 70.1477 21.0469 67.6161C22.6454 65.0938 25.9808 64.3358 28.5124 65.9195L35.1013 70.7262C37.6186 72.3238 38.3767 75.6524 36.7994 78.1825Z" fill="#FFCBB4"/>
<path d="M39.6067 62.5372C38.0082 65.0595 34.6728 65.8175 32.1412 64.2337L21.408 57.2884C18.8857 55.6899 18.1277 52.3545 19.7115 49.8229C21.31 47.3005 24.6454 46.5426 27.177 48.1263L37.9101 55.0717C40.4325 56.6702 41.1904 60.0056 39.6067 62.5372Z" fill="#FFCBB4"/>
<path d="M43.1832 47.392C41.476 50.0852 37.9146 50.8944 35.2113 49.2033L20.7546 39.7904C18.0615 38.0833 17.2523 34.5218 18.9433 31.8186C20.6505 29.1255 24.2119 28.3163 26.9152 30.0073L41.3719 39.4202C44.065 41.1273 44.8742 44.6888 43.1832 47.392Z" fill="url(#paint8_linear_620_8)"/>
<path d="M42.4153 46.9025C40.8169 49.4248 37.4815 50.1828 34.9499 48.5991L21.4095 39.7828C18.8872 38.1843 18.1292 34.8489 19.7129 32.3173C21.3114 29.7949 24.6468 29.0369 27.1784 30.6207L40.7173 39.437C43.2401 41.035 43.9988 44.3705 42.4153 46.9025Z" fill="#FFCBB4"/>
<defs>
<linearGradient id="paint0_linear_620_8" x1="60.6815" y1="109.883" x2="60.6815" y2="65.635" gradientUnits="userSpaceOnUse">
<stop stop-color="#808080" stop-opacity="0.25"/>
<stop offset="0.54" stop-color="#808080" stop-opacity="0.12"/>
<stop offset="1" stop-color="#808080" stop-opacity="0.1"/>
</linearGradient>
<linearGradient id="paint1_linear_620_8" x1="33.4018" y1="34.0567" x2="33.4018" y2="11.2105" gradientUnits="userSpaceOnUse">
<stop stop-color="#808080" stop-opacity="0.25"/>
<stop offset="0.54" stop-color="#808080" stop-opacity="0.12"/>
<stop offset="1" stop-color="#808080" stop-opacity="0.1"/>
</linearGradient>
<linearGradient id="paint2_linear_620_8" x1="53.9302" y1="89.0274" x2="53.9302" y2="-0.00152828" gradientUnits="userSpaceOnUse">
<stop stop-color="#808080" stop-opacity="0.25"/>
<stop offset="0.54" stop-color="#808080" stop-opacity="0.12"/>
<stop offset="1" stop-color="#808080" stop-opacity="0.1"/>
</linearGradient>
<linearGradient id="paint3_linear_620_8" x1="81.5205" y1="80.7281" x2="81.5205" y2="38.3126" gradientUnits="userSpaceOnUse">
<stop stop-color="#808080" stop-opacity="0.25"/>
<stop offset="0.54" stop-color="#808080" stop-opacity="0.12"/>
<stop offset="1" stop-color="#808080" stop-opacity="0.1"/>
</linearGradient>
<linearGradient id="paint4_linear_620_8" x1="68.0686" y1="115.521" x2="68.0686" y2="104.965" gradientUnits="userSpaceOnUse">
<stop stop-color="#808080" stop-opacity="0.25"/>
<stop offset="0.54" stop-color="#808080" stop-opacity="0.12"/>
<stop offset="1" stop-color="#808080" stop-opacity="0.1"/>
</linearGradient>
<linearGradient id="paint5_linear_620_8" x1="29.6583" y1="65.6258" x2="29.6583" y2="46.7479" gradientUnits="userSpaceOnUse">
<stop stop-color="#808080" stop-opacity="0.25"/>
<stop offset="0.54" stop-color="#808080" stop-opacity="0.12"/>
<stop offset="1" stop-color="#808080" stop-opacity="0.1"/>
</linearGradient>
<linearGradient id="paint6_linear_620_8" x1="28.9242" y1="81.2743" x2="28.9242" y2="64.5182" gradientUnits="userSpaceOnUse">
<stop stop-color="#808080" stop-opacity="0.25"/>
<stop offset="0.54" stop-color="#808080" stop-opacity="0.12"/>
<stop offset="1" stop-color="#808080" stop-opacity="0.1"/>
</linearGradient>
<linearGradient id="paint7_linear_620_8" x1="53.9286" y1="58.2751" x2="53.9286" y2="30.7553" gradientUnits="userSpaceOnUse">
<stop stop-color="#808080" stop-opacity="0.25"/>
<stop offset="0.54" stop-color="#808080" stop-opacity="0.12"/>
<stop offset="1" stop-color="#808080" stop-opacity="0.1"/>
</linearGradient>
<linearGradient id="paint8_linear_620_8" x1="31.0625" y1="50.0922" x2="31.0625" y2="29.1292" gradientUnits="userSpaceOnUse">
<stop stop-color="#808080" stop-opacity="0.25"/>
<stop offset="0.54" stop-color="#808080" stop-opacity="0.12"/>
<stop offset="1" stop-color="#808080" stop-opacity="0.1"/>
</linearGradient>
</defs>
</svg>
