<svg width="48" height="48" viewBox="0 0 48 48" fill="none" xmlns="http://www.w3.org/2000/svg">
<rect x="0.25" y="0.25" width="47.5" height="47.5" rx="7.75" stroke="#E5DBDB" stroke-width="0.5"/>
<g clip-path="url(#clip0_1731_7520)">
<path d="M15.875 22.125H14.625V25.875H15.875V22.125Z" fill="#E3E6E9"/>
<path d="M33.375 22.125H32.125V25.875H33.375V22.125Z" fill="#E3E6E9"/>
<path d="M29 15.25H27.125V16.5C27.125 16.5863 27.1206 16.6716 27.1121 16.7556C27.0929 16.9452 27.0517 17.1282 26.9925 17.3028C26.9815 17.3352 26.9699 17.3673 26.9577 17.3992C26.9415 17.4411 26.9242 17.4824 26.9059 17.5232C26.8809 17.5787 26.8546 17.6334 26.8259 17.6866C26.8199 17.6975 26.8136 17.7081 26.8076 17.719C26.7452 17.8303 26.6746 17.9363 26.5966 18.0363C26.5728 18.0667 26.5484 18.0966 26.5233 18.1259C26.4814 18.1747 26.4382 18.2223 26.3927 18.2678C26.3913 18.2692 26.3898 18.2705 26.3885 18.2719C26.3376 18.3226 26.2844 18.3709 26.2292 18.417C26.1813 18.4571 26.1318 18.4952 26.0809 18.5317C26.0205 18.5751 25.9583 18.6159 25.894 18.6538C25.8572 18.6755 25.8198 18.6963 25.7818 18.7162C25.7252 18.7458 25.6677 18.7736 25.6087 18.7988C25.5921 18.8059 25.5752 18.8125 25.5584 18.8192C25.3077 18.9202 25.037 18.9824 24.7536 18.9968C24.711 18.9989 24.6681 19 24.625 19H24H23.375C21.9943 19 20.875 17.8807 20.875 16.5V15.25H19C16.5879 15.25 14.625 17.2129 14.625 19.625V20.875H15.875C15.875 20.1846 16.4347 19.625 17.125 19.625H17.75V20.875V22.125V25.875H19C19 25.5295 19.2795 25.25 19.625 25.25C19.9705 25.25 20.25 25.5295 20.25 25.875H21.5C21.5 25.5295 21.7795 25.25 22.125 25.25C22.4705 25.25 22.75 25.5295 22.75 25.875H24H30.25V22.125V20.875V19.625H30.875C31.5653 19.625 32.125 20.1846 32.125 20.875H33.375V19.625C33.375 17.2129 31.4121 15.25 29 15.25ZM27.125 22.75H25.875C25.5295 22.75 25.25 22.4705 25.25 22.125C25.25 21.7795 25.5295 21.5 25.875 21.5H27.125C27.4705 21.5 27.75 21.7795 27.75 22.125C27.75 22.4705 27.4705 22.75 27.125 22.75ZM27.125 20.875H25.875C25.5295 20.875 25.25 20.5955 25.25 20.25C25.25 19.9045 25.5295 19.625 25.875 19.625H27.125C27.4705 19.625 27.75 19.9045 27.75 20.25C27.75 20.5955 27.4705 20.875 27.125 20.875Z" fill="#E3E6E9"/>
<path d="M32.125 29.9017C31.6076 30.3681 30.966 30.6958 30.25 30.8168V30.25V28.375H24H22.75V29C22.75 29.3455 22.4705 29.625 22.125 29.625C21.7795 29.625 21.5 29.3455 21.5 29V28.375H20.25V29C20.25 29.3455 19.9705 29.625 19.625 29.625C19.2795 29.625 19 29.3455 19 29V28.375H17.75V30.25V30.8168C17.034 30.6958 16.3924 30.368 15.875 29.9017V27.125H14.625C14.625 29.0037 16.0135 30.5637 17.8184 30.8335L18.927 39.7042C19.1515 39.653 19.3849 39.625 19.625 39.625H22.75C23.0952 39.625 23.375 39.9048 23.375 40.25V32.75C23.375 32.4052 23.6552 32.125 24 32.125C24.3448 32.125 24.625 32.4052 24.625 32.75V40.25C24.625 39.9048 24.9048 39.625 25.25 39.625H28.375C28.6151 39.625 28.8484 39.653 29.073 39.7042L30.1816 30.8335C31.9864 30.5637 33.375 29.0037 33.375 27.125H32.125V29.9017Z" fill="#E3E6E9"/>
<path d="M30.875 27.75C30.875 27.7716 30.8739 27.7929 30.8718 27.8139C30.8686 27.8457 30.8623 27.8766 30.8544 27.9068C30.8505 27.9219 30.8462 27.9367 30.8412 27.9512C30.7796 28.1324 30.6373 28.2759 30.4569 28.3392C30.392 28.362 30.3226 28.375 30.25 28.375V30.25V30.8168C30.966 30.6958 31.6076 30.368 32.125 29.9017V27.125H30.875V27.75Z" fill="#B6B8BE"/>
<path d="M30.875 19.625H30.25V20.875H32.125C32.125 20.1846 31.5653 19.625 30.875 19.625Z" fill="#B6B8BE"/>
<path d="M32.125 22.125H30.25V25.875H32.125V22.125Z" fill="#B6B8BE"/>
<path d="M17.125 27.75V27.125H15.875V29.9017C16.3924 30.3681 17.034 30.6958 17.75 30.8168V30.25V28.375C17.4048 28.375 17.125 28.0952 17.125 27.75Z" fill="#B6B8BE"/>
<path d="M17.75 22.125H15.875V25.875H17.75V22.125Z" fill="#B6B8BE"/>
<path d="M17.75 19.625H17.125C16.4347 19.625 15.875 20.1846 15.875 20.875H17.75V19.625Z" fill="#B6B8BE"/>
<path d="M19.625 13.375H24V4C20.554 4 17.75 6.80398 17.75 10.25C17.75 11.492 18.1138 12.6927 18.8029 13.7223C18.8562 13.8019 18.9266 13.8661 19.0067 13.9131C19.0491 13.6092 19.3094 13.375 19.625 13.375Z" fill="#FF9300"/>
<path d="M28.375 13.375C28.6908 13.375 28.9511 13.6094 28.9934 13.9135C29.0735 13.8666 29.1439 13.8025 29.1972 13.7229C29.8856 12.6938 30.25 11.4927 30.25 10.25C30.25 6.80398 27.446 4 24 4V13.375H28.375Z" fill="#FFCF00"/>
<path d="M21.5 14.625H22.75H24V14V13.375H19.625C19.3094 13.375 19.0491 13.6092 19.0067 13.9132C19.0027 13.9416 19 13.9705 19 14V15.25H20.875C20.875 14.9048 21.1548 14.625 21.5 14.625Z" fill="#888693"/>
<path d="M27.125 19.625H25.875C25.5295 19.625 25.25 19.9045 25.25 20.25C25.25 20.5955 25.5295 20.875 25.875 20.875H27.125C27.4705 20.875 27.75 20.5955 27.75 20.25C27.75 19.9045 27.4705 19.625 27.125 19.625Z" fill="#FF4F19"/>
<path d="M27.125 21.5H25.875C25.5295 21.5 25.25 21.7795 25.25 22.125C25.25 22.4705 25.5295 22.75 25.875 22.75H27.125C27.4705 22.75 27.75 22.4705 27.75 22.125C27.75 21.7795 27.4705 21.5 27.125 21.5Z" fill="#FF4F19"/>
<path d="M28.375 13.375H24V14V14.625H25.25H26.5C26.8452 14.625 27.125 14.9048 27.125 15.25H29V14C29 13.9705 28.9973 13.9419 28.9934 13.9135C28.9511 13.6094 28.6908 13.375 28.375 13.375Z" fill="#B6B8BE"/>
<path d="M22.75 15.875V14.625H21.5C21.1548 14.625 20.875 14.9048 20.875 15.25V16.5C20.875 17.8807 21.9943 19 23.375 19H24V17.125C23.3096 17.125 22.75 16.5653 22.75 15.875Z" fill="#5C546A"/>
<path d="M27.125 16.5C27.125 16.5863 27.1206 16.6716 27.1121 16.7556C27.1206 16.6716 27.125 16.5862 27.125 16.5Z" fill="#5C546A"/>
<path d="M25.6088 18.7988C25.5923 18.8059 25.5754 18.8125 25.5586 18.8192C25.5753 18.8125 25.5922 18.8059 25.6088 18.7988Z" fill="#5C546A"/>
<path d="M27.112 16.7556C27.0928 16.9452 27.0517 17.1282 26.9924 17.3028C27.0517 17.1282 27.0927 16.9451 27.112 16.7556Z" fill="#5C546A"/>
<path d="M26.8259 17.6865C26.82 17.6975 26.8136 17.7081 26.8076 17.7189C26.8136 17.7081 26.82 17.6974 26.8259 17.6865Z" fill="#5C546A"/>
<path d="M26.5 14.625H25.25V15.875C25.25 16.5654 24.6904 17.125 24 17.125V19H24.625C24.6681 19 24.711 18.9989 24.7537 18.9967C25.0371 18.9823 25.3077 18.9202 25.5585 18.8191C25.5753 18.8124 25.5922 18.8059 25.6088 18.7987C25.6677 18.7734 25.7254 18.7456 25.7819 18.7161C25.8198 18.6962 25.8573 18.6755 25.8941 18.6537C25.9583 18.6158 26.0206 18.575 26.081 18.5316C26.1318 18.4952 26.1814 18.4571 26.2293 18.417C26.2844 18.3708 26.3377 18.3225 26.3886 18.2718C26.39 18.2704 26.3915 18.2691 26.3928 18.2677C26.4383 18.2223 26.4815 18.1746 26.5234 18.1258C26.5484 18.0965 26.5729 18.0666 26.5966 18.0362C26.6747 17.9362 26.7453 17.8302 26.8077 17.7189C26.8137 17.708 26.8201 17.6974 26.8259 17.6865C26.8547 17.6333 26.881 17.5786 26.9059 17.5231C26.9242 17.4823 26.9416 17.441 26.9577 17.3991C26.97 17.3673 26.9816 17.3352 26.9926 17.3027C27.0518 17.1281 27.0929 16.9451 27.1122 16.7555C27.1207 16.6715 27.1251 16.5862 27.1251 16.4999V15.2499C27.125 14.9048 26.8452 14.625 26.5 14.625Z" fill="#888693"/>
<path d="M24 17.125C24.6904 17.125 25.25 16.5654 25.25 15.875V14.625H24V15.25V17.125Z" fill="#FF4F19"/>
<path d="M22.75 15.875C22.75 16.5654 23.3096 17.125 24 17.125V15.25V14.625H22.75V15.875Z" fill="#E5001E"/>
<path d="M32.125 20.875H30.25V22.125H32.125V20.875Z" fill="#E5001E"/>
<path d="M17.75 20.875H15.875V22.125H17.75V20.875Z" fill="#E5001E"/>
<path d="M33.375 20.875H32.125V22.125H33.375V20.875Z" fill="#FF4F19"/>
<path d="M15.875 20.875H14.625V22.125H15.875V20.875Z" fill="#FF4F19"/>
<path d="M15.875 27.125H17.125V27.75C17.125 28.0952 17.4048 28.375 17.75 28.375H19V25.875H17.75H15.875V27.125Z" fill="#5C546A"/>
<path d="M15.875 25.875H14.625V27.125H15.875V25.875Z" fill="#888693"/>
<path d="M30.875 26.5V27.125H32.125V25.875H30.25C30.5952 25.875 30.875 26.1548 30.875 26.5Z" fill="#5C546A"/>
<path d="M33.375 25.875H32.125V27.125H33.375V25.875Z" fill="#888693"/>
<path d="M21.5 25.875H20.25V28.375H21.5V25.875Z" fill="#5C546A"/>
<path d="M24 25.875H22.75V28.375H24V25.875Z" fill="#5C546A"/>
<path d="M30.25 28.375C30.3227 28.375 30.392 28.362 30.4569 28.3392C30.6373 28.2759 30.7796 28.1324 30.8412 27.9512C30.8462 27.9366 30.8505 27.9218 30.8544 27.9068C30.8622 27.8766 30.8685 27.8458 30.8718 27.8139C30.8739 27.7929 30.875 27.7716 30.875 27.75V27.125V26.5C30.875 26.1548 30.5952 25.875 30.25 25.875H24V28.375H30.25Z" fill="#888693"/>
<path d="M19 29C19 29.3455 19.2795 29.625 19.625 29.625C19.9705 29.625 20.25 29.3455 20.25 29V28.375V25.875C20.25 25.5295 19.9705 25.25 19.625 25.25C19.2795 25.25 19 25.5295 19 25.875V28.375V29Z" fill="#FF9300"/>
<path d="M21.5 29C21.5 29.3455 21.7795 29.625 22.125 29.625C22.4705 29.625 22.75 29.3455 22.75 29V28.375V25.875C22.75 25.5295 22.4705 25.25 22.125 25.25C21.7795 25.25 21.5 25.5295 21.5 25.875V28.375V29Z" fill="#E5001E"/>
<path d="M23.3719 43.439C23.3687 43.4708 23.3624 43.5016 23.3545 43.5319C23.3623 43.5015 23.3686 43.4708 23.3719 43.439Z" fill="#888693"/>
<path d="M22.75 39.625H19.625C19.3849 39.625 19.1516 39.653 18.927 39.7042C17.5373 40.0214 16.5 41.2641 16.5 42.75C16.5 42.5359 16.522 42.327 16.563 42.125H23.375V40.25C23.375 39.9048 23.0952 39.625 22.75 39.625Z" fill="#888693"/>
<path d="M31.4967 43.439C31.4935 43.4708 31.4871 43.5016 31.4792 43.5319C31.4871 43.5015 31.4935 43.4708 31.4967 43.439Z" fill="#888693"/>
<path d="M25.25 39.625C24.9048 39.625 24.625 39.9048 24.625 40.25V42.125H31.437C31.478 42.327 31.5 42.5359 31.5 42.75C31.5 41.2642 30.4627 40.0215 29.073 39.7042C28.8484 39.653 28.6151 39.625 28.375 39.625H25.25Z" fill="#888693"/>
<path d="M16.5 42.75V43.375C16.5 43.3966 16.5011 43.4179 16.5032 43.4389C16.5064 43.4707 16.5127 43.5016 16.5206 43.5318C16.5245 43.5469 16.5288 43.5617 16.5338 43.5762C16.5954 43.7574 16.7377 43.9009 16.9181 43.9642C16.983 43.987 17.0524 44 17.125 44H22.75C22.8227 44 22.892 43.987 22.9569 43.9642C23.1373 43.9009 23.2796 43.7574 23.3412 43.5762C23.3462 43.5616 23.3505 43.5468 23.3544 43.5318C23.3622 43.5016 23.3685 43.4708 23.3718 43.4389C23.3739 43.4179 23.375 43.3966 23.375 43.375V42.125H16.563C16.522 42.327 16.5 42.5359 16.5 42.75Z" fill="#B6B8BE"/>
<path d="M24.625 42.125V43.375C24.625 43.3966 24.6261 43.4179 24.6282 43.4389C24.6314 43.4707 24.6377 43.5016 24.6456 43.5318C24.6495 43.5469 24.6538 43.5617 24.6588 43.5762C24.7204 43.7574 24.8627 43.9009 25.0431 43.9642C25.108 43.987 25.1774 44 25.25 44H30.875C30.9477 44 31.017 43.987 31.0819 43.9642C31.2623 43.9009 31.4046 43.7574 31.4662 43.5762C31.4712 43.5616 31.4755 43.5468 31.4794 43.5318C31.4872 43.5016 31.4935 43.4708 31.4968 43.4389C31.4989 43.4179 31.5 43.3966 31.5 43.375V42.75C31.5 42.5359 31.478 42.327 31.437 42.125H24.625Z" fill="#B6B8BE"/>
</g>
<defs>
<clipPath id="clip0_1731_7520">
<rect width="40" height="40" fill="white" transform="translate(4 4)"/>
</clipPath>
</defs>
</svg>
