<svg width="48" height="48" viewBox="0 0 48 48" fill="none" xmlns="http://www.w3.org/2000/svg">
<rect x="0.25" y="0.25" width="47.5" height="47.5" rx="7.75" stroke="#E5DBDB" stroke-width="0.5"/>
<g clip-path="url(#clip0_1085_5495)">
<path d="M39.799 6.00503C39.332 5.82703 31.801 9.97603 29.83 15.136C28.664 18.188 28.144 21.194 28.178 23.248C26.709 22.459 25.257 22 24 22C22.743 22 21.291 22.458 19.822 23.249C19.855 21.194 19.336 18.188 18.17 15.137C16.2 9.97703 8.66803 5.82703 8.20103 6.00503C7.74603 6.17903 12.469 22.049 15.226 26.843C12.805 29.405 11 32.661 11 35.828C11 39.062 12.635 40.968 15 41.768C17.531 42.625 20 40.828 24 40.828C28 40.828 30.469 42.626 33 41.768C35.365 40.967 37 39.062 37 35.828C37 32.662 35.195 29.405 32.775 26.844C35.53 22.049 40.255 6.17903 39.799 6.00503Z" fill="#99AAB5"/>
<path d="M18.692 23.9221C18.514 22.3821 18.012 20.3721 17.235 18.3381C15.701 14.3221 11.549 11.0931 11.186 11.2311C10.867 11.3531 13.813 21.3711 15.969 26.0941C16.8085 25.2886 17.72 24.5615 18.692 23.9221ZM32.03 26.0941C34.186 21.3711 37.132 11.3531 36.814 11.2321C36.451 11.0931 32.298 14.3231 30.764 18.3391C29.987 20.3731 29.485 22.3821 29.307 23.9221C30.279 24.5615 31.1904 25.2886 32.03 26.0941Z" fill="#F4ABBA"/>
<path d="M31 36C31 38.762 27.94 41 24.166 41C20.393 41 17.333 38.762 17.333 36C17.333 33.238 20.393 31 24.166 31C27.94 31 31 33.238 31 36Z" fill="#CCD6DD"/>
<path d="M27 36.5781C27 39.3401 26.762 39.5781 24 39.5781C21.239 39.5781 21 39.3401 21 36.5781C21 35.5781 27 35.5781 27 36.5781Z" fill="white"/>
<path d="M18.5 31.8281C19.3284 31.8281 20 31.1566 20 30.3281C20 29.4997 19.3284 28.8281 18.5 28.8281C17.6716 28.8281 17 29.4997 17 30.3281C17 31.1566 17.6716 31.8281 18.5 31.8281Z" fill="#292F33"/>
<path d="M29.5 31.8281C30.3284 31.8281 31 31.1566 31 30.3281C31 29.4997 30.3284 28.8281 29.5 28.8281C28.6716 28.8281 28 29.4997 28 30.3281C28 31.1566 28.6716 31.8281 29.5 31.8281Z" fill="#292F33"/>
<path d="M27 31.828C27 33.485 25 34.828 24 34.828C23 34.828 21 33.485 21 31.828C21 30.171 27 30.171 27 31.828Z" fill="#F4ABBA"/>
</g>
<defs>
<clipPath id="clip0_1085_5495">
<rect width="36" height="36" fill="white" transform="translate(6 6)"/>
</clipPath>
</defs>
</svg>
