<svg width="48" height="48" viewBox="0 0 48 48" fill="none" xmlns="http://www.w3.org/2000/svg">
<rect x="0.25" y="0.25" width="47.5" height="47.5" rx="7.75" stroke="#E5DBDB" stroke-width="0.5"/>
<path d="M24 43.998C35.0457 43.998 44 35.0437 44 23.998C44 12.9524 35.0457 3.99805 24 3.99805C12.9543 3.99805 4 12.9524 4 23.998C4 35.0437 12.9543 43.998 24 43.998Z" fill="#A7AECE"/>
<path opacity="0.3" d="M24 39.998C32.8366 39.998 40 32.8346 40 23.998C40 15.1615 32.8366 7.99805 24 7.99805C15.1634 7.99805 8 15.1615 8 23.998C8 32.8346 15.1634 39.998 24 39.998Z" fill="white"/>
<path d="M16.0001 9.99805C15.116 9.99805 14.2682 10.3492 13.6431 10.9744C13.0179 11.5995 12.6667 12.4473 12.6667 13.3314V40.4747C14.6866 41.8678 16.9469 42.8747 19.3334 43.4447V13.3314C19.3334 12.4473 18.9822 11.5995 18.3571 10.9744C17.732 10.3492 16.8841 9.99805 16.0001 9.99805Z" fill="#7F3838"/>
<path d="M38.6166 31.2815C38.6166 26.4515 35.5833 22.9481 31.3166 21.6348L31.9833 20.5315C32.0033 20.4998 32.0139 20.463 32.0138 20.4255C32.0136 20.3879 32.0027 20.3512 31.9824 20.3197C31.9621 20.2882 31.9332 20.2631 31.8991 20.2475C31.865 20.2318 31.8271 20.2263 31.7899 20.2315L29.7899 20.5048C29.7481 20.5143 29.7042 20.5098 29.6651 20.492C29.626 20.4743 29.5938 20.4442 29.5734 20.4064C29.553 20.3687 29.5456 20.3252 29.5522 20.2828C29.5587 20.2404 29.579 20.2013 29.6099 20.1715L30.4966 19.1048C30.5275 19.075 30.5478 19.0359 30.5544 18.9934C30.561 18.951 30.5535 18.9076 30.5331 18.8698C30.5127 18.832 30.4805 18.802 30.4414 18.7842C30.4023 18.7665 30.3585 18.762 30.3166 18.7715C27.917 19.1143 25.562 19.7179 23.2933 20.5715C21.1645 21.4436 19.3411 22.9257 18.0523 24.8313C16.7635 26.7369 16.0668 28.981 16.0499 31.2815V32.3548C16.0499 37.5148 15.4999 39.4148 13.9299 41.2748C17.7002 43.4768 22.0881 44.3832 26.4223 43.8553C30.7565 43.3273 34.7985 41.3942 37.9299 38.3515V38.2981C38.4214 35.9924 38.6517 33.6387 38.6166 31.2815Z" fill="#BC5B57"/>
<path d="M32.2467 33.8181C31.9672 33.7664 31.7011 33.6587 31.4645 33.5013C31.2278 33.344 31.0255 33.1403 30.8697 32.9026C30.714 32.6649 30.608 32.3981 30.5582 32.1184C30.5084 31.8386 30.5158 31.5516 30.58 31.2747C30.724 30.7415 31.0648 30.2828 31.5337 29.9908C32.0025 29.6989 32.5646 29.5954 33.1067 29.7014L35.0767 30.0347C35.1215 30.0366 35.1662 30.0271 35.2064 30.0071C35.2466 29.987 35.2811 29.9572 35.3067 29.9203C35.3323 29.8834 35.3482 29.8406 35.3528 29.7959C35.3575 29.7513 35.3508 29.7061 35.3333 29.6647C34.0367 27.3314 30.7467 25.4514 27.3333 25.4514C23.92 25.4514 20.6267 27.3314 19.3333 29.6647C19.3088 29.7086 19.2971 29.7585 19.2997 29.8087C19.3022 29.8589 19.3189 29.9074 19.3479 29.9485C19.3768 29.9896 19.4167 30.0217 19.4631 30.0411C19.5095 30.0605 19.5604 30.0664 19.61 30.0581L21.58 29.7247C22.1221 29.6188 22.6841 29.7222 23.153 30.0141C23.6218 30.3061 23.9626 30.7649 24.1067 31.2981C24.1707 31.5761 24.1775 31.8643 24.1267 32.145C24.0759 32.4257 23.9684 32.6932 23.811 32.9311C23.6535 33.169 23.4493 33.3724 23.2107 33.5289C22.9722 33.6854 22.7043 33.7917 22.4233 33.8414L19.6967 34.2981C19.653 34.3057 19.6119 34.324 19.5771 34.3515C19.5423 34.3789 19.5149 34.4146 19.4974 34.4553C19.4799 34.496 19.4728 34.5404 19.4767 34.5845C19.4806 34.6287 19.4955 34.6711 19.52 34.7081C20.5967 36.3747 22.92 37.5148 27.3333 37.5148C31.7467 37.5148 34.07 36.3881 35.1467 34.7081C35.1711 34.6711 35.186 34.6287 35.19 34.5845C35.1939 34.5404 35.1868 34.496 35.1693 34.4553C35.1517 34.4146 35.1243 34.3789 35.0895 34.3515C35.0547 34.324 35.0137 34.3057 34.97 34.2981L32.2467 33.8181Z" fill="#FFD8C9"/>
<path d="M29.9634 33.3948C29.7075 33.6991 29.3936 33.9495 29.04 34.1314C28.509 34.3924 27.9251 34.5281 27.3334 34.5281C26.7416 34.5281 26.1578 34.3924 25.6267 34.1314" stroke="#393C54" stroke-width="3" stroke-linecap="round" stroke-linejoin="round"/>
<path d="M29.04 31.5381C29.04 32.4815 28.2767 32.9548 27.3334 32.9548C26.39 32.9548 25.6267 32.4815 25.6267 31.5381C25.6267 30.9981 29.04 30.9148 29.04 31.5381Z" fill="#393C54"/>
<path d="M21.7767 31.8248L22.7934 31.5814C22.8282 31.5723 22.8647 31.5712 22.9 31.5783C22.9353 31.5854 22.9685 31.6004 22.9971 31.6223C23.0257 31.6442 23.0489 31.6723 23.065 31.7045C23.0811 31.7367 23.0897 31.7721 23.09 31.8081C23.0905 31.9913 23.0532 32.1727 22.9804 32.3409C22.9076 32.509 22.801 32.6604 22.6671 32.7855C22.5333 32.9106 22.375 33.0068 22.2023 33.068C22.0296 33.1293 21.8462 33.1543 21.6634 33.1414C21.4603 33.1247 21.264 33.0605 21.0903 32.954C20.9166 32.8474 20.7703 32.7016 20.6634 32.5281C20.5031 32.2734 20.4352 31.9713 20.471 31.6725C20.5068 31.3737 20.6442 31.0962 20.8601 30.8865C21.076 30.6769 21.3574 30.5477 21.6571 30.5207C21.9569 30.4937 22.2568 30.5704 22.5067 30.7381C22.5352 30.759 22.5588 30.7857 22.5759 30.8166C22.593 30.8475 22.6031 30.8817 22.6057 30.9169C22.6082 30.9521 22.603 30.9875 22.5906 31.0205C22.5781 31.0535 22.5586 31.0834 22.5334 31.1081L21.7767 31.8248Z" fill="#393C54"/>
<path d="M32.8002 31.8246L33.8002 31.5813C33.835 31.5728 33.8712 31.5722 33.9062 31.5796C33.9413 31.5869 33.9742 31.602 34.0026 31.6238C34.0311 31.6455 34.0543 31.6733 34.0706 31.7052C34.0869 31.737 34.0959 31.7722 34.0968 31.8079C34.0973 31.9915 34.0599 32.1731 33.9869 32.3415C33.914 32.5099 33.807 32.6615 33.6728 32.7866C33.5386 32.9118 33.3799 33.0079 33.2068 33.0689C33.0337 33.13 32.8499 33.1546 32.6668 33.1413C32.4636 33.1251 32.2671 33.0611 32.0933 32.9545C31.9195 32.8479 31.7734 32.7018 31.6668 32.5279C31.508 32.2735 31.441 31.9723 31.4771 31.6745C31.5131 31.3767 31.6501 31.1002 31.8651 30.891C32.0801 30.6818 32.3603 30.5526 32.6589 30.5247C32.9576 30.4969 33.2569 30.5721 33.5068 30.7379C33.536 30.7582 33.5604 30.7846 33.5781 30.8154C33.5958 30.8461 33.6065 30.8804 33.6094 30.9158C33.6123 30.9512 33.6073 30.9868 33.5947 31.02C33.5822 31.0533 33.5624 31.0833 33.5368 31.1079L32.8002 31.8246Z" fill="#393C54"/>
<path d="M33.3334 12.3313H7.76003C6.58635 13.9613 5.66594 15.7594 5.03003 17.6646H33.3334C34.0406 17.6646 34.7189 17.3837 35.219 16.8836C35.7191 16.3835 36 15.7052 36 14.998C36 14.2907 35.7191 13.6124 35.219 13.1123C34.7189 12.6123 34.0406 12.3313 33.3334 12.3313Z" fill="#393C54"/>
<path d="M33.3334 17.6646C34.8062 17.6646 36.0001 16.4707 36.0001 14.998C36.0001 13.5252 34.8062 12.3313 33.3334 12.3313C31.8607 12.3313 30.6667 13.5252 30.6667 14.998C30.6667 16.4707 31.8607 17.6646 33.3334 17.6646Z" fill="#515570"/>
<path opacity="0.1" d="M33.3334 16.4349C34.1268 16.4349 34.7701 15.7916 34.7701 14.9982C34.7701 14.2047 34.1268 13.5615 33.3334 13.5615C32.5399 13.5615 31.8967 14.2047 31.8967 14.9982C31.8967 15.7916 32.5399 16.4349 33.3334 16.4349Z" stroke="white" stroke-width="2" stroke-miterlimit="10" stroke-linecap="round"/>
<path d="M7 16.6648L9.5 19.1648" stroke="#393C54" stroke-width="6" stroke-linecap="round" stroke-linejoin="round"/>
<path d="M24.6667 13.3646L27.4601 10.5713" stroke="#393C54" stroke-width="6" stroke-linecap="round" stroke-linejoin="round"/>
</svg>
