<svg width="48" height="48" viewBox="0 0 48 48" fill="none" xmlns="http://www.w3.org/2000/svg">
<rect x="0.25" y="0.25" width="47.5" height="47.5" rx="7.75" stroke="#E5DBDB" stroke-width="0.5"/>
<path d="M24.4998 42.1253C30.1953 42.1253 34.8124 37.5082 34.8124 31.8126C34.8124 26.1171 30.1953 21.5 24.4998 21.5C18.8044 21.5 14.1873 26.1171 14.1873 31.8126C14.1873 37.5082 18.8044 42.1253 24.4998 42.1253Z" fill="#E1E8ED"/>
<path d="M18.3125 16.3438C18.3125 14.7028 18.9644 13.1289 20.1248 11.9686C21.2852 10.8082 22.859 10.1563 24.5 10.1562C26.1411 10.1563 27.7149 10.8082 28.8753 11.9686C30.0357 13.1289 30.6876 14.7028 30.6876 16.3438C30.6876 17.9849 30.0357 19.5587 28.8753 20.7191C27.7149 21.8795 26.1411 22.5314 24.5 22.5314C22.859 22.5314 21.2852 21.8795 20.1248 20.7191C18.9644 19.5587 18.3125 17.9849 18.3125 16.3438Z" fill="#E1E8ED"/>
<path d="M29.6563 11.1876C29.6563 11.7346 29.439 12.2592 29.0522 12.646C28.6654 13.0328 28.1408 13.2501 27.5938 13.2501H21.4063C20.8593 13.2501 20.3346 13.0328 19.9478 12.646C19.5611 12.2592 19.3438 11.7346 19.3438 11.1876V7.06253C19.3438 6.51551 19.5611 5.9909 19.9478 5.6041C20.3346 5.2173 20.8593 5 21.4063 5H27.5938C28.1408 5 28.6654 5.2173 29.0522 5.6041C29.439 5.9909 29.6563 6.51551 29.6563 7.06253V11.1876Z" fill="#414042"/>
<path d="M31.7186 12.2188C31.7186 12.4923 31.61 12.7546 31.4166 12.948C31.2232 13.1414 30.9609 13.25 30.6873 13.25H18.3123C18.0388 13.25 17.7765 13.1414 17.5831 12.948C17.3897 12.7546 17.281 12.4923 17.281 12.2188C17.281 11.9453 17.3897 11.6829 17.5831 11.4896C17.7765 11.2962 18.0388 11.1875 18.3123 11.1875H30.6873C30.9609 11.1875 31.2232 11.2962 31.4166 11.4896C31.61 11.6829 31.7186 11.9453 31.7186 12.2188Z" fill="#231F20"/>
<path d="M29.1407 20.469H19.8593C19.4937 20.4662 19.1389 20.5933 18.8583 20.8279C18.5777 21.0624 18.3897 21.3891 18.3277 21.7495C18.2658 22.1099 18.3339 22.4806 18.52 22.7954C18.7061 23.1102 18.9981 23.3485 19.3437 23.468V30.7817C19.3437 31.0552 19.4524 31.3175 19.6458 31.5109C19.8392 31.7043 20.1015 31.8129 20.375 31.8129H21.4062C21.6797 31.8129 21.942 31.7043 22.1354 31.5109C22.3288 31.3175 22.4375 31.0552 22.4375 30.7817V23.5628H29.1407C29.5509 23.5628 29.9444 23.3999 30.2345 23.1098C30.5246 22.8197 30.6875 22.4262 30.6875 22.0159C30.6875 21.6057 30.5246 21.2122 30.2345 20.9221C29.9444 20.632 29.5509 20.469 29.1407 20.469Z" fill="#DD2E44"/>
<path d="M25.5312 29.7505C25.5375 29.8897 25.5156 30.0287 25.4668 30.1591C25.418 30.2896 25.3432 30.4088 25.247 30.5096C25.1508 30.6104 25.0352 30.6906 24.9072 30.7455C24.7792 30.8004 24.6413 30.8287 24.502 30.8289C24.3627 30.829 24.2248 30.8009 24.0967 30.7463C23.9685 30.6917 23.8527 30.6117 23.7564 30.5111C23.66 30.4105 23.585 30.2914 23.5359 30.1611C23.4868 30.0307 23.4646 29.8917 23.4707 29.7526C23.4823 29.4873 23.5958 29.2367 23.7875 29.053C23.9792 28.8693 24.2344 28.7666 24.5 28.7664C24.7655 28.7661 25.0209 28.8683 25.213 29.0516C25.4051 29.2349 25.519 29.4852 25.5312 29.7505ZM25.5312 34.9068C25.5375 35.046 25.5156 35.185 25.4668 35.3155C25.418 35.4459 25.3432 35.5651 25.247 35.6659C25.1508 35.7667 25.0352 35.847 24.9072 35.9018C24.7792 35.9567 24.6413 35.9851 24.502 35.9852C24.3627 35.9853 24.2248 35.9573 24.0967 35.9026C23.9685 35.848 23.8527 35.768 23.7564 35.6674C23.66 35.5668 23.585 35.4478 23.5359 35.3174C23.4868 35.187 23.4646 35.0481 23.4707 34.9089C23.4823 34.6436 23.5958 34.393 23.7875 34.2093C23.9792 34.0256 24.2344 33.9229 24.5 33.9227C24.7655 33.9224 25.0209 34.0246 25.213 34.2079C25.4051 34.3912 25.519 34.6416 25.5312 34.9068Z" fill="#414042"/>
<path d="M25.5312 17.375C25.5375 17.5142 25.5156 17.6532 25.4668 17.7836C25.418 17.9141 25.3432 18.0333 25.247 18.1341C25.1508 18.2349 25.0352 18.3151 24.9072 18.37C24.7792 18.4249 24.6413 18.4533 24.502 18.4534C24.3627 18.4535 24.2248 18.4254 24.0967 18.3708C23.9685 18.3162 23.8527 18.2362 23.7564 18.1356C23.66 18.035 23.585 17.916 23.5359 17.7856C23.4868 17.6552 23.4646 17.5162 23.4707 17.3771C23.4823 17.1118 23.5958 16.8612 23.7875 16.6775C23.9792 16.4938 24.2344 16.3911 24.5 16.3909C24.7655 16.3906 25.0209 16.4928 25.213 16.6761C25.4051 16.8594 25.519 17.1098 25.5312 17.375Z" fill="#F4900C"/>
<path d="M22.4373 15.3125C22.4373 15.586 22.3286 15.8483 22.1352 16.0417C21.9418 16.2351 21.6795 16.3438 21.406 16.3438C21.1325 16.3438 20.8702 16.2351 20.6768 16.0417C20.4834 15.8483 20.3748 15.586 20.3748 15.3125C20.3748 15.039 20.4834 14.7767 20.6768 14.5833C20.8702 14.3899 21.1325 14.2812 21.406 14.2812C21.6795 14.2812 21.9418 14.3899 22.1352 14.5833C22.3286 14.7767 22.4373 15.039 22.4373 15.3125ZM28.6248 15.3125C28.6248 15.586 28.5162 15.8483 28.3228 16.0417C28.1294 16.2351 27.8671 16.3438 27.5936 16.3438C27.32 16.3438 27.0577 16.2351 26.8643 16.0417C26.6709 15.8483 26.5623 15.586 26.5623 15.3125C26.5623 15.039 26.6709 14.7767 26.8643 14.5833C27.0577 14.3899 27.32 14.2812 27.5936 14.2812C27.8671 14.2812 28.1294 14.3899 28.3228 14.5833C28.5162 14.7767 28.6248 15.039 28.6248 15.3125Z" fill="#414042"/>
<path d="M16.6563 25.7088L13.0964 24.1836L12.5323 21.228C12.481 20.9592 12.3251 20.7219 12.0988 20.5681C11.8725 20.4144 11.5944 20.3568 11.3257 20.4081C11.057 20.4594 10.8196 20.6153 10.6659 20.8416C10.5121 21.0679 10.4546 21.346 10.5058 21.6147L10.809 23.2028L9.43747 22.615C9.18612 22.5072 8.90225 22.5037 8.64832 22.6053C8.39439 22.7068 8.19119 22.9051 8.08343 23.1564C7.97567 23.4078 7.97217 23.6916 8.0737 23.9456C8.17524 24.1995 8.37348 24.4027 8.62484 24.5105L9.39106 24.8384L8.30205 25.9274C8.20631 26.0232 8.13036 26.1368 8.07854 26.2619C8.02672 26.387 8.00005 26.5211 8.00005 26.6565C8.00005 26.7919 8.02672 26.926 8.07854 27.0511C8.13036 27.1762 8.20631 27.2899 8.30205 27.3856C8.3978 27.4814 8.51147 27.5573 8.63657 27.6091C8.76167 27.661 8.89575 27.6876 9.03115 27.6876C9.16656 27.6876 9.30064 27.661 9.42574 27.6091C9.55084 27.5573 9.6645 27.4814 9.76025 27.3856L11.4319 25.714L15.8436 27.6043C15.9681 27.6576 16.1018 27.6859 16.2372 27.6876C16.3726 27.6893 16.5071 27.6643 16.6328 27.614C16.7585 27.5637 16.8731 27.4892 16.97 27.3946C17.067 27.3 17.1443 27.1873 17.1977 27.0628C17.251 26.9384 17.2794 26.8046 17.281 26.6692C17.2827 26.5338 17.2577 26.3994 17.2074 26.2737C17.1571 26.148 17.0826 26.0334 16.988 25.9364C16.8935 25.8395 16.7807 25.7622 16.6563 25.7088ZM40.2947 22.5841L38.7839 22.0808L39.6657 21.1991C39.7614 21.1033 39.8374 20.9897 39.8892 20.8646C39.941 20.7395 39.9677 20.6054 39.9677 20.47C39.9677 20.3346 39.941 20.2005 39.8892 20.0754C39.8374 19.9503 39.7614 19.8366 39.6657 19.7409C39.5699 19.6451 39.4563 19.5692 39.3312 19.5174C39.2061 19.4655 39.072 19.4389 38.9366 19.4389C38.8012 19.4389 38.6671 19.4655 38.542 19.5174C38.4169 19.5692 38.3032 19.6451 38.2075 19.7409L37.433 20.5154L36.8431 18.1569C36.8102 18.0256 36.7518 17.902 36.6711 17.7933C36.5905 17.6846 36.4892 17.5928 36.3731 17.5233C36.257 17.4537 36.1283 17.4077 35.9944 17.3878C35.8605 17.368 35.724 17.3747 35.5927 17.4076C35.4614 17.4405 35.3379 17.499 35.2292 17.5796C35.1205 17.6603 35.0287 17.7616 34.9592 17.8777C34.8896 17.9938 34.8436 18.1225 34.8237 18.2564C34.8039 18.3903 34.8106 18.5267 34.8435 18.658L35.7325 22.2159L32.0199 25.9285C31.8267 26.122 31.7183 26.3843 31.7184 26.6578C31.7186 26.9312 31.8275 27.1934 32.021 27.3867C32.2145 27.5799 32.4768 27.6883 32.7503 27.6882C33.0237 27.688 33.2859 27.5791 33.4792 27.3856L37.1535 23.7112L39.642 24.5414C39.7705 24.5843 39.9062 24.6014 40.0413 24.5918C40.1765 24.5822 40.3084 24.5461 40.4296 24.4856C40.5508 24.425 40.6588 24.3411 40.7476 24.2388C40.8364 24.1365 40.9041 24.0177 40.947 23.8891C40.9899 23.7606 41.007 23.6249 40.9974 23.4898C40.9878 23.3546 40.9517 23.2227 40.8912 23.1015C40.8306 22.9803 40.7467 22.8723 40.6444 22.7835C40.5421 22.6947 40.4233 22.6269 40.2947 22.5841Z" fill="#FFAC33"/>
</svg>
