<svg width="49" height="49" viewBox="0 0 49 49" fill="none" xmlns="http://www.w3.org/2000/svg">
<rect x="0.25" y="0.25" width="48.25" height="48.25" rx="7.75" stroke="#E5DBDB" stroke-width="0.5"/>
<mask id="mask0_1170_5228" style="mask-type:luminance" maskUnits="userSpaceOnUse" x="8" y="8" width="33" height="33">
<path d="M24.375 40.625C33.3496 40.625 40.625 33.3496 40.625 24.375C40.625 15.4004 33.3496 8.125 24.375 8.125C15.4004 8.125 8.125 15.4004 8.125 24.375C8.125 33.3496 15.4004 40.625 24.375 40.625Z" fill="white"/>
</mask>
<g mask="url(#mask0_1170_5228)">
<path d="M24.375 40.625C33.3496 40.625 40.625 33.3496 40.625 24.375C40.625 15.4004 33.3496 8.125 24.375 8.125C15.4004 8.125 8.125 15.4004 8.125 24.375C8.125 33.3496 15.4004 40.625 24.375 40.625Z" fill="#FF9166"/>
</g>
<mask id="mask1_1170_5228" style="mask-type:luminance" maskUnits="userSpaceOnUse" x="8" y="8" width="33" height="33">
<path d="M24.375 40.625C33.3496 40.625 40.625 33.3496 40.625 24.375C40.625 15.4004 33.3496 8.125 24.375 8.125C15.4004 8.125 8.125 15.4004 8.125 24.375C8.125 33.3496 15.4004 40.625 24.375 40.625Z" fill="white"/>
</mask>
<g mask="url(#mask1_1170_5228)">
<path d="M18.4753 42.1821L18.9814 37.7947L16.3669 41.8908L16.6076 42.0655L16.5229 42.1821H18.4753Z" fill="#6BB9BF"/>
</g>
<mask id="mask2_1170_5228" style="mask-type:luminance" maskUnits="userSpaceOnUse" x="8" y="8" width="33" height="33">
<path d="M24.375 40.625C33.3496 40.625 40.625 33.3496 40.625 24.375C40.625 15.4004 33.3496 8.125 24.375 8.125C15.4004 8.125 8.125 15.4004 8.125 24.375C8.125 33.3496 15.4004 40.625 24.375 40.625Z" fill="white"/>
</mask>
<g mask="url(#mask2_1170_5228)">
<path d="M33.5166 42.0657L33.7226 41.9163L33.4283 41.3939L31.2004 37.885L31.5318 40.7772C31.5819 41.2149 31.6248 41.6875 31.6609 42.1824H33.6013L33.5166 42.0657Z" fill="#6BB9BF"/>
</g>
<mask id="mask3_1170_5228" style="mask-type:luminance" maskUnits="userSpaceOnUse" x="8" y="8" width="33" height="33">
<path d="M24.375 40.625C33.3496 40.625 40.625 33.3496 40.625 24.375C40.625 15.4004 33.3496 8.125 24.375 8.125C15.4004 8.125 8.125 15.4004 8.125 24.375C8.125 33.3496 15.4004 40.625 24.375 40.625Z" fill="white"/>
</mask>
<g mask="url(#mask3_1170_5228)">
<path d="M15.3183 39.3721L34.2852 39.1776C34.2852 39.1776 42.3099 12.1863 24.2184 12.1863C6.56369 12.1863 15.3183 39.3721 15.3183 39.3721Z" fill="#562307"/>
<path d="M17.8578 41.0112C18.1767 40.4162 18.5439 39.847 18.9506 39.3102C20.3723 37.4327 21.9087 36.4446 21.9366 36.4267C22.5296 36.0539 22.7095 35.2711 22.3379 34.6767C21.9656 34.0813 21.1814 33.9004 20.5862 34.2725C20.5099 34.3201 18.6959 35.4673 16.9892 37.6888C16.2153 38.6966 15.5607 39.8228 15.0527 41.0112H17.8578Z" fill="#FFB37F"/>
<path d="M27.7686 36.4269C27.7965 36.4444 29.3329 37.4327 30.7548 39.3102C31.1633 39.8495 31.5273 40.4181 31.8427 41.0112H34.6287C34.1407 39.8353 33.5073 38.7191 32.7159 37.689C31.0093 35.4671 29.1953 34.3204 29.1192 34.2725C28.5236 33.9004 27.7394 34.0813 27.3673 34.6769C26.9957 35.2713 27.1754 36.0539 27.7686 36.4269Z" fill="#FFC695"/>
<path d="M31.2541 41.0114C30.9315 36.7388 30.0266 35.4496 29.2542 34.6072C28.5339 33.8213 26.081 32.6348 24.7936 32.9806C23.5061 32.6348 21.053 33.8213 20.3329 34.6072C19.5609 35.4496 18.9634 36.7388 18.8088 41.0114H31.2541Z" fill="#F29555"/>
<path d="M31.2109 41.0112C31.167 40.1153 31.0931 39.3483 30.9807 38.6915C30.9807 38.6915 30.0054 37.5238 24.7531 37.6213C20.231 37.7052 18.9623 38.6915 18.9623 38.6915C18.8935 39.3483 18.8418 40.1151 18.8093 41.0112H31.2109Z" fill="#FF0000"/>
<path d="M18.0293 41.0113L18.8047 39.7965L18.6643 41.0113H21.3488V33.9253C21.3488 33.9253 17.9445 34.7034 15.5615 39.4208L17.6248 41.0113H18.0293Z" fill="#3281A0"/>
<path d="M18.3677 41.0111L18.4292 40.9261L15.3588 38.6982L14.4451 39.9579L15.8963 41.0111H18.3677Z" fill="#4198C4"/>
<path d="M22.0367 41.0113V33.293L20.7576 33.7308V41.0113H22.0367Z" fill="#4198C4"/>
<path d="M31.2396 41.0113L31.0996 39.7965L31.8749 41.0113H32.2796L34.3429 39.4208C31.9597 34.7034 28.5554 33.9253 28.5554 33.9253V41.0113H31.2396Z" fill="#3281A0"/>
<path d="M34.008 41.0111L35.4592 39.9579L34.5453 38.6982L31.4751 40.9261L31.5367 41.0111H34.008Z" fill="#4198C4"/>
<path d="M29.1463 41.0113V33.7308L27.8672 33.293V41.0113H29.1463Z" fill="#4198C4"/>
<path d="M24.9408 16.1013C22.7385 16.2035 20.4536 16.8104 18.8129 17.9304C16.3956 19.5804 15.5065 23.0268 15.8597 25.6626C16.7883 32.5991 23.4385 34.1295 24.9408 34.2505V16.1013Z" fill="#FFC695"/>
<path d="M24.7925 16.1013C26.9944 16.2033 29.1336 16.8104 30.7744 17.9304C33.1918 19.5804 33.5988 23.0083 33.4359 25.6626C33.2154 29.2565 29.3246 34.1197 24.7925 34.2505V16.1013Z" fill="#FFC695"/>
<path d="M20.3982 26.7778C20.921 26.7778 21.3447 26.3541 21.3447 25.8313C21.3447 25.3085 20.921 24.8848 20.3982 24.8848C19.8754 24.8848 19.4517 25.3085 19.4517 25.8313C19.4517 26.3541 19.8754 26.7778 20.3982 26.7778Z" fill="#333331"/>
<path d="M29.1887 26.7778C29.7115 26.7778 30.1353 26.3541 30.1353 25.8313C30.1353 25.3085 29.7115 24.8848 29.1887 24.8848C28.666 24.8848 28.2422 25.3085 28.2422 25.8313C28.2422 26.3541 28.666 26.7778 29.1887 26.7778Z" fill="#333331"/>
<path d="M26.1552 28.0947C26.1552 28.4976 25.8145 28.8242 25.3943 28.8242H24.1925C23.7722 28.8242 23.4316 28.4977 23.4316 28.0947C23.4316 27.6919 23.7722 27.3652 24.1925 27.3652H25.3943C25.8145 27.3652 26.1552 27.6919 26.1552 28.0947Z" fill="#F29555"/>
<path d="M26.7686 29.7517C26.5297 29.722 26.3123 29.8901 26.2804 30.1278C26.2637 30.2416 26.0864 31.1456 24.7936 31.2072C23.5006 31.1456 23.3232 30.2416 23.3065 30.1278C23.2746 29.8901 23.0574 29.722 22.8185 29.7517C22.5786 29.7817 22.4084 30.0005 22.4382 30.2402C22.5175 30.8733 23.1134 32.0068 24.7693 32.0788V32.0823C24.778 32.0821 24.7855 32.0809 24.794 32.0805C24.8025 32.0807 24.8097 32.0819 24.8182 32.0823V32.0788C26.4742 32.0066 27.0701 30.8733 27.1494 30.2402C27.1787 30.0005 27.0085 29.7815 26.7686 29.7517Z" fill="#FF0000"/>
<path d="M20.4251 20.0649C20.4251 20.0649 26.2609 25.4633 33.7019 24.4418C33.7019 24.4418 34.4312 14.5205 24.5103 14.5205C14.589 14.5205 15.9675 22.8004 15.9675 22.8004C15.9675 22.8004 17.7988 22.3993 20.4251 20.0649Z" fill="#74320A"/>
<path d="M20.6806 19.1032L18.8772 15.0212L17.0227 17.6051L16.9663 17.5194L13.77 17.2408L15.6919 21.2684L17.5312 18.641L20.6806 19.1032Z" fill="#FF0000"/>
</g>
</svg>
