<svg width="48" height="48" viewBox="0 0 48 48" fill="none" xmlns="http://www.w3.org/2000/svg">
<rect x="0.25" y="0.25" width="47.5" height="47.5" rx="7.75" stroke="#E5DBDB" stroke-width="0.5"/>
<g clip-path="url(#clip0_1731_7550)">
<path d="M11.7676 26.1401V8.1647C11.7676 7.81169 12.0537 7.52539 12.4069 7.52539C12.6641 7.52539 12.8963 7.67956 12.9961 7.91656L17.0861 17.6305L11.7676 26.1401Z" fill="#B47D5A"/>
<path d="M29.4143 16.9516C29.4143 16.9516 34.7968 6.85938 36.1424 7.53221C36.7442 7.83307 36.8152 14.2603 34.7968 22.334L29.4143 16.9516Z" fill="#B47D5A"/>
<path d="M24 12.844C17.3256 12.8499 11.7676 14.6983 11.7676 25.7434C11.7676 30.0823 12.5596 34.3809 14.4268 36.6745C17.3065 40.2117 21.9403 40.4974 24.0001 40.5001C26.0599 40.4974 30.6936 40.2118 33.5734 36.6745C35.4406 34.3809 36.2326 30.0823 36.2326 25.7434C36.2326 14.6982 30.6745 12.8498 24 12.844Z" fill="#FFA54B"/>
<path d="M31.5351 38.5126C29.0483 38.6321 27.191 36.7771 27.191 36.7771H24H20.8089C20.8089 36.7771 18.9517 38.6321 16.4648 38.5126C19.165 40.3131 22.3787 40.4979 24 40.5C25.6213 40.4979 28.8351 40.3131 31.5351 38.5126Z" fill="#FFDEB7"/>
<path d="M12.6653 19.296C13.8147 19.0416 15.133 19.74 15.4906 21.8853C16.0224 25.0764 17.9317 30.862 22.8273 31.6922H24.0001V12.844C18.9235 12.8484 14.4957 13.9237 12.6653 19.296Z" fill="#C3875A"/>
<path d="M35.3348 19.296C34.1854 19.0416 32.8671 19.74 32.5095 21.8853C31.9777 25.0764 30.0684 30.862 25.1728 31.6922H24V12.844C29.0765 12.8484 33.5044 13.9237 35.3348 19.296Z" fill="#C3875A"/>
<path d="M20.2771 36.1057C20.2771 37.8681 21.9439 39.2968 24 39.2968C26.0561 39.2968 27.723 37.8681 27.723 36.1057H20.2771Z" fill="#FFCDA5"/>
<path d="M21.3408 36.1057C21.3408 36.9869 22.5314 37.7012 24.0001 37.7012C25.4687 37.7012 26.6594 36.9869 26.6594 36.1057H21.3408Z" fill="#B47D5A"/>
<path d="M12.5652 26.6717C13.2995 26.6717 13.8948 25.6001 13.8948 24.2783C13.8948 22.9565 13.2995 21.885 12.5652 21.885C11.8309 21.885 11.2356 22.9565 11.2356 24.2783C11.2356 25.6001 11.8309 26.6717 12.5652 26.6717Z" fill="#464655"/>
<path d="M35.4346 26.6717C36.1689 26.6717 36.7642 25.6001 36.7642 24.2783C36.7642 22.9565 36.1689 21.885 35.4346 21.885C34.7003 21.885 34.105 22.9565 34.105 24.2783C34.105 25.6001 34.7003 26.6717 35.4346 26.6717Z" fill="#464655"/>
<path d="M23.9999 29.1919C21.807 29.1919 18.6814 32.383 18.6814 34.5104C18.6814 36.1059 19.7451 37.7014 21.3407 37.7014C22.6152 37.7014 23.3116 37.1255 23.6683 36.3225C23.7266 36.1911 23.8562 36.1058 23.9999 36.1058C24.1437 36.1058 24.2732 36.191 24.3316 36.3225C24.6882 37.1255 25.3846 37.7014 26.6592 37.7014C28.2547 37.7014 29.3185 36.1059 29.3185 34.5104C29.3183 32.383 26.1927 29.1919 23.9999 29.1919Z" fill="#FFDEB7"/>
<path d="M23.9998 33.9787C25.4685 33.9787 26.6591 32.7881 26.6591 31.3194C26.6591 29.8508 25.4685 28.6602 23.9998 28.6602C22.5312 28.6602 21.3406 29.8508 21.3406 31.3194C21.3406 32.7881 22.5312 33.9787 23.9998 33.9787Z" fill="#FFA54B"/>
<path d="M26.1134 31.0691C25.6844 30.9823 25.2606 31.2599 25.1728 31.6921C25.0602 32.2465 24.5667 32.6488 24 32.6488C23.4334 32.6488 22.94 32.2466 22.8273 31.6921C22.7395 31.2599 22.3152 30.9829 21.8867 31.0691C21.4551 31.1569 21.1762 31.5781 21.264 32.0099C21.4717 33.0336 22.2382 33.827 23.2022 34.1177V34.5102C23.2022 34.951 23.5596 35.308 24 35.308C24.4405 35.308 24.7978 34.951 24.7978 34.5102V34.1177C25.7619 33.827 26.5283 33.0336 26.7361 32.0099C26.8239 31.5781 26.545 31.1569 26.1134 31.0691Z" fill="#B47D5A"/>
</g>
<defs>
<clipPath id="clip0_1731_7550">
<rect width="33" height="33" fill="white" transform="translate(7.5 7.5)"/>
</clipPath>
</defs>
</svg>
