<svg width="49" height="49" viewBox="0 0 49 49" fill="none" xmlns="http://www.w3.org/2000/svg">
<rect x="0.25" y="0.25" width="48.25" height="48.25" rx="7.75" stroke="#E5DBDB" stroke-width="0.5"/>
<path d="M24.8828 46.7568C30.5053 46.7646 35.9318 44.6917 40.1172 40.9373L39.2069 38.774C38.5557 37.2506 36.838 36.2451 34.907 36.2451H14.8624C12.9314 36.2451 11.2138 37.2582 10.5625 38.774L9.64844 40.9373C13.8338 44.6917 19.2603 46.7646 24.8828 46.7568Z" fill="#515570"/>
<path d="M36.7846 22.5075C36.7846 24.1757 36.956 25.5277 35.2878 25.5277C34.4868 25.5277 33.7186 25.2095 33.1522 24.6431C32.5858 24.0767 32.2676 23.3085 32.2676 22.5075C32.2676 21.7065 32.5858 20.9383 33.1522 20.3719C33.7186 19.8055 34.4868 19.4873 35.2878 19.4873C36.956 19.4873 36.7846 20.8394 36.7846 22.5075Z" fill="#393C54"/>
<path d="M17.498 22.5075C17.498 22.9041 17.4199 23.2969 17.2681 23.6633C17.1164 24.0297 16.8939 24.3627 16.6134 24.6431C16.333 24.9236 16 25.1461 15.6336 25.2978C15.2672 25.4496 14.8745 25.5277 14.4778 25.5277C12.8097 25.5277 12.9811 24.1757 12.9811 22.5075C12.9811 20.8394 12.8097 19.4873 14.4778 19.4873C15.2788 19.4873 16.047 19.8055 16.6134 20.3719C17.1798 20.9383 17.498 21.7065 17.498 22.5075Z" fill="#393C54"/>
<path d="M24.8829 35.8148C23.4663 35.8153 22.0635 35.5367 20.7547 34.9948C19.4458 34.453 18.2566 33.6585 17.2549 32.6568C16.2533 31.6552 15.4588 30.4659 14.9169 29.1571C14.3751 27.8483 14.0964 26.4455 14.0969 25.0289V19.4607C14.0969 13.5041 18.9262 9.81738 24.8829 9.81738C30.8395 9.81738 35.6688 13.5041 35.6688 19.4607V25.0289C35.6693 26.4455 35.3907 27.8483 34.8488 29.1571C34.3069 30.4659 33.5125 31.6552 32.5108 32.6568C31.5091 33.6585 30.3199 34.453 29.0111 34.9948C27.7022 35.5367 26.2994 35.8153 24.8829 35.8148Z" fill="#FFD8C9"/>
<path d="M21.9921 30.7493C21.9834 30.7011 21.985 30.6517 21.9968 30.6042C22.0086 30.5567 22.0303 30.5122 22.0605 30.4737C22.0908 30.4352 22.1288 30.4036 22.1721 30.3808C22.2155 30.3581 22.2632 30.3448 22.312 30.3418H27.4536C27.5025 30.3448 27.5501 30.3581 27.5935 30.3808C27.6368 30.4036 27.6749 30.4352 27.7051 30.4737C27.7353 30.5122 27.757 30.5567 27.7688 30.6042C27.7806 30.6517 27.7822 30.7011 27.7735 30.7493" stroke="#393C54" stroke-linecap="round" stroke-linejoin="round"/>
<path opacity="0.1" d="M35.1318 25.0098C33.887 25.1525 32.7388 25.7502 31.9079 26.688C31.0769 27.6258 30.6218 28.8375 30.63 30.0904V31.8005" stroke="#515570" stroke-linecap="round" stroke-linejoin="round"/>
<path opacity="0.1" d="M14.6338 25.0098C15.8786 25.1525 17.0267 25.7502 17.8577 26.688C18.6886 27.6258 19.1437 28.8375 19.1355 30.0904V31.8005" stroke="#515570" stroke-linecap="round" stroke-linejoin="round"/>
<path d="M13.8379 25.2116L24.3801 27.5806C24.71 27.6529 25.0518 27.6529 25.3817 27.5806L35.9277 25.2116V8.1377C35.9277 8.06697 35.908 7.99763 35.8709 7.93747C35.8337 7.8773 35.7805 7.82868 35.7172 7.79704C35.6539 7.76541 35.5831 7.75202 35.5127 7.75838C35.4422 7.76473 35.3749 7.79057 35.3184 7.83301L31.5098 10.6704C31.5098 10.6704 29.1789 8.46143 24.8866 8.46143C22.3713 8.43679 19.9292 9.30752 17.9969 10.918L14.4663 7.90918C14.411 7.86186 14.3432 7.83138 14.2711 7.82137C14.199 7.81135 14.1255 7.82222 14.0594 7.85268C13.9933 7.88314 13.9373 7.93192 13.898 7.99323C13.8587 8.05454 13.8379 8.12583 13.8379 8.19863V25.2116Z" fill="#393C54"/>
<path d="M18.0769 21.4868L21.7902 22.3438C21.7399 22.5925 21.6403 22.8286 21.4974 23.0383C21.3544 23.248 21.171 23.4271 20.9579 23.5649C20.7448 23.7027 20.5063 23.7965 20.2565 23.8408C20.0066 23.8852 19.7504 23.8791 19.5029 23.823C19.2554 23.7669 19.0216 23.6619 18.8152 23.5142C18.6089 23.3664 18.4342 23.1789 18.3013 22.9627C18.1685 22.7465 18.0802 22.5059 18.0416 22.255C18.0031 22.0042 18.0151 21.7482 18.0769 21.5021V21.4868Z" fill="white"/>
<path d="M19.9317 23.0064C20.5038 23.0064 20.9676 22.5426 20.9676 21.9705C20.9676 21.3984 20.5038 20.9346 19.9317 20.9346C19.3596 20.9346 18.8958 21.3984 18.8958 21.9705C18.8958 22.5426 19.3596 23.0064 19.9317 23.0064Z" fill="#393C54"/>
<path opacity="0.4" d="M21.9729 22.3705L17.8901 21.4412" stroke="#515570" stroke-linecap="round" stroke-linejoin="round"/>
<path d="M21.9729 21.9896L17.8901 21.0603" stroke="#515570" stroke-linecap="round" stroke-linejoin="round"/>
<path d="M30.2149 42.0798C30.2509 42.0584 30.2789 42.0258 30.2945 41.9869C30.3101 41.948 30.3124 41.9051 30.3011 41.8647C30.2899 41.8244 30.2656 41.7889 30.2321 41.7638C30.1986 41.7386 30.1578 41.7252 30.1159 41.7256H27.0347C26.9819 41.7253 26.9301 41.7407 26.886 41.7698C26.842 41.799 26.8076 41.8406 26.7872 41.8894C26.7118 42.0723 26.5924 42.2337 26.4396 42.3593C26.2867 42.4849 26.1052 42.5707 25.9112 42.6092L25.5303 42.6892C25.5123 42.693 25.4937 42.6932 25.4756 42.6897C25.4575 42.6862 25.4402 42.6791 25.425 42.6688C25.4097 42.6585 25.3966 42.6452 25.3866 42.6297C25.3765 42.6142 25.3697 42.5969 25.3666 42.5787L25.2637 42.0417C25.2616 42.0359 25.2577 42.0308 25.2526 42.0273C25.2475 42.0237 25.2414 42.0218 25.2352 42.0218C25.2289 42.0218 25.2229 42.0237 25.2178 42.0273C25.2127 42.0308 25.2088 42.0359 25.2066 42.0417L25.1 42.2931C24.9671 42.2626 24.8291 42.2626 24.6962 42.2931L24.5896 42.0417C24.5874 42.0359 24.5835 42.0308 24.5784 42.0273C24.5733 42.0237 24.5673 42.0218 24.561 42.0218C24.5548 42.0218 24.5488 42.0237 24.5436 42.0273C24.5385 42.0308 24.5346 42.0359 24.5325 42.0417L24.4296 42.5787C24.4265 42.5969 24.4197 42.6142 24.4096 42.6297C24.3996 42.6452 24.3865 42.6585 24.3713 42.6688C24.356 42.6791 24.3387 42.6862 24.3206 42.6897C24.3025 42.6932 24.2839 42.693 24.2659 42.6892L23.885 42.6092C23.691 42.5707 23.5095 42.4849 23.3566 42.3593C23.2038 42.2337 23.0844 42.0723 23.009 41.8894C22.9887 41.8406 22.9542 41.799 22.9102 41.7698C22.8661 41.7407 22.8143 41.7253 22.7615 41.7256H19.6613C19.6194 41.7252 19.5786 41.7386 19.5451 41.7638C19.5116 41.7889 19.4873 41.8244 19.476 41.8647C19.4647 41.9051 19.4671 41.948 19.4827 41.9869C19.4983 42.0258 19.5262 42.0584 19.5623 42.0798C19.8812 42.2623 20.1483 42.5232 20.3382 42.8378C20.5282 43.1524 20.6347 43.5102 20.6477 43.8775C20.6474 43.9044 20.653 43.931 20.664 43.9556C20.675 43.9802 20.6912 44.0021 20.7114 44.0198C20.7317 44.0375 20.7556 44.0507 20.7814 44.0583C20.8072 44.066 20.8343 44.0679 20.861 44.0641C21.6124 43.9532 22.3792 44.013 23.1043 44.2393C23.7641 44.4979 24.3299 44.9508 24.7267 45.538C24.7443 45.5631 24.7676 45.5837 24.7948 45.5979C24.822 45.612 24.8522 45.6194 24.8829 45.6194C24.9135 45.6194 24.9437 45.612 24.9709 45.5979C24.9981 45.5837 25.0215 45.5631 25.039 45.538C25.4359 44.9508 26.0016 44.4979 26.6615 44.2393C27.3866 44.013 28.1533 43.9532 28.9047 44.0641C28.9314 44.0679 28.9586 44.066 28.9844 44.0583C29.0102 44.0507 29.034 44.0375 29.0543 44.0198C29.0746 44.0021 29.0908 43.9802 29.1018 43.9556C29.1128 43.931 29.1183 43.9044 29.118 43.8775C29.1322 43.5091 29.2405 43.1505 29.4325 42.8359C29.6245 42.5212 29.8938 42.2609 30.2149 42.0798Z" fill="#F8DC25"/>
<path d="M31.6887 21.4868L27.9753 22.3438C28.0257 22.5925 28.1253 22.8286 28.2682 23.0383C28.4111 23.248 28.5945 23.4271 28.8076 23.5649C29.0207 23.7027 29.2592 23.7965 29.5091 23.8408C29.759 23.8852 30.0152 23.8791 30.2627 23.823C30.5102 23.7669 30.744 23.6619 30.9504 23.5142C31.1567 23.3664 31.3314 23.1789 31.4643 22.9627C31.5971 22.7465 31.6854 22.5059 31.724 22.255C31.7625 22.0042 31.7505 21.7482 31.6887 21.5021V21.4868Z" fill="white"/>
<path d="M29.8569 22.9684C30.4101 22.9684 30.8585 22.5199 30.8585 21.9667C30.8585 21.4135 30.4101 20.9651 29.8569 20.9651C29.3037 20.9651 28.8552 21.4135 28.8552 21.9667C28.8552 22.5199 29.3037 22.9684 29.8569 22.9684Z" fill="#393C54"/>
<path opacity="0.4" d="M27.7925 22.3705L31.8753 21.4412" stroke="#515570" stroke-linecap="round" stroke-linejoin="round"/>
<path d="M27.7925 21.9896L31.8753 21.0603" stroke="#515570" stroke-linecap="round" stroke-linejoin="round"/>
<path d="M35.9276 36.2451V25.0098L34.0233 25.5277L32.976 30.2085C32.7964 31.0117 32.4539 31.7695 31.9698 32.435C31.4857 33.1006 30.8702 33.6598 30.1614 34.078L29.3464 34.4322C27.9387 35.0476 26.419 35.3652 24.8827 35.3652C23.3464 35.3652 21.8267 35.0476 20.419 34.4322L19.604 34.078C18.8952 33.6598 18.2797 33.1006 17.7956 32.435C17.3115 31.7695 16.969 31.0117 16.7895 30.2085L15.7421 25.5277L13.8378 25.0098V36.2451L7.56885 38.774L8.09062 39.3644C9.96307 41.3969 12.1875 43.0743 14.6566 44.3155L22.0263 39.3644C22.88 38.8209 23.8707 38.5316 24.8827 38.5303C25.8762 38.5292 26.8555 38.7655 27.7392 39.2196L35.1164 44.3003C37.5438 43.0805 39.7359 41.4403 41.591 39.4558C41.8043 39.2234 42.01 38.9949 42.2042 38.774L35.9276 36.2451Z" fill="#393C54"/>
<path d="M23.3594 33.7696C23.8064 33.4584 24.3381 33.2915 24.8828 33.2915C25.4275 33.2915 25.9592 33.4584 26.4062 33.7696" stroke="#FBC0AA" stroke-linecap="round" stroke-linejoin="round"/>
<path d="M24.8828 23.532V26.6589C24.8825 26.6881 24.8756 26.7168 24.8626 26.743C24.8496 26.7692 24.8309 26.7921 24.8079 26.81C24.7848 26.828 24.758 26.8405 24.7294 26.8466C24.7009 26.8528 24.6713 26.8524 24.6429 26.8455L23.2642 26.4646C23.2374 26.4564 23.2127 26.4425 23.1917 26.4239C23.1708 26.4052 23.1542 26.3823 23.1429 26.3566C23.1317 26.3309 23.1262 26.3031 23.1267 26.2751C23.1273 26.247 23.1339 26.2195 23.1461 26.1942L24.521 23.4406C24.5401 23.4011 24.5722 23.3693 24.612 23.3507C24.6517 23.3321 24.6967 23.3278 24.7393 23.3386C24.7818 23.3493 24.8194 23.3744 24.8455 23.4097C24.8717 23.445 24.8849 23.4882 24.8828 23.532Z" fill="#515570"/>
</svg>
