<svg width="49" height="49" viewBox="0 0 49 49" fill="none" xmlns="http://www.w3.org/2000/svg">
<rect x="0.25" y="0.25" width="48.25" height="48.25" rx="7.75" stroke="#E5DBDB" stroke-width="0.5"/>
<mask id="mask0_1170_5179" style="mask-type:alpha" maskUnits="userSpaceOnUse" x="5" y="5" width="38" height="38">
<circle cx="24" cy="24" r="19" fill="#D9D9D9"/>
</mask>
<g mask="url(#mask0_1170_5179)">
</g>
<path d="M30.6124 8.197C29.9093 7.03137 28.5749 6.3595 27.1343 6.44387C25.6937 6.52825 24.4468 7.35637 23.8874 8.60012C23.5437 9.35637 23.403 10.2751 23.4562 11.4064C23.5062 12.4751 23.4468 12.7501 22.7062 13.2532C21.6124 14.0001 21.1374 15.072 21.4624 16.047C21.7718 16.9782 22.7249 17.572 23.9405 17.622C24.0593 17.6282 24.178 17.6251 24.303 17.622C26.878 17.5032 28.8062 16.4157 30.0374 14.3876C30.0687 14.3345 30.0937 14.297 30.1124 14.2689C31.1812 12.697 31.7218 10.0345 30.6124 8.197Z" fill="#543930"/>
<path d="M31.1062 11.7969C30.9749 12.7969 30.3781 13.8813 30.1124 14.2657C30.0937 14.2938 30.0718 14.3344 30.0374 14.3844C28.8062 16.4125 26.8781 17.5032 24.3031 17.6219C24.1812 17.6282 24.0624 17.6282 23.9437 17.625C22.7281 17.575 21.7374 16.9907 21.4656 16.0469C21.0968 14.7625 21.9406 13.7844 22.4468 13.4469C23.2249 12.9282 23.5374 12.675 23.4749 11.5969C23.9187 15.6907 30.8906 12.8188 31.0749 11.9782C31.0843 11.9188 31.0968 11.8594 31.1062 11.7969Z" fill="url(#paint0_radial_1170_5179)"/>
<path d="M31.5094 14.0689C31.6969 13.9533 31.9406 14.0001 32.0656 14.1814C32.7219 15.1314 34.4688 18.297 33.8063 24.3283C33.375 28.2439 31.1563 33.897 30.4031 35.7283C30.378 35.7901 30.3382 35.8448 30.2872 35.8879C30.2362 35.9309 30.1755 35.9609 30.1104 35.9754C30.0453 35.9898 29.9776 35.9883 29.9132 35.9708C29.8488 35.9533 29.7896 35.9205 29.7406 35.8751C28.9844 35.1845 27.1375 34.0189 23.775 34.8001C22.7094 35.047 19.3844 38.3783 16.7125 35.3783C15.0625 33.5251 16.2656 32.4376 16.2813 29.772C16.2969 26.3408 12.8438 25.2876 11.7156 24.7251C11.4281 24.5814 11.4063 24.1845 11.675 24.0095C12.9844 23.1595 14.8219 22.7595 17.1313 20.922C20.0625 18.5939 20.0875 16.4126 20.6875 15.6564C20.9906 15.2751 23.3781 14.2033 23.3781 14.2033C23.3781 14.2033 25.0469 14.647 25.1281 14.6783L28.1063 15.9939C28.225 16.0376 28.3594 16.0251 28.4688 15.9564L31.5094 14.0689Z" fill="url(#paint1_linear_1170_5179)"/>
<path d="M32.2625 27.0813C33.9531 21.8469 32.7281 17.5469 32.7281 17.5469C32.7281 17.5469 27.7656 19.3 27.7531 19.5031C27.7406 19.7063 24.5281 27.35 24.5281 27.35C24.5281 27.35 22.1875 33.6781 19.2188 36.625C21.3469 36.3938 23.0687 34.9656 23.775 34.8031C25.9906 34.2875 27.5437 34.6188 28.5656 35.1031C29.125 34.2125 31.075 30.7594 32.2625 27.0813Z" fill="url(#paint2_radial_1170_5179)"/>
<path d="M25.2408 17.6846L23.6564 16.9658C23.6564 16.9658 21.1439 22.7002 19.872 24.6783C18.597 26.6564 16.2783 29.7721 16.2783 29.7721C16.2814 32.4377 15.0595 33.5283 16.7126 35.3814C16.822 35.5064 16.9376 35.6158 17.0501 35.7189C18.1095 34.4471 19.8595 31.9627 21.172 30.1002C24.7189 25.0658 25.2408 17.6846 25.2408 17.6846Z" fill="url(#paint3_linear_1170_5179)"/>
<path d="M36.3563 11.6658C36.0407 10.8064 34.4969 8.34082 34.4969 8.34082L32.7032 9.2002L33.4157 12.2814L30.2063 14.9533C28.8794 14.6466 27.5067 14.5915 26.1594 14.7908C25.2407 14.7221 22.6282 14.7533 21.6407 17.1564L20.2094 20.5627L19.05 20.9658C18.7282 21.6377 19.7844 22.2439 20.4563 22.5627C21.1282 22.8846 21.7063 22.6346 22.2563 21.9252C22.5844 21.5002 23.3469 20.3096 23.9032 19.4252C24.0282 20.3721 24.1157 21.5283 24.1219 22.9346L26.725 24.1877L29.8938 24.3221C31.05 21.7064 31.6469 19.7158 31.95 18.3064C32.9969 17.1252 35.7094 14.0564 36.0594 13.5689C36.4907 12.9689 36.6719 12.5252 36.3563 11.6658Z" fill="url(#paint4_linear_1170_5179)"/>
<path d="M17.0033 16.122C17.1876 15.7845 17.7658 15.5533 18.1814 15.4251C18.4345 15.347 18.7033 15.4783 18.8033 15.7189L19.4189 17.1939C19.4939 17.3751 19.4595 17.5845 19.3283 17.7345L18.7501 18.3845C18.9626 18.672 19.2283 18.9033 19.5345 19.0876C20.0564 19.4033 20.5783 19.3908 20.6314 19.4345C21.2939 19.9689 21.7876 20.5939 21.4001 21.6189C21.0158 22.6376 19.6908 22.3251 19.6908 22.3251C19.6908 22.3251 18.3314 21.3689 17.4564 19.2939C17.172 18.6283 16.6189 16.8189 17.0033 16.122Z" fill="url(#paint5_linear_1170_5179)"/>
<path d="M20.4625 29.9407C20.4625 29.9407 18.7312 31.5501 18.6031 32.272C18.3906 33.4689 19.4031 34.5751 19.9281 34.147C21.0687 33.222 21.3781 32.0751 21.9437 31.2439C22.5062 30.4126 21.2125 29.1814 20.4625 29.9407Z" fill="url(#paint6_linear_1170_5179)"/>
<path d="M26.3126 24.9156L26.2345 25.1281C26.0938 24.6094 25.7626 24.1344 25.3126 23.8937C25.3126 23.8937 23.5063 23.2969 23.0532 24.1375C23.0532 24.1375 20.8876 27.55 20.5438 28.5C20.197 29.45 20.2095 30.225 21.022 30.7281C21.6782 31.1312 22.5595 30.9375 23.3657 30.0219C23.7282 29.6094 24.5657 28.35 25.2032 27.3719C25.3032 27.2156 25.5438 27.3375 25.4782 27.5125L21.6907 37.4844L23.3813 38.5594C23.3813 38.5594 28.4126 30.5188 29.1532 28.9812C29.8938 27.4375 30.1563 25.1844 30.1563 25.1844L26.3126 24.9156Z" fill="url(#paint7_linear_1170_5179)"/>
<path opacity="0.4" d="M23.1375 24.0155L23.7625 22.9968C23.85 22.7999 24.075 22.7186 24.2562 22.8218C26.325 24.0061 27.425 24.3155 29.7781 24.178C29.9937 24.1655 30.1718 24.3593 30.1562 24.5936L30.075 25.6905C30.075 25.6905 29.2125 26.178 26.5781 25.6186C24.7093 25.2249 23.1375 24.0155 23.1375 24.0155Z" fill="#212121"/>
<path d="M29.9623 25.5968C27.3123 25.7375 25.653 25.2593 23.3405 24.0312C23.1592 23.9343 23.0873 23.7125 23.1748 23.525L23.5467 22.7375C23.6405 22.5406 23.8811 22.4593 24.0748 22.5625C26.2905 23.7437 27.4686 24.0562 29.9936 23.9187C30.2248 23.9062 30.4186 24.1031 30.3967 24.3343L30.3248 25.2406C30.3092 25.4343 30.153 25.5875 29.9623 25.5968Z" fill="url(#paint8_linear_1170_5179)"/>
<path d="M27.6155 24.9844L26.8937 25.4626C26.7499 25.5563 26.5593 25.5188 26.4655 25.3751L25.9874 24.6532C25.9649 24.6194 25.9493 24.5815 25.9415 24.5416C25.9337 24.5017 25.9339 24.4607 25.942 24.4209C25.9502 24.3811 25.9661 24.3433 25.9889 24.3097C26.0117 24.2761 26.0409 24.2473 26.0749 24.2251L26.7968 23.7469C26.8306 23.7244 26.8685 23.7088 26.9084 23.701C26.9483 23.6932 26.9893 23.6934 27.0291 23.7015C27.0689 23.7097 27.1067 23.7256 27.1403 23.7484C27.1739 23.7712 27.2027 23.8005 27.2249 23.8344L27.703 24.5563C27.7968 24.6969 27.7593 24.8907 27.6155 24.9844Z" fill="#FDD835"/>
<path d="M26.0251 18.1219C26.4251 17.9469 27.1689 17.7032 28.2408 17.6625C28.3095 17.6594 28.3751 17.6594 28.4376 17.6594C29.4033 17.6594 29.9939 17.9219 30.297 18.1094L28.1283 20.4407L26.0251 18.1219Z" fill="#E53935"/>
<path d="M28.4407 17.9811C29.0313 17.9811 29.4657 18.0874 29.7688 18.203L28.1344 19.9592L26.5875 18.2561C26.9844 18.1311 27.5438 18.0092 28.2532 17.9842C28.3188 17.9842 28.3782 17.9811 28.4407 17.9811ZM28.4407 17.3342C28.3719 17.3342 28.3032 17.3342 28.2313 17.3374C26.4282 17.403 25.5032 18.0249 25.5032 18.0249L28.1282 20.9155L30.7782 18.0655C30.7751 18.0686 30.0938 17.3342 28.4407 17.3342Z" fill="#FDD835"/>
<path opacity="0.42" d="M25.5032 18.0251C25.5032 18.0251 26.4282 17.4032 28.2313 17.3376C30.0344 17.272 30.7782 18.0657 30.7782 18.0657L28.1282 20.9157L25.5032 18.0251Z" fill="url(#paint9_linear_1170_5179)"/>
<path d="M22.0813 34.5532C22.0813 34.5532 21.5782 37.5719 20.3376 39.5469C19.7313 40.35 18.7438 41.0094 18.2313 42.3875C17.997 43.0219 19.3657 43.625 20.4313 43.0407C21.072 42.6875 22.0407 40.5313 22.0407 40.5313C22.897 38.975 25.447 36.4938 25.447 36.4938C24.9563 34.2125 22.0813 34.5532 22.0813 34.5532Z" fill="url(#paint10_linear_1170_5179)"/>
<path d="M20.6875 15.6532C20.6875 15.6532 22.4656 13.4095 25.6406 14.0501C28 14.5251 27.5031 16.0407 27.5031 16.0407C27.5031 16.0407 26.3125 16.0501 25.2406 15.8032C24.1562 15.5532 23.1906 15.0501 22.6156 15.1095L20.6875 15.6532Z" fill="#ED4132"/>
<path d="M27.5032 16.0408C27.5032 16.0408 27.65 14.5064 28.6875 14.1346C29.725 13.7627 32.05 13.4189 32.05 13.4189C32.05 13.4189 31.3219 14.8439 30.7594 15.2939C29.5719 16.2439 27.5032 16.0408 27.5032 16.0408Z" fill="#ED4132"/>
<path opacity="0.4" d="M21.853 16.7158C21.853 16.7158 22.8718 15.7971 24.4218 16.1689C26.653 16.7033 27.503 16.0408 27.503 16.0408C27.503 16.0408 29.1437 16.6314 30.6968 15.8846C31.7624 15.3721 32.053 13.4189 32.053 13.4189L31.6874 13.8314C31.6874 13.8314 30.3187 15.3221 28.9562 15.7252C27.9593 16.0221 27.5062 16.0408 27.5062 16.0408C27.5062 16.0408 23.8312 14.7814 22.9937 15.1314C22.1499 15.4814 21.853 16.7158 21.853 16.7158Z" fill="#212121"/>
<path d="M27.4407 13.7659L26.4094 13.794L26.4407 14.594C26.4407 15.6034 27.5188 16.0347 27.5188 16.0347C27.5188 16.0347 28.5032 15.5065 28.5032 14.5784L28.4719 13.7378L27.4407 13.7659Z" fill="#E59600"/>
<path d="M27.447 14.7346C28.9814 14.6939 30.3564 13.0127 30.2907 10.6533C30.2251 8.30644 28.7314 7.18456 27.2407 7.22519C25.7501 7.26581 24.3189 8.46581 24.3814 10.8127C24.447 13.1752 25.9126 14.7752 27.447 14.7346Z" fill="#FFCA28"/>
<path d="M25.9344 12.097C26.1742 12.0905 26.3631 11.8838 26.3563 11.6353C26.3495 11.3869 26.1496 11.1908 25.9098 11.1974C25.67 11.2039 25.4811 11.4106 25.4879 11.6591C25.4947 11.9075 25.6946 12.1036 25.9344 12.097Z" fill="#404040"/>
<path d="M28.8311 12.0157C29.0709 12.0092 29.2598 11.8025 29.253 11.5541C29.2462 11.3056 29.0463 11.1095 28.8065 11.1161C28.5667 11.1226 28.3778 11.3293 28.3846 11.5778C28.3914 11.8262 28.5913 12.0223 28.8311 12.0157Z" fill="#404040"/>
<path d="M28.1376 13.1939C27.8626 13.3689 26.9407 13.3939 26.6564 13.2346C26.4939 13.1439 26.3314 13.2939 26.4032 13.4377C26.472 13.5783 26.9845 13.9002 27.4189 13.8877C27.8532 13.8752 28.3407 13.5283 28.4001 13.3814C28.4626 13.2377 28.297 13.0939 28.1376 13.1939Z" fill="#795548"/>
<path d="M27.675 12.3971C27.6661 12.3936 27.6566 12.3914 27.6469 12.3909L27.0219 12.4096C27.0125 12.4096 27.0032 12.4127 26.9938 12.419C26.9375 12.444 26.9094 12.5034 26.9375 12.5659C26.9657 12.6284 27.0938 12.8002 27.3438 12.7909C27.5938 12.7846 27.7125 12.6065 27.7375 12.544C27.7625 12.4752 27.7313 12.4159 27.675 12.3971Z" fill="#E59600"/>
<path d="M26.5657 10.8097C26.4813 10.7034 26.2844 10.5472 25.9125 10.5566C25.5407 10.5659 25.3532 10.7316 25.275 10.8441C25.2407 10.8941 25.25 10.9503 25.2782 10.9816C25.3032 11.0128 25.3719 11.0409 25.45 11.0128C25.5282 10.9847 25.675 10.9034 25.925 10.8941C26.175 10.8878 26.3282 10.9628 26.4063 10.9878C26.4844 11.0128 26.5532 10.9816 26.575 10.9472C26.588 10.9261 26.594 10.9016 26.5923 10.8769C26.5907 10.8523 26.5813 10.8288 26.5657 10.8097Z" fill="#6D4C41"/>
<path d="M29.4656 10.7316C29.3812 10.6253 29.1843 10.4691 28.8124 10.4784C28.4406 10.4878 28.2531 10.6534 28.1749 10.7659C28.1406 10.8159 28.1499 10.8722 28.1781 10.9034C28.2031 10.9347 28.2718 10.9628 28.3499 10.9347C28.4281 10.9066 28.5749 10.8253 28.8249 10.8159C29.0749 10.8097 29.2281 10.8847 29.3062 10.9097C29.3843 10.9347 29.4531 10.9034 29.4749 10.8691C29.4937 10.8347 29.5031 10.7784 29.4656 10.7316Z" fill="#6D4C41"/>
<path d="M23.4062 12.5877C23.4562 11.4064 23.4344 10.5877 23.4938 10.0845C23.5438 9.6564 24.0437 6.58765 27.1344 6.4439C30.6656 6.2814 31.1719 9.82203 31.1719 9.82203L31.1937 11.197C31.1937 11.197 31.1156 11.8689 30.7781 12.6877C30.4344 13.5095 29.8844 13.7283 29.9844 13.3127C30.0938 12.8533 30.2031 12.2252 30.175 11.6189C30.1625 11.3533 30.2031 10.3658 29.6406 10.2689C27.5875 9.9064 26.3875 8.87828 26.3875 8.87828C26.1188 9.5439 25.2125 10.2283 24.8875 10.4814C24.6187 10.6939 24.6969 11.5095 24.7188 11.8595L24.9156 13.447C24.5719 13.2502 23.6 12.947 23.4062 12.5877Z" fill="#543930"/>
<path d="M32.9625 11.8376C32.9188 11.547 32.3656 7.10633 31.3281 6.87508C31.3281 6.87508 30.7781 6.88133 30.2156 6.93133C29.775 6.94696 29.4813 6.83133 29.3969 6.55008C29.2938 6.33758 29.4 5.86258 29.5781 5.33133C29.7563 4.79696 30.075 4.73133 30.3281 4.72508C30.8188 4.71258 31.6563 5.20946 32.8063 6.20321C35.0188 8.11571 36.2281 11.0001 36.2281 11.0001C36.1844 11.0032 34.7594 12.9501 32.9625 11.8376Z" fill="url(#paint11_linear_1170_5179)"/>
<defs>
<radialGradient id="paint0_radial_1170_5179" cx="0" cy="0" r="1" gradientTransform="matrix(-2.60432 4.54969 3.63598 2.08115 26.9769 12.2219)" gradientUnits="userSpaceOnUse">
<stop offset="0.782" stop-color="#6D4C41" stop-opacity="0"/>
<stop offset="1" stop-color="#6D4C41"/>
</radialGradient>
<linearGradient id="paint1_linear_1170_5179" x1="28.8647" y1="19.3764" x2="19.9644" y2="31.2973" gradientUnits="userSpaceOnUse">
<stop stop-color="#A52714"/>
<stop offset="0.529" stop-color="#D23F31"/>
<stop offset="1" stop-color="#ED4132"/>
</linearGradient>
<radialGradient id="paint2_radial_1170_5179" cx="0" cy="0" r="1" gradientTransform="matrix(5.43552 2.04079 3.95442 -10.5331 27.3987 23.8551)" gradientUnits="userSpaceOnUse">
<stop stop-color="#212121"/>
<stop offset="0.999" stop-color="#212121" stop-opacity="0"/>
</radialGradient>
<linearGradient id="paint3_linear_1170_5179" x1="17.877" y1="21.2711" x2="22.4689" y2="29.1986" gradientUnits="userSpaceOnUse">
<stop stop-color="#212121"/>
<stop offset="0.999" stop-color="#212121" stop-opacity="0"/>
</linearGradient>
<linearGradient id="paint4_linear_1170_5179" x1="27.7522" y1="16.9955" x2="27.6985" y2="23.1449" gradientUnits="userSpaceOnUse">
<stop stop-color="#42A5F5"/>
<stop offset="1" stop-color="#1E88E5"/>
</linearGradient>
<linearGradient id="paint5_linear_1170_5179" x1="19.7395" y1="20.4973" x2="17.6901" y2="16.0495" gradientUnits="userSpaceOnUse">
<stop stop-color="#A52714"/>
<stop offset="0.529" stop-color="#D23F31"/>
<stop offset="1" stop-color="#DB4437"/>
</linearGradient>
<linearGradient id="paint6_linear_1170_5179" x1="21.2278" y1="30.3104" x2="19.6653" y2="32.7323" gradientUnits="userSpaceOnUse">
<stop offset="0.001" stop-color="#851F10"/>
<stop offset="0.841" stop-color="#A52714"/>
</linearGradient>
<linearGradient id="paint7_linear_1170_5179" x1="25.8095" y1="26.5744" x2="22.9504" y2="32.9934" gradientUnits="userSpaceOnUse">
<stop stop-color="#42A5F5"/>
<stop offset="1" stop-color="#1E88E5"/>
</linearGradient>
<linearGradient id="paint8_linear_1170_5179" x1="23.5939" y1="23.5672" x2="30.3501" y2="25.0437" gradientUnits="userSpaceOnUse">
<stop stop-color="#D32F2F"/>
<stop offset="0.23" stop-color="#F44336"/>
<stop offset="0.742" stop-color="#F44336"/>
<stop offset="1" stop-color="#D32F2F"/>
</linearGradient>
<linearGradient id="paint9_linear_1170_5179" x1="28.1397" y1="18.0338" x2="28.1397" y2="21.1135" gradientUnits="userSpaceOnUse">
<stop stop-color="#0D47A1" stop-opacity="0"/>
<stop offset="1" stop-color="#0D47A1"/>
</linearGradient>
<linearGradient id="paint10_linear_1170_5179" x1="24.6557" y1="35.4194" x2="17.6826" y2="42.3925" gradientUnits="userSpaceOnUse">
<stop stop-color="#A52714"/>
<stop offset="0.529" stop-color="#D23F31"/>
<stop offset="1" stop-color="#ED4132"/>
</linearGradient>
<linearGradient id="paint11_linear_1170_5179" x1="34.74" y1="11.5254" x2="30.4247" y2="4.99852" gradientUnits="userSpaceOnUse">
<stop stop-color="#A52714"/>
<stop offset="0.529" stop-color="#D23F31"/>
<stop offset="1" stop-color="#DB4437"/>
</linearGradient>
</defs>
</svg>
